<svg xmlns="http://www.w3.org/2000/svg" viewBox="0 0 79 82" width="79" height="82">
	<style>
		tspan { white-space:pre }
		.shp0 { fill: #231f20 } 
	</style>
	<path id="Path 9 copy" fill-rule="evenodd" class="shp0" d="M1.85 54.42L1.68 53.98C7.67 49.27 14.17 44.06 14.17 38.35C14.17 35.22 12.49 32.81 8.85 32.81C5.32 32.81 2.57 35.27 1.17 37.4L0.61 37.06C2.46 33.09 5.99 27.38 13.38 27.38C17.69 27.38 20.89 29.95 20.89 33.98C20.89 40.09 14.17 44.51 9.07 48.6L19.37 48.6C23.63 48.6 23.85 47.26 24.69 45.63L25.26 45.8L22.06 54.42L1.85 54.42ZM46.31 34.66L30.85 34.66L30.07 43.06C31.53 42.72 32.81 42.5 34.72 42.5C43.79 42.5 48.33 47.53 48.33 54.2C48.33 62.54 41.33 68.53 33.54 68.53C28.17 68.53 24.86 66.86 24.86 63.89C24.86 62.21 25.87 60.58 28.17 60.58C32.81 60.58 31.13 67.42 35.11 67.42C39.65 67.42 41.66 62.32 41.66 57.78C41.66 51.51 37.85 49.5 34.83 49.5C31.64 49.5 29.51 50.73 28.67 52.52L28.05 52.41L30.52 27.94L44.74 27.94C47.21 27.94 47.65 27.15 48.33 25.58L49 25.81C48.49 27.15 47.32 31.18 46.31 34.66ZM64.4 54.65C56.61 54.65 50.57 48.1 50.57 40.59C50.57 26.03 65.01 16.4 77.33 13.65L77.78 14.33C72.29 17.01 65.8 21.78 62.1 29.67C63.28 29.28 64.29 29.22 65.91 29.22C73.19 29.22 78.57 34.43 78.57 41.21C78.57 48.32 72.85 54.65 64.4 54.65ZM63.73 30.4C62.6 30.4 61.65 30.74 61.04 31.52C58.52 34.71 57.79 39.08 57.79 43.11C57.79 49.78 60.42 53.75 64.45 53.75C68.37 53.75 71.12 50.22 71.12 43.5C71.12 37.45 68.99 30.4 63.73 30.4ZM376.55 54.42L345.54 54.42L345.54 53.94C347.12 53.7 348.8 53.13 349.67 52.12C350.29 51.35 350.48 49 350.53 46.94C350.58 45.16 350.62 40.89 350.62 37L350.62 27.64C350.62 25.33 350.58 22.55 349.81 21.73C348.85 20.72 347.7 20.58 345.97 20.34L345.97 19.86L374.1 19.86L377.36 28.26L376.88 28.5C374.29 25.28 371.32 22.6 369.11 21.49C368.29 21.06 365.6 20.53 361.42 20.53C360.08 20.53 358.64 20.63 358.02 20.77C357.92 21.78 357.78 25.28 357.78 29.51C357.78 34.36 357.83 36.04 357.83 36.37C358.4 36.37 361.23 36.37 362.91 35.99C366.8 35.08 368.19 32.29 368.96 28.69L369.54 28.69L369.54 45.16L368.96 45.16C368.43 43.14 366.8 39.93 365.65 38.87C364.64 37.96 363.2 37.33 361.28 37.24C359.36 37.14 359.89 37.14 357.87 37.14C357.78 38.01 357.78 39.93 357.78 41.8C357.78 43.53 357.78 46.26 357.83 47.51C357.87 49.58 357.97 51.59 358.55 52.46C359.12 53.32 361.57 53.7 363.92 53.7C364.98 53.7 366.61 53.61 367.95 53.42C371.94 52.89 375.25 50.1 378.42 44.63L378.95 44.78L376.55 54.42ZM414.56 23.32C414.13 24.28 414.03 27.2 413.94 30.13C413.84 32.87 413.7 36.76 413.7 41.03C413.7 44.68 413.75 50.01 413.75 53.75C413.75 54.33 413.51 54.81 412.84 54.81C412.31 54.81 411.97 54.52 411.68 54.18C400.98 41.65 394.83 34.6 386.38 24.66L386.38 44.15C386.38 47.32 386.48 50.25 387.11 51.5C387.83 52.94 389.46 53.61 392.05 53.94L392.05 54.42L379.86 54.42L379.86 53.94C381.39 53.75 383.31 53.22 384.18 51.83C385.04 50.49 385.23 47.8 385.33 44.15C385.43 41.41 385.52 37.52 385.52 33.25C385.52 29.61 385.57 28.74 385.47 25.04C384.94 21.35 382.06 20.63 380.19 20.34L380.19 19.86L391.52 19.86L412.88 44.68L412.88 30.13C412.88 27.64 412.88 25.04 412.4 23.7C411.78 21.92 410.05 20.77 406.98 20.34L406.98 19.86L419.27 19.86L419.27 20.34C416.92 20.68 415.33 21.49 414.56 23.32Z" />
</svg>