<svg xmlns="http://www.w3.org/2000/svg" viewBox="0 0 90 82" width="90" height="82">
	<style>
		tspan { white-space:pre }
		.shp0 { fill: #171714 } 
	</style>
	<path id="Path 21 copy" fill-rule="evenodd" class="shp0" d="M86.63 18.63L86.63 71.72L2.47 71.72L2.47 18.63L10.1 18.63L10.1 16.73C10.1 15.14 11.29 13.72 12.99 13.28C16.12 12.46 22.27 11.04 28.18 10.66C35.2 10.2 42.52 12.52 44.78 13.31C46.94 12.51 53.86 10.2 60.83 10.66C66.74 11.04 72.89 12.46 76.03 13.28C77.72 13.72 78.91 15.14 78.91 16.73L78.91 18.63L86.63 18.63ZM13.51 61C18.13 59.36 23.39 58.49 28.42 58.83C34.5 59.24 42.54 61.58 44.78 62.26C46.93 61.56 54.53 59.23 60.59 58.83C65.63 58.49 70.88 59.36 75.5 61L75.5 16.73C75.5 16.5 75.33 16.29 75.08 16.23C72.08 15.45 66.19 14.08 60.6 13.72C55.51 13.4 49.46 14.73 44.82 16.66C40.06 14.82 33.67 13.39 28.42 13.72C22.82 14.08 16.94 15.45 13.93 16.23C13.68 16.29 13.51 16.5 13.51 16.73L13.51 61ZM83.39 21.54L78.91 21.54L78.91 62.75C78.91 64.17 77.27 65.09 75.87 64.49C74.26 63.8 68.07 61.41 60.84 61.9C55.99 62.22 49.36 64 44.81 65.52C40.13 64.05 33.12 62.22 28.18 61.9C20.94 61.41 14.76 63.8 13.14 64.49C11.72 65.09 10.1 64.15 10.1 62.75L10.1 21.54L5.7 21.54L5.7 68.81L83.39 68.81L83.39 21.54Z" />
</svg>