<svg xmlns="http://www.w3.org/2000/svg" viewBox="0 0 75 82" width="75" height="82">
	<style>
		tspan { white-space:pre }
		.shp0 { fill: #231f20 } 
	</style>
	<path id="Path 9 copy" fill-rule="evenodd" class="shp0" d="M-343.15 58.42L-343.32 57.98C-337.33 53.27 -330.83 48.06 -330.83 42.35C-330.83 39.22 -332.51 36.81 -336.15 36.81C-339.68 36.81 -342.43 39.27 -343.83 41.4L-344.39 41.06C-342.54 37.09 -339.01 31.38 -331.62 31.38C-327.31 31.38 -324.11 33.95 -324.11 37.98C-324.11 44.09 -330.83 48.51 -335.93 52.6L-325.63 52.6C-321.37 52.6 -321.15 51.26 -320.31 49.63L-319.74 49.8L-322.94 58.42L-343.15 58.42ZM-298.69 38.66L-314.15 38.66L-314.93 47.06C-313.47 46.72 -312.19 46.5 -310.28 46.5C-301.21 46.5 -296.67 51.53 -296.67 58.2C-296.67 66.54 -303.67 72.53 -311.46 72.53C-316.83 72.53 -320.14 70.86 -320.14 67.89C-320.14 66.21 -319.13 64.58 -316.83 64.58C-312.19 64.58 -313.87 71.42 -309.89 71.42C-305.35 71.42 -303.34 66.32 -303.34 61.78C-303.34 55.51 -307.15 53.5 -310.17 53.5C-313.36 53.5 -315.49 54.73 -316.33 56.52L-316.95 56.41L-314.48 31.94L-300.26 31.94C-297.79 31.94 -297.35 31.15 -296.67 29.58L-296 29.81C-296.51 31.15 -297.68 35.18 -298.69 38.66ZM-280.6 58.65C-288.39 58.65 -294.43 52.1 -294.43 44.59C-294.43 30.03 -279.99 20.4 -267.67 17.65L-267.22 18.33C-272.71 21.01 -279.2 25.78 -282.9 33.67C-281.72 33.28 -280.71 33.22 -279.09 33.22C-271.81 33.22 -266.43 38.43 -266.43 45.21C-266.43 52.32 -272.15 58.65 -280.6 58.65ZM-281.27 34.4C-282.4 34.4 -283.35 34.74 -283.96 35.52C-286.48 38.71 -287.21 43.08 -287.21 47.11C-287.21 53.78 -284.58 57.75 -280.55 57.75C-276.63 57.75 -273.88 54.22 -273.88 47.5C-273.88 41.45 -276.01 34.4 -281.27 34.4ZM31.55 58.42L0.54 58.42L0.54 57.94C2.12 57.7 3.8 57.13 4.67 56.12C5.29 55.35 5.48 53 5.53 50.94C5.58 49.16 5.62 44.89 5.62 41L5.62 31.64C5.62 29.33 5.58 26.55 4.81 25.73C3.85 24.72 2.7 24.58 0.97 24.34L0.97 23.86L29.1 23.86L32.36 32.26L31.88 32.5C29.29 29.28 26.32 26.6 24.11 25.49C23.29 25.06 20.6 24.53 16.42 24.53C15.08 24.53 13.64 24.63 13.02 24.77C12.92 25.78 12.78 29.28 12.78 33.51C12.78 38.36 12.83 40.04 12.83 40.37C13.4 40.37 16.23 40.37 17.91 39.99C21.8 39.08 23.19 36.29 23.96 32.69L24.54 32.69L24.54 49.16L23.96 49.16C23.43 47.14 21.8 43.93 20.65 42.87C19.64 41.96 18.2 41.33 16.28 41.24C14.36 41.14 14.89 41.14 12.87 41.14C12.78 42.01 12.78 43.93 12.78 45.8C12.78 47.53 12.78 50.26 12.83 51.51C12.87 53.58 12.97 55.59 13.55 56.46C14.12 57.32 16.57 57.7 18.92 57.7C19.98 57.7 21.61 57.61 22.95 57.42C26.94 56.89 30.25 54.1 33.42 48.63L33.95 48.78L31.55 58.42ZM69.56 27.32C69.13 28.28 69.03 31.2 68.94 34.13C68.84 36.87 68.7 40.76 68.7 45.03C68.7 48.68 68.75 54.01 68.75 57.75C68.75 58.33 68.51 58.81 67.84 58.81C67.31 58.81 66.97 58.52 66.68 58.18C55.98 45.65 49.83 38.6 41.38 28.66L41.38 48.15C41.38 51.32 41.48 54.25 42.11 55.5C42.83 56.94 44.46 57.61 47.05 57.94L47.05 58.42L34.86 58.42L34.86 57.94C36.39 57.75 38.31 57.22 39.18 55.83C40.04 54.49 40.23 51.8 40.33 48.15C40.43 45.41 40.52 41.52 40.52 37.25C40.52 33.61 40.57 32.74 40.47 29.04C39.94 25.35 37.06 24.63 35.19 24.34L35.19 23.86L46.52 23.86L67.88 48.68L67.88 34.13C67.88 31.64 67.88 29.04 67.4 27.7C66.78 25.92 65.05 24.77 61.98 24.34L61.98 23.86L74.27 23.86L74.27 24.34C71.92 24.68 70.33 25.49 69.56 27.32Z" />
</svg>