<svg xmlns="http://www.w3.org/2000/svg" viewBox="0 0 57 58" width="57" height="58">
	<style>
		tspan { white-space:pre }
		.shp0 { fill: #ededed } 
		.shp1 { fill: #000000 } 
	</style>
	<path id="Path 47 copy 4" fill-rule="evenodd" class="shp0" d="M30.58 28.93L30.58 21.79C30.58 19.34 32.58 17.34 35.04 17.34C37.5 17.34 39.5 19.34 39.5 21.79L39.5 28.93C39.5 31.39 37.5 33.39 35.04 33.39C32.58 33.39 30.58 31.39 30.58 28.93ZM32.37 28.93C32.37 30.4 33.57 31.6 35.04 31.6C36.52 31.6 37.72 30.4 37.72 28.93L37.72 21.79C37.72 20.32 36.52 19.12 35.04 19.12C33.57 19.12 32.37 20.32 32.37 21.79L32.37 28.93ZM43.06 25.36L43.06 28.93C43.06 33.05 39.94 36.46 35.93 36.9L35.93 40.52L38.61 40.52C39.1 40.52 39.5 40.92 39.5 41.41C39.5 41.9 39.1 42.3 38.61 42.3L31.47 42.3C30.98 42.3 30.58 41.9 30.58 41.41C30.58 40.92 30.98 40.52 31.47 40.52L34.15 40.52L34.15 36.9C30.14 36.46 27.02 33.05 27.02 28.93L27.02 25.36C27.02 24.87 27.42 24.47 27.91 24.47C28.4 24.47 28.8 24.87 28.8 25.36L28.8 28.93C28.8 32.37 31.6 35.17 35.04 35.17C38.48 35.17 41.28 32.37 41.28 28.93L41.28 25.36C41.28 24.87 41.68 24.47 42.17 24.47C42.67 24.47 43.06 24.87 43.06 25.36ZM27.91 22.69L26.06 22.69C25.73 22.69 25.42 22.5 25.27 22.19L24.37 20.4L21.54 27.48C21.24 28.24 20.13 28.22 19.87 27.42L17.15 19.26L16.21 22.08C16.09 22.44 15.75 22.69 15.37 22.69L13.52 22.69C13.03 22.69 12.63 22.29 12.63 21.79C12.63 21.3 13.03 20.9 13.52 20.9L14.72 20.9L16.3 16.16C16.57 15.35 17.72 15.35 18 16.16L20.79 24.55L23.45 17.9C23.74 17.18 24.74 17.14 25.08 17.83L26.62 20.9L27.91 20.9C28.4 20.9 28.8 21.3 28.8 21.79C28.8 22.29 28.4 22.69 27.91 22.69Z" />
	<path id="Path 46 copy 5" class="shp1" d="M56.67 28.93C56.67 44.56 44 57.24 28.36 57.24C12.72 57.24 0.05 44.56 0.05 28.93C0.05 13.29 12.72 0.61 28.36 0.61C44 0.61 56.67 13.29 56.67 28.93Z" />
	<path id="Path 47 copy 5" fill-rule="evenodd" class="shp0" d="M30.58 28.93L30.58 21.79C30.58 19.34 32.58 17.34 35.04 17.34C37.5 17.34 39.5 19.34 39.5 21.79L39.5 28.93C39.5 31.39 37.5 33.39 35.04 33.39C32.58 33.39 30.58 31.39 30.58 28.93ZM32.37 28.93C32.37 30.4 33.57 31.6 35.04 31.6C36.52 31.6 37.72 30.4 37.72 28.93L37.72 21.79C37.72 20.32 36.52 19.12 35.04 19.12C33.57 19.12 32.37 20.32 32.37 21.79L32.37 28.93ZM43.06 25.36L43.06 28.93C43.06 33.05 39.94 36.46 35.93 36.9L35.93 40.52L38.61 40.52C39.1 40.52 39.5 40.92 39.5 41.41C39.5 41.9 39.1 42.3 38.61 42.3L31.47 42.3C30.98 42.3 30.58 41.9 30.58 41.41C30.58 40.92 30.98 40.52 31.47 40.52L34.15 40.52L34.15 36.9C30.14 36.46 27.02 33.05 27.02 28.93L27.02 25.36C27.02 24.87 27.42 24.47 27.91 24.47C28.4 24.47 28.8 24.87 28.8 25.36L28.8 28.93C28.8 32.37 31.6 35.17 35.04 35.17C38.48 35.17 41.28 32.37 41.28 28.93L41.28 25.36C41.28 24.87 41.68 24.47 42.17 24.47C42.67 24.47 43.06 24.87 43.06 25.36ZM27.91 22.69L26.06 22.69C25.73 22.69 25.42 22.5 25.27 22.19L24.37 20.4L21.54 27.48C21.24 28.24 20.13 28.22 19.87 27.42L17.15 19.26L16.21 22.08C16.09 22.44 15.75 22.69 15.37 22.69L13.52 22.69C13.03 22.69 12.63 22.29 12.63 21.79C12.63 21.3 13.03 20.9 13.52 20.9L14.72 20.9L16.3 16.16C16.57 15.35 17.72 15.35 18 16.16L20.79 24.55L23.45 17.9C23.74 17.18 24.74 17.14 25.08 17.83L26.62 20.9L27.91 20.9C28.4 20.9 28.8 21.3 28.8 21.79C28.8 22.29 28.4 22.69 27.91 22.69Z" />
	<path id="Path 46 copy 6" class="shp1" d="M56.67 28.93C56.67 44.56 44 57.24 28.36 57.24C12.72 57.24 0.05 44.56 0.05 28.93C0.05 13.29 12.72 0.61 28.36 0.61C44 0.61 56.67 13.29 56.67 28.93Z" />
	<path id="Path 47 copy 6" fill-rule="evenodd" class="shp0" d="M30.58 28.93L30.58 21.79C30.58 19.34 32.58 17.34 35.04 17.34C37.5 17.34 39.5 19.34 39.5 21.79L39.5 28.93C39.5 31.39 37.5 33.39 35.04 33.39C32.58 33.39 30.58 31.39 30.58 28.93ZM32.37 28.93C32.37 30.4 33.57 31.6 35.04 31.6C36.52 31.6 37.72 30.4 37.72 28.93L37.72 21.79C37.72 20.32 36.52 19.12 35.04 19.12C33.57 19.12 32.37 20.32 32.37 21.79L32.37 28.93ZM43.06 25.36L43.06 28.93C43.06 33.05 39.94 36.46 35.93 36.9L35.93 40.52L38.61 40.52C39.1 40.52 39.5 40.92 39.5 41.41C39.5 41.9 39.1 42.3 38.61 42.3L31.47 42.3C30.98 42.3 30.58 41.9 30.58 41.41C30.58 40.92 30.98 40.52 31.47 40.52L34.15 40.52L34.15 36.9C30.14 36.46 27.02 33.05 27.02 28.93L27.02 25.36C27.02 24.87 27.42 24.47 27.91 24.47C28.4 24.47 28.8 24.87 28.8 25.36L28.8 28.93C28.8 32.37 31.6 35.17 35.04 35.17C38.48 35.17 41.28 32.37 41.28 28.93L41.28 25.36C41.28 24.87 41.68 24.47 42.17 24.47C42.67 24.47 43.06 24.87 43.06 25.36ZM27.91 22.69L26.06 22.69C25.73 22.69 25.42 22.5 25.27 22.19L24.37 20.4L21.54 27.48C21.24 28.24 20.13 28.22 19.87 27.42L17.15 19.26L16.21 22.08C16.09 22.44 15.75 22.69 15.37 22.69L13.52 22.69C13.03 22.69 12.63 22.29 12.63 21.79C12.63 21.3 13.03 20.9 13.52 20.9L14.72 20.9L16.3 16.16C16.57 15.35 17.72 15.35 18 16.16L20.79 24.55L23.45 17.9C23.74 17.18 24.74 17.14 25.08 17.83L26.62 20.9L27.91 20.9C28.4 20.9 28.8 21.3 28.8 21.79C28.8 22.29 28.4 22.69 27.91 22.69Z" />
	<path id="Path 46 copy 7" class="shp1" d="M56.67 28.93C56.67 44.56 44 57.24 28.36 57.24C12.72 57.24 0.05 44.56 0.05 28.93C0.05 13.29 12.72 0.61 28.36 0.61C44 0.61 56.67 13.29 56.67 28.93Z" />
	<path id="Path 47 copy 7" fill-rule="evenodd" class="shp0" d="M30.58 28.93L30.58 21.79C30.58 19.34 32.58 17.34 35.04 17.34C37.5 17.34 39.5 19.34 39.5 21.79L39.5 28.93C39.5 31.39 37.5 33.39 35.04 33.39C32.58 33.39 30.58 31.39 30.58 28.93ZM32.37 28.93C32.37 30.4 33.57 31.6 35.04 31.6C36.52 31.6 37.72 30.4 37.72 28.93L37.72 21.79C37.72 20.32 36.52 19.12 35.04 19.12C33.57 19.12 32.37 20.32 32.37 21.79L32.37 28.93ZM43.06 25.36L43.06 28.93C43.06 33.05 39.94 36.46 35.93 36.9L35.93 40.52L38.61 40.52C39.1 40.52 39.5 40.92 39.5 41.41C39.5 41.9 39.1 42.3 38.61 42.3L31.47 42.3C30.98 42.3 30.58 41.9 30.58 41.41C30.58 40.92 30.98 40.52 31.47 40.52L34.15 40.52L34.15 36.9C30.14 36.46 27.02 33.05 27.02 28.93L27.02 25.36C27.02 24.87 27.42 24.47 27.91 24.47C28.4 24.47 28.8 24.87 28.8 25.36L28.8 28.93C28.8 32.37 31.6 35.17 35.04 35.17C38.48 35.17 41.28 32.37 41.28 28.93L41.28 25.36C41.28 24.87 41.68 24.47 42.17 24.47C42.67 24.47 43.06 24.87 43.06 25.36ZM27.91 22.69L26.06 22.69C25.73 22.69 25.42 22.5 25.27 22.19L24.37 20.4L21.54 27.48C21.24 28.24 20.13 28.22 19.87 27.42L17.15 19.26L16.21 22.08C16.09 22.44 15.75 22.69 15.37 22.69L13.52 22.69C13.03 22.69 12.63 22.29 12.63 21.79C12.63 21.3 13.03 20.9 13.52 20.9L14.72 20.9L16.3 16.16C16.57 15.35 17.72 15.35 18 16.16L20.79 24.55L23.45 17.9C23.74 17.18 24.74 17.14 25.08 17.83L26.62 20.9L27.91 20.9C28.4 20.9 28.8 21.3 28.8 21.79C28.8 22.29 28.4 22.69 27.91 22.69Z" />
</svg>