<svg xmlns="http://www.w3.org/2000/svg" viewBox="0 0 57 58" width="57" height="58">
	<style>
		tspan { white-space:pre }
		.shp0 { fill: #000000 } 
		.shp1 { fill: #ffffff } 
	</style>
	<path id="Path 61 copy" class="shp0" d="M56.67 28.93C56.67 44.57 44 57.24 28.36 57.24C12.72 57.24 0.05 44.57 0.05 28.93C0.05 13.29 12.72 0.61 28.36 0.61C44 0.61 56.67 13.29 56.67 28.93Z" />
	<path id="Path 62 copy" fill-rule="evenodd" class="shp1" d="M40.95 24.82L41.47 25.34C41.78 25.65 41.78 26.15 41.47 26.46C41.16 26.77 40.65 26.77 40.34 26.46L39.83 25.95C38.5 27.01 36.75 27.55 34.95 27.31C34.95 27.31 21.74 38.31 21.74 38.32C21.42 38.58 20.96 38.56 20.66 38.27L20.1 37.71L16.5 41.31C16.19 41.62 15.68 41.62 15.37 41.31C15.06 41 15.06 40.5 15.37 40.19L18.98 36.58L18.42 36.02C18.13 35.73 18.1 35.26 18.37 34.95C21.63 31.03 29.3 21.83 29.38 21.73C29.14 19.91 29.69 18.17 30.73 16.85L30.22 16.34C29.91 16.03 29.91 15.53 30.22 15.22C30.53 14.91 31.04 14.91 31.35 15.22L31.87 15.74C34.49 13.74 38.12 14.04 40.38 16.3C42.67 18.59 42.93 22.22 40.95 24.82ZM38.7 24.82L31.86 17.98C31.11 19 30.77 20.28 30.96 21.58L35.1 25.72C36.41 25.91 37.69 25.57 38.7 24.82ZM33.54 26.41L30.28 23.14L29.25 24.37L32.31 27.43L33.54 26.41ZM31.09 28.45L28.23 25.6L20.05 35.41L21.28 36.63L31.09 28.45ZM39.81 23.68C41.16 21.74 40.95 19.13 39.26 17.43C37.56 15.73 34.95 15.52 33 16.88L39.81 23.68Z" />
</svg>