<svg xmlns="http://www.w3.org/2000/svg" viewBox="0 0 57 58" width="57" height="58">
	<style>
		tspan { white-space:pre }
		.shp0 { fill: #000000 } 
		.shp1 { fill: #ffffff } 
	</style>
	<path id="Path 18 copy" class="shp0" d="M56.67 29.24C56.67 44.88 44 57.55 28.36 57.55C12.72 57.55 0.05 44.88 0.05 29.24C0.05 13.6 12.72 0.92 28.36 0.92C44 0.92 56.67 13.6 56.67 29.24Z" />
	<path id="Path 19 copy" class="shp1" d="M28.04 37.02C26.51 37.02 25.28 38.29 25.28 39.82C25.28 41.3 26.48 42.61 28.04 42.61C29.6 42.61 30.83 41.3 30.83 39.82C30.83 38.29 29.56 37.02 28.04 37.02Z" />
	<path id="Path 20 copy" fill-rule="evenodd" class="shp0" d="M30.83 39.82C30.83 41.3 29.6 42.61 28.04 42.61C26.48 42.61 25.28 41.3 25.28 39.82C25.28 38.29 26.51 37.02 28.04 37.02C29.56 37.02 30.83 38.29 30.83 39.82ZM25.78 39.82C25.78 41.08 26.79 42.11 28.04 42.11C29.28 42.11 30.33 41.06 30.33 39.82C30.33 38.57 29.28 37.52 28.04 37.52C26.79 37.52 25.78 38.55 25.78 39.82Z" />
	<path id="Path 21 copy" class="shp1" d="M28.51 15.86C23.61 15.86 21.36 18.77 21.36 20.73C21.36 22.14 22.56 22.8 23.54 22.8C25.5 22.8 24.7 20 28.4 20C30.22 20 31.67 20.8 31.67 22.47C31.67 24.43 29.63 25.55 28.44 26.57C27.39 27.48 26.01 28.96 26.01 32.09C26.01 33.97 26.51 34.52 28 34.52C29.78 34.52 30.14 33.72 30.14 33.03C30.14 31.14 30.18 30.05 32.17 28.49C33.15 27.73 36.24 25.26 36.24 21.85C36.24 18.44 33.15 15.86 28.51 15.86Z" />
</svg>