<svg xmlns="http://www.w3.org/2000/svg" viewBox="0 0 57 58" width="57" height="58">
	<style>
		tspan { white-space:pre }
		.shp0 { fill: #000000 } 
		.shp1 { fill: #ffffff } 
	</style>
	<path id="Path 75 copy" class="shp0" d="M56.67 28.93C56.67 44.57 44 57.24 28.36 57.24C12.72 57.24 0.05 44.57 0.05 28.93C0.05 13.29 12.72 0.61 28.36 0.61C44 0.61 56.67 13.29 56.67 28.93Z" />
	<path id="Path 76 copy" fill-rule="evenodd" class="shp1" d="M21.3 41.58C20.8 41.58 20.3 41.44 19.85 41.18C18.99 40.66 18.48 39.76 18.48 38.75L18.48 19.11C18.48 18.1 18.99 17.19 19.86 16.67C20.3 16.41 20.8 16.27 21.3 16.27C21.77 16.27 22.24 16.4 22.66 16.63L40.77 26.54C41.68 27.03 42.24 27.99 42.24 29.02C42.23 30.06 41.66 31.01 40.75 31.5L22.64 41.24C22.23 41.47 21.76 41.58 21.3 41.58ZM22.28 37.12L37.36 29.01L22.28 20.75L22.28 37.12Z" />
	<path id="Path 77 copy" fill-rule="evenodd" class="shp0" d="M22.9 16.19L41.01 26.1C42.08 26.68 42.74 27.81 42.74 29.03C42.73 30.25 42.06 31.37 40.99 31.94L22.88 41.68C22.38 41.95 21.84 42.08 21.3 42.08C20.71 42.08 20.13 41.92 19.6 41.61C18.58 41 17.98 39.93 17.98 38.75L17.98 19.11C17.98 17.92 18.58 16.85 19.61 16.24C20.13 15.93 20.72 15.78 21.3 15.78C21.85 15.78 22.4 15.91 22.9 16.19ZM20.12 17.1C19.4 17.53 18.98 18.28 18.98 19.11L18.98 38.75C18.98 39.58 19.4 40.32 20.11 40.75C20.48 40.97 20.89 41.08 21.3 41.08C21.68 41.08 22.06 40.99 22.4 40.8L40.51 31.06C41.26 30.66 41.74 29.88 41.74 29.02C41.74 28.17 41.28 27.38 40.53 26.97L22.42 17.07C22.07 16.88 21.69 16.78 21.3 16.78C20.89 16.78 20.48 16.89 20.12 17.1ZM21.78 19.91L23.26 20.72L36.79 28.13L38.41 29.01L36.79 29.88L23.25 37.16L21.78 37.95L21.78 19.91ZM36.31 29L22.78 21.6L22.78 36.28L36.31 29Z" />
</svg>