<svg xmlns="http://www.w3.org/2000/svg" viewBox="0 0 93 18" width="93" height="18">
	<style>
		tspan { white-space:pre }
		.shp0 { fill: #ffffff } 
		.shp1 { fill: #f4b752 } 
		.shp2 { fill: #1b2e66 } 
	</style>
	<path id="Path 89 copy" class="shp0" d="M92.88 18.33L0.59 18.33L0.59 -0.29L92.88 -0.29L92.88 18.33Z" />
	<path id="Path 90 copy" class="shp1" d="M8.94 4.43L8.33 6.61L6.77 6.61L5.75 10.28C5.43 11.4 5.37 11.68 6.87 11.83L6.27 14L3.89 14.14C0.75 14.32 0.17 13.51 0.85 11.08L2.08 6.61L1.5 6.61L2.12 4.43L2.7 4.43L3.22 2.56L8.18 1.55L7.39 4.43L8.94 4.43ZM18.27 4.21C20.02 4.18 21.37 4.81 20.77 6.99L19.76 10.58C19.51 11.51 19.51 11.63 19.97 11.84L19.37 13.98L14.37 13.98C14.38 13.38 14.26 13.42 14.84 11.37L14.94 11.01L15.72 8.21C15.86 7.72 16.04 6.97 14.92 6.88C14.72 6.88 14.52 6.91 14.31 6.99L13.3 10.58C13.04 11.45 12.98 11.61 13.52 11.84L12.92 13.98L7.07 13.98L7.68 11.84C8.35 11.59 8.4 11.36 8.59 10.64L10.34 4.36C10.51 3.73 10.61 3.32 10.09 3.11L10.68 0.97L15.98 0.97L14.91 4.84C15.58 4.56 16.52 4.23 18.27 4.21Z" />
	<path id="Path 91 copy" fill-rule="evenodd" class="shp1" d="M28.12 4.3C31.82 4.3 33.63 4.91 32.83 7.81L32.19 10.06L25.72 10.06L25.48 10.95C25.3 11.59 25.28 12.03 26.04 12.04C26.36 12.05 26.92 12.07 27.22 11L27.32 10.64L32.02 10.64L31.35 13.04C29.97 13.78 28 14.26 26.1 14.27C22.36 14.29 20.81 13.78 20.63 12.36C20.57 11.9 20.69 11.31 20.89 10.59L21.6 7.99C22.2 5.88 23.09 4.3 28.12 4.3ZM27.62 6.54C27.02 6.52 26.68 6.67 26.34 7.88L28.18 7.88C28.4 7.1 28.46 6.55 27.62 6.54Z" />
	<path id="Path 92 copy" class="shp2" d="M41.26 3.52C40.14 3.5 39.86 4.48 39.92 4.8C40.06 5.55 42.45 5.83 43.72 6.18C46.21 6.88 46.55 8.15 46.07 9.82L46.05 9.88C45.29 12.6 43.13 14.22 38.29 14.24C35.72 14.25 33.78 13.78 32.5 12.88L33.46 9.38L38.64 9.38C38.57 9.71 38.47 10.04 38.39 10.35C38.29 10.69 38.09 11.42 39.2 11.43C39.6 11.45 40.26 11.27 40.52 10.43C40.88 9.24 40.1 9.03 37.95 8.62C35.87 8.21 33.68 7.73 34.52 4.7C35.28 1.98 37.53 0.72 41.77 0.72C44.27 0.72 46.09 1.06 47.71 2.08L46.85 5.14L41.88 5.14L41.94 4.9C42.22 3.9 42.04 3.53 41.26 3.52ZM54.36 7.21C54.49 6.76 54.51 6.47 54.38 6.31C54.3 6.14 54.11 6.07 53.77 6.07C53.07 6.07 52.79 6.24 52.49 7.34L51.59 10.57C51.27 11.72 51.5 11.86 52.13 11.88C52.73 11.88 53.11 11.71 53.51 10.26L53.66 9.73L58.36 9.73L57.49 12.87C56.13 13.7 54.17 14.24 51.23 14.25C46.25 14.27 46.06 12.55 46.61 10.53L47.56 7.16C48.16 5.03 49.43 3.71 54.07 3.69C57.02 3.68 58.66 4.24 59.69 4.95L58.93 7.72L54.24 7.72L54.32 7.4L54.36 7.21Z" />
	<path id="Path 93 copy" fill-rule="evenodd" class="shp2" d="M63.72 14.25C58.8 14.27 57.85 13.41 58.76 10.18L59.5 7.54C60.23 4.97 61.16 3.73 66.18 3.69C71.28 3.66 72.19 4.66 71.38 7.54L70.64 10.18C69.75 13.33 68.23 14.24 63.72 14.25ZM64.19 11.88C64.7 11.9 65.15 11.91 65.55 10.5L66.36 7.57C66.71 6.34 66.46 6.07 65.84 6.07C64.91 6.05 64.72 6.72 64.46 7.57L63.66 10.5C63.39 11.43 63.3 11.86 64.19 11.88ZM80.52 3.67L81.09 3.72L80.13 7.18C78.33 7.18 77.5 7.55 77.05 9.12L76.78 10.1C76.61 10.73 76.1 11.35 77.03 11.78L76.4 14.05L70.07 14.05L70.71 11.75C71 11.63 71.38 11.52 71.7 10.41L72.51 7.54C72.75 6.68 72.78 6.51 72.28 6.2L72.91 3.9L78.28 3.9L78.05 4.7C78.94 3.87 79.58 3.67 80.52 3.67Z" />
	<path id="Path 94 copy" fill-rule="evenodd" class="shp2" d="M87.66 3.69C91.62 3.69 93.53 4.34 92.68 7.39L92 9.79L85.11 9.79L84.85 10.73C84.66 11.4 84.63 11.86 85.45 11.88C85.79 11.9 86.39 11.91 86.7 10.77L86.81 10.4L91.83 10.4L91.11 12.95C89.64 13.74 87.53 14.24 85.52 14.25C81.53 14.27 79.88 13.74 79.69 12.22C79.62 11.74 79.75 11.11 79.96 10.33L80.73 7.58C81.36 5.37 82.32 3.69 87.66 3.69ZM87.13 6.06C86.49 6.04 86.13 6.21 85.77 7.47L87.73 7.47C87.96 6.66 88.02 6.08 87.13 6.06Z" />
	<path id="Path 95 copy" class="shp1" d="M44.08 17.53L44.74 15.2L31.87 15.2L31.2 17.53L44.08 17.53Z" />
</svg>