<svg xmlns="http://www.w3.org/2000/svg" viewBox="0 0 97 25" width="97" height="25">
	<style>
		tspan { white-space:pre }
		.shp0 { fill: #ffffff } 
		.shp1 { fill: #db2629 } 
	</style>
	<path id="Path 42 copy" class="shp0" d="M96.51 24.75L-0.03 24.75L-0.03 0.08L96.51 0.08L96.51 24.75Z" />
	<path id="Path 43 copy" fill-rule="evenodd" class="shp1" d="M64.65 24.54L57.28 24.54C55.37 24.54 53.18 23.91 53.18 21.62L53.18 21.09C53.18 18.8 55.62 18.21 57.53 18.21L59.51 18.21L59.51 16.9C59.51 16.62 59.31 16.45 58.98 16.45L58.52 16.45L58.52 17.85L54.26 17.85C53.3 17.85 52.68 18.35 52.68 19.16L52.68 24.54L47.51 24.54L47.51 14.65L52.64 14.65L52.64 16.31C53.22 15.18 54.34 14.48 56.16 14.48L59.51 14.48C63.78 14.48 64.65 15.71 64.65 17.68L64.65 24.54ZM59.51 20.21L59.22 20.21C58.73 20.21 58.52 20.42 58.52 20.78L58.52 21.97C58.52 22.26 58.6 22.4 59.18 22.4L59.51 22.4L59.51 20.21ZM60.55 5.92L59.56 5.92C58.56 5.92 57.98 6.42 57.98 7.22L57.98 12.47L52.85 12.47L52.85 2.58L57.98 2.58L57.98 3.67C58.52 2.69 59.85 2.44 60.55 2.44L60.55 5.92ZM87.45 24.54C85.54 24.54 83.43 23.91 83.43 21.62L83.43 17.54C83.43 15.25 85.79 14.65 87.7 14.65L89.48 14.65L89.48 12.01L94.61 12.01L94.61 24.54L87.45 24.54ZM77.47 24.68C74.24 24.68 71.88 23.84 71.88 21.3L71.88 17.78C71.88 15.28 74.24 14.48 77.47 14.48C80.7 14.48 83.11 15.35 83.11 17.82L83.11 20.25L76.98 20.25L76.98 22.15C76.98 22.39 77.23 22.5 77.47 22.5C77.76 22.5 77.97 22.39 77.97 22.15L77.97 20.67L83.11 20.67L83.11 21.37C83.11 23.91 80.7 24.68 77.47 24.68ZM36.3 12.47L34.68 12.47L34.68 14.16L29.55 14.16L29.55 2.58L36.55 2.58C38.74 2.58 40.77 3 40.77 5.5L40.77 9.51C40.77 11.98 38.45 12.47 36.3 12.47ZM34.68 24.75C30.54 24.75 29.13 23.84 29.13 21.8L29.13 21.27L34.22 21.27L34.22 22.25C34.22 22.5 34.47 22.61 34.68 22.61C34.97 22.61 35.18 22.54 35.18 22.29L35.18 21.8C35.18 21.34 34.68 21.2 33.69 20.95C29.59 19.97 29.17 18.91 29.17 17.68L29.17 17.26C29.17 15.15 31.78 14.51 34.72 14.51C37.83 14.51 40.11 15.15 40.11 17.22L40.11 18.03L35.22 18.03L35.22 17.01C35.22 16.76 35.01 16.66 34.72 16.66C34.52 16.66 34.27 16.76 34.27 17.01L34.27 17.47C34.27 17.93 34.72 18.03 35.76 18.28C39.53 19.16 40.19 19.83 40.19 21.09L40.19 21.52C40.19 24.15 37.87 24.75 34.68 24.75ZM21.72 24.54C19.24 24.54 17.71 23.56 17.71 21.62L17.71 14.65L22.84 14.65L22.84 21.9C22.84 22.19 22.93 22.32 23.26 22.32L23.8 22.32L23.8 14.65L28.93 14.65L28.93 24.54L21.72 24.54ZM78.01 16.9C78.01 16.66 77.81 16.48 77.47 16.48C77.23 16.48 76.98 16.66 76.98 16.9L76.98 18.07L78.01 18.07L78.01 16.9ZM44.32 24.54C41.67 24.54 40.39 23.8 40.39 21.83L40.39 13.24L45.52 13.24L45.52 14.65L47.14 14.65L47.14 17.75L45.52 17.75L45.52 21.23C45.52 21.52 45.69 21.66 46.19 21.66L47.14 21.66L47.14 24.54L44.32 24.54ZM68.99 24.54C66.34 24.54 65.06 23.8 65.06 21.83L65.06 13.24L70.19 13.24L70.19 14.65L71.77 14.65L71.77 17.75L70.19 17.75L70.19 21.23C70.19 21.52 70.32 21.66 70.86 21.66L71.77 21.66L71.77 24.54L68.99 24.54ZM11.4 24.54L6.22 24.54L6.22 12.54L11.4 12.54L11.4 24.54ZM17.18 24.54L12 24.54L12 12.54L17.18 12.54L17.18 24.54ZM89.48 16.73L89.1 16.73C88.69 16.73 88.57 16.94 88.57 17.11L88.57 22.08C88.57 22.32 88.69 22.46 89.1 22.46L89.48 22.46L89.48 16.73ZM5.65 24.54L-0.03 24.54L-0.03 10.53L5.65 10.53L5.65 24.54ZM35.67 5.08C35.67 4.87 35.43 4.66 35.1 4.66L34.68 4.66L34.68 10.39L35.1 10.39C35.43 10.39 35.67 10.18 35.67 9.97L35.67 5.08ZM73.42 12.65C69.28 12.65 67.87 11.73 67.87 9.69L67.87 9.16L72.96 9.16L72.96 10.15C72.96 10.39 73.21 10.5 73.42 10.5C73.71 10.5 73.91 10.43 73.91 10.18L73.91 9.69C73.91 9.23 73.42 9.09 72.42 8.85C68.32 7.86 67.87 6.8 67.87 5.57L67.87 5.18C67.87 3.07 70.44 2.4 73.38 2.4C76.48 2.4 78.63 3.07 78.63 5.15L78.63 5.92L73.91 5.92L73.91 4.9C73.91 4.66 73.71 4.55 73.42 4.55C73.21 4.55 72.96 4.66 72.96 4.9L72.96 5.36C72.96 5.82 73.42 5.92 74.45 6.17C78.22 7.05 78.88 7.72 78.88 8.99L78.88 9.41C78.88 12.05 76.61 12.65 73.42 12.65ZM46.81 12.61C43.54 12.61 41.14 11.77 41.14 9.3L41.14 5.71C41.14 3.21 43.54 2.4 46.81 2.4C50 2.4 52.44 3.21 52.44 5.71L52.44 9.3C52.44 11.77 50 12.61 46.81 12.61ZM64.81 12.47C62.16 12.47 60.88 11.69 60.88 9.79L60.88 1.17L66.01 1.17L66.01 2.58L67.67 2.58L67.67 5.75L66.01 5.75L66.01 9.13C66.01 9.44 66.14 9.58 66.72 9.58L67.71 9.58L67.71 12.47L64.81 12.47ZM22.68 12.93C18 12.93 16.05 12.05 16.05 9.09L16.05 8.53L21.89 8.53L21.89 9.72C21.89 10.08 21.93 10.39 22.51 10.39C23.01 10.39 23.13 10.22 23.13 9.76L23.13 9.3C23.13 8.53 22.68 8.49 21.35 8.21C17.17 7.33 16.05 6.35 16.05 4.16L16.05 3.71C16.05 1.21 18.83 0.08 22.55 0.08C27.69 0.08 28.97 1.35 28.97 3.74L28.97 4.62L23.47 4.62L23.47 3.18C23.47 2.9 23.26 2.65 22.84 2.65C22.56 2.65 22.22 2.83 22.22 3.18L22.22 3.64C22.22 4.37 22.68 4.62 23.88 4.87C27.89 5.68 29.18 6.52 29.18 8.56L29.18 9.23C29.18 12.12 27.11 12.93 22.68 12.93ZM47.35 4.94C47.35 4.73 47.06 4.55 46.81 4.55C46.56 4.55 46.31 4.73 46.31 4.94L46.31 10.08C46.31 10.32 46.56 10.5 46.81 10.5C47.06 10.5 47.35 10.32 47.35 10.08L47.35 4.94ZM95.92 12.01C96.24 12.01 96.51 12.26 96.51 12.6C96.51 12.94 96.24 13.19 95.92 13.19C95.59 13.19 95.32 12.94 95.32 12.6C95.32 12.26 95.59 12.01 95.92 12.01ZM95.92 13.1C96.19 13.1 96.41 12.89 96.41 12.6C96.41 12.31 96.19 12.09 95.92 12.09C95.64 12.09 95.43 12.31 95.43 12.6C95.43 12.89 95.64 13.1 95.92 13.1ZM95.95 12.25C96.12 12.25 96.2 12.32 96.2 12.45C96.2 12.58 96.12 12.63 96.01 12.64L96.21 12.94L96.1 12.94L95.91 12.65L95.79 12.65L95.79 12.94L95.69 12.94L95.69 12.25L95.95 12.25ZM95.79 12.56L95.91 12.56C96 12.56 96.09 12.55 96.09 12.44C96.09 12.35 96.01 12.34 95.94 12.34L95.79 12.34L95.79 12.56Z" />
</svg>