<svg xmlns="http://www.w3.org/2000/svg" viewBox="0 0 41 47" width="41" height="47">
	<defs>
		<linearGradient id="grd1" gradientUnits="userSpaceOnUse"  x1="0.713" y1="21.155" x2="5.582" y2="21.155">
			<stop offset="0" stop-color="#ffffff"  />
			<stop offset="0.112" stop-color="#ffffff"  />
			<stop offset="0.539" stop-color="#ffffff"  />
			<stop offset="1" stop-color="#929aa0"  />
		</linearGradient>
		<linearGradient id="grd2" gradientUnits="userSpaceOnUse"  x1="38.056" y1="23.14" x2="38.056" y2="9.261">
			<stop offset="0" stop-color="#ffffff"  />
			<stop offset="0.348" stop-color="#ffffff"  />
			<stop offset="0.562" stop-color="#929aa0"  />
			<stop offset="1" stop-color="#929aa0"  />
		</linearGradient>
		<linearGradient id="grd3" gradientUnits="userSpaceOnUse"  x1="1.837" y1="39.027" x2="20.523" y2="39.027">
			<stop offset="0" stop-color="#ffffff"  />
			<stop offset="0.152" stop-color="#ffffff"  />
			<stop offset="0.511" stop-color="#929aa0"  />
			<stop offset="1" stop-color="#929aa0"  />
		</linearGradient>
		<linearGradient id="grd4" gradientUnits="userSpaceOnUse"  x1="30.887" y1="38.597" x2="8.733" y2="6.946">
			<stop offset="0" stop-color="#e3e4e5"  />
			<stop offset="0.253" stop-color="#929aa0"  />
			<stop offset="0.753" stop-color="#e3e4e5"  />
			<stop offset="1" stop-color="#929aa0"  />
		</linearGradient>
		<linearGradient id="grd5" gradientUnits="userSpaceOnUse"  x1="8.272" y1="4.384" x2="20.523" y2="4.384">
			<stop offset="0" stop-color="#ffffff"  />
			<stop offset="0.247" stop-color="#ffffff"  />
			<stop offset="0.787" stop-color="#929aa0"  />
			<stop offset="1" stop-color="#929aa0"  />
		</linearGradient>
		<linearGradient id="grd6" gradientUnits="userSpaceOnUse"  x1="20.523" y1="34.479" x2="39.963" y2="34.479">
			<stop offset="0" stop-color="#ffffff"  />
			<stop offset="0.197" stop-color="#ffffff"  />
			<stop offset="0.933" stop-color="#929aa0"  />
			<stop offset="1" stop-color="#929aa0"  />
		</linearGradient>
		<linearGradient id="grd7" gradientUnits="userSpaceOnUse"  x1="20.523" y1="4.384" x2="32.775" y2="4.384">
			<stop offset="0" stop-color="#ffffff"  />
			<stop offset="0.247" stop-color="#ffffff"  />
			<stop offset="0.787" stop-color="#929aa0"  />
			<stop offset="1" stop-color="#929aa0"  />
		</linearGradient>
		<linearGradient id="grd8" gradientUnits="userSpaceOnUse"  x1="1.104" y1="5.974" x2="8.888" y2="5.974">
			<stop offset="0" stop-color="#ffffff"  />
			<stop offset="0.388" stop-color="#ffffff"  />
			<stop offset="0.865" stop-color="#929aa0"  />
			<stop offset="1" stop-color="#929aa0"  />
		</linearGradient>
	</defs>
	<style>
		tspan { white-space:pre }
		.shp0 { fill: #d1d3d3 } 
		.shp1 { fill: url(#grd1) } 
		.shp2 { fill: url(#grd2) } 
		.shp3 { fill: url(#grd3) } 
		.shp4 { fill: url(#grd4) } 
		.shp5 { fill: url(#grd5) } 
		.shp6 { fill: url(#grd6) } 
		.shp7 { fill: url(#grd7) } 
		.shp8 { fill: url(#grd8) } 
		.shp9 { fill: #2c2e35 } 
	</style>
	<path id="Path 27 copy" class="shp0" d="M36.94 8.37C35.63 7.99 34.67 7 34.1 5.43L32.78 1.8L32.16 4.1C33.42 9.74 38.06 10.15 38.06 10.15L39.94 9.26M15.03 28.93L12.6 25.21L9.9 27.23C9.9 27.23 10.85 27.26 10.85 28.25L10.85 35.26L12.75 33.83L12.75 28.87L14.92 32.2L16.93 30.69L16.93 21.95L15.03 23.38M22.75 20.81L20.6 22.43L20.6 19.2L17.7 21.38C17.7 21.38 18.65 21.4 18.65 22.39L18.65 29.4L20.6 27.93L20.6 24.74L22.75 23.12L22.75 26.32L24.61 24.92L24.61 16.18L22.75 17.58M28.19 20L28.19 13.49L25.29 15.67C25.29 15.67 26.24 15.7 26.24 16.69L26.24 23.7L31.64 19.64C31.52 18.24 31.64 17.41 31.64 17.41" />
	<path id="Path 27 copy 2" class="shp1" d="M2.39 12.16C3.03 13.63 3.52 15.43 3.52 17.46C3.52 22.42 1.08 23.4 1.08 28.61C1.08 30.2 1.35 31.68 1.84 33.05C1.99 32.74 2.21 32.43 2.47 32.2C2.14 31.11 1.96 29.92 1.96 28.61C1.96 25.2 4.26 22.36 4.81 18.9C4.85 18.45 4.88 17.97 4.88 17.45C4.88 13.49 2.99 10.15 2.99 10.15L1.11 9.26L2.39 12.16Z" />
	<path id="Path 28 copy" class="shp2" d="M38.06 10.15C38.06 10.15 36.17 13.49 36.17 17.45C36.17 19.55 37.02 21.25 37.8 23.14L38.81 23.11C38.19 21.53 37.53 20.03 37.53 17.46C37.53 15.43 38.02 13.63 38.67 12.16L39.94 9.26L38.06 10.15Z" />
	<path id="Path 29 copy" class="shp3" d="M1.84 33.05C3.48 37.68 7.58 40.92 12.02 42.07C14.85 42.78 16.18 42.85 18.29 43.45C18.57 43.74 20.52 45.85 20.52 45.85L20.52 43.82C20.52 43.82 19.24 42.43 19.04 42.24C17.5 41.69 15.4 41.49 12.36 40.72C8.2 39.67 3.91 37 2.47 32.2C2.21 32.43 1.99 32.74 1.84 33.05Z" />
	<path id="Path 30 copy" fill-rule="evenodd" class="shp4" d="M20.52 5.81C20.52 5.81 22.93 8.35 26.55 8.35C29.45 8.35 31.54 6.4 31.54 6.4C33.02 10.4 36.17 11.03 36.17 11.03C36.17 11.03 34.8 13.83 34.8 17.45C34.8 22.83 37.23 24.38 37.23 28.61C37.23 34.53 32.62 38.29 28.35 39.38C24.97 40.24 22.75 40.34 21.27 41.05C21.27 41.05 20.73 41.55 20.52 41.78C20.32 41.55 19.78 41.05 19.78 41.05C18.29 40.34 16.08 40.24 12.7 39.38C8.42 38.29 3.81 34.53 3.81 28.61C3.81 24.38 6.24 22.83 6.24 17.45C6.24 13.83 4.87 11.03 4.87 11.03C4.87 11.03 8.03 10.4 9.5 6.4C9.5 6.4 11.6 8.35 14.49 8.35C18.12 8.35 20.52 5.81 20.52 5.81ZM14.49 9.91C12.71 9.91 11.19 9.3 10.11 8.7C9.12 10.37 7.86 11.33 6.87 11.88C7.29 13.17 7.79 15.15 7.79 17.45C7.79 21.87 6.28 23.95 5.65 26.45L27.8 9.81C27.4 9.87 26.99 9.91 26.55 9.91C23.85 9.91 21.73 8.72 20.52 7.84C19.31 8.72 17.2 9.91 14.49 9.91ZM10.81 37.01L33.44 20.01C33.32 19.25 33.25 18.4 33.25 17.45C33.25 15.15 33.75 13.17 34.18 11.88C33.33 11.41 32.28 10.64 31.38 9.38L5.37 28.91C5.5 32.76 7.98 35.55 10.81 37.01ZM20.52 39.93C20.52 39.93 20.8 39.64 21.02 39.47C22.01 38.91 25.29 38.56 27.97 37.88C31.69 36.93 35.68 33.63 35.68 28.61C35.68 26.11 34.58 24.46 33.87 21.95L12.77 37.79C12.88 37.82 12.98 37.85 13.08 37.88C15.76 38.56 19.04 38.91 20.03 39.47C20.25 39.64 20.52 39.93 20.52 39.93Z" />
	<path id="Path 31 copy" class="shp5" d="M8.27 1.8L8.89 4.1C8.89 4.1 11.67 6.97 14.49 6.97C18.13 6.97 20.52 3.87 20.52 3.87L20.52 1.94L18.62 3.82C17.64 4.79 16.07 5.58 14.49 5.58C13.31 5.58 12.2 5.05 11.23 4.25L8.27 1.8Z" />
	<path id="Path 32 copy" class="shp6" d="M37.8 23.14C38.45 24.72 39.05 26.43 39.05 28.61C39.05 35.03 34.46 39.26 28.69 40.72C25.65 41.49 23.55 41.69 22.01 42.24C21.81 42.43 20.52 43.82 20.52 43.82L20.52 45.85C20.52 45.85 22.48 43.74 22.76 43.45C24.87 42.85 26.19 42.78 29.03 42.07C34.78 40.59 39.96 35.58 39.96 28.61C39.96 26.1 39.4 24.57 38.81 23.11L37.8 23.14Z" />
	<path id="Path 33 copy" class="shp7" d="M29.82 4.25C28.85 5.05 27.73 5.58 26.55 5.58C24.97 5.58 23.41 4.79 22.43 3.82L20.52 1.94L20.52 3.87C20.52 3.87 22.92 6.97 26.55 6.97C29.37 6.97 32.16 4.1 32.16 4.1L32.77 1.8L29.82 4.25Z" />
	<path id="Path 34 copy" class="shp8" d="M6.95 5.43C6.38 7 5.42 7.99 4.11 8.37L1.11 9.26L2.99 10.15C2.99 10.15 7.63 9.74 8.89 4.1L8.27 1.8L6.95 5.43Z" />
	<path id="Path 36 copy" fill-rule="evenodd" class="shp9" d="M1.83 12.41L0.28 8.88L3.94 7.8C5.06 7.47 5.88 6.6 6.38 5.23L8 0.8L11.61 3.79C12.57 4.58 13.54 4.98 14.49 4.98C15.77 4.98 17.22 4.36 18.2 3.4L20.52 1.09L22.85 3.4C23.82 4.36 25.27 4.98 26.55 4.98C27.51 4.98 28.48 4.58 29.44 3.79L33.05 0.8L34.66 5.23C35.17 6.6 35.99 7.47 37.1 7.8L40.77 8.88L39.21 12.41C38.49 14.04 38.13 15.74 38.13 17.46C38.13 22.23 40.56 23.31 40.56 28.61C40.56 36.24 34.66 41.24 29.18 42.65C26.41 43.32 25.57 43.37 23.07 43.98C22.87 44.2 20.52 46.73 20.52 46.73C20.52 46.73 18.17 44.2 17.97 43.98C15.47 43.37 14.63 43.32 11.86 42.65C6.38 41.24 0.48 36.24 0.48 28.61C0.48 23.31 2.91 22.23 2.91 17.46C2.91 15.74 2.55 14.04 1.83 12.41ZM1.1 9.26L2.38 12.17C3.03 13.63 3.51 15.43 3.51 17.46C3.51 22.42 1.08 23.4 1.08 28.61C1.08 30.2 1.35 31.68 1.84 33.05C3.48 37.68 7.58 40.92 12.01 42.07C14.85 42.78 16.18 42.85 18.29 43.45C18.57 43.74 20.52 45.85 20.52 45.85C20.52 45.85 22.48 43.74 22.75 43.45C24.87 42.85 26.19 42.78 29.03 42.07C34.78 40.59 39.96 35.58 39.96 28.61C39.96 26.1 39.4 24.57 38.81 23.11C38.18 21.53 37.53 20.03 37.53 17.46C37.53 15.43 38.02 13.63 38.66 12.17L39.94 9.26L36.93 8.37C35.62 7.99 34.67 7 34.1 5.43L32.77 1.8L29.82 4.25C28.85 5.05 27.73 5.58 26.55 5.58C24.97 5.58 23.41 4.79 22.43 3.82L20.52 1.94L18.62 3.82C17.64 4.79 16.07 5.58 14.49 5.58C13.31 5.58 12.2 5.05 11.23 4.25L8.27 1.8L6.95 5.43C6.38 7 5.42 7.99 4.11 8.37L1.1 9.26ZM33.86 21.95C34.58 24.46 35.68 26.11 35.68 28.61C35.68 33.63 31.68 36.93 27.97 37.88C25.29 38.56 22.01 38.91 21.02 39.47C20.8 39.64 20.52 39.93 20.52 39.93C20.52 39.93 20.25 39.64 20.03 39.47C19.04 38.91 15.76 38.56 13.08 37.88C12.98 37.85 12.88 37.82 12.77 37.79M7.79 17.45C7.79 15.15 7.29 13.17 6.87 11.88C7.86 11.33 9.12 10.37 10.11 8.7C11.19 9.3 12.71 9.91 14.49 9.91C17.2 9.91 19.31 8.72 20.52 7.83C21.73 8.72 23.85 9.91 26.55 9.91C26.99 9.91 27.4 9.87 27.8 9.81L5.65 26.45C6.28 23.95 7.79 21.87 7.79 17.45Z" />
	<path id="Path 37 copy" fill-rule="evenodd" class="shp9" d="M5.37 28.91L31.38 9.38C32.29 10.64 33.33 11.41 34.18 11.88C33.75 13.17 33.25 15.15 33.25 17.45C33.25 18.4 33.32 19.25 33.44 20.01L10.81 37.01C7.98 35.55 5.5 32.76 5.37 28.91ZM17.7 21.38C17.7 21.38 18.65 21.4 18.65 22.39L18.65 29.4L20.6 27.93L20.6 24.74L22.75 23.12L22.75 26.32L24.61 24.92L24.61 16.18L22.75 17.58L22.75 20.81L20.6 22.42L20.6 19.2L17.7 21.38ZM25.29 15.67C25.29 15.67 26.24 15.7 26.24 16.69L26.24 23.7L31.64 19.64C31.52 18.25 31.64 17.41 31.64 17.41L28.19 20L28.19 13.49L25.29 15.67ZM9.9 27.23C9.9 27.23 10.85 27.26 10.85 28.25L10.85 35.26L12.75 33.83L12.75 28.87L14.92 32.2L16.93 30.69L16.93 21.95L15.03 23.38L15.03 28.93L12.6 25.21L9.9 27.23Z" />
	<path id="Path 38 copy" fill-rule="evenodd" class="shp9" d="M4.88 17.45C4.88 13.49 2.99 10.15 2.99 10.15C2.99 10.15 7.63 9.74 8.89 4.1C8.89 4.1 11.67 6.97 14.49 6.97C18.13 6.97 20.52 3.87 20.52 3.87C20.52 3.87 22.92 6.97 26.55 6.97C29.37 6.97 32.16 4.1 32.16 4.1C33.42 9.74 38.06 10.15 38.06 10.15C38.06 10.15 36.17 13.49 36.17 17.45C36.17 22.53 38.6 23.96 38.6 28.61C38.6 33.73 35.09 39.1 28.69 40.72C25.65 41.49 23.55 41.69 22.01 42.24C21.81 42.43 20.52 43.83 20.52 43.83C20.52 43.83 19.24 42.43 19.04 42.24C17.5 41.69 15.4 41.49 12.35 40.72C5.96 39.1 2.45 33.73 2.45 28.61C2.45 24.44 4.41 22.85 4.81 18.9C4.85 18.45 4.88 17.97 4.88 17.45ZM6.24 17.45C6.24 22.83 3.81 24.38 3.81 28.61C3.81 34.53 8.42 38.29 12.69 39.38C16.08 40.24 18.29 40.34 19.78 41.05C19.78 41.05 20.32 41.55 20.52 41.78C20.73 41.55 21.27 41.05 21.27 41.05C22.75 40.34 24.97 40.24 28.35 39.38C32.62 38.29 37.23 34.53 37.23 28.61C37.23 24.38 34.8 22.83 34.8 17.45C34.8 13.83 36.17 11.03 36.17 11.03C36.17 11.03 33.01 10.4 31.54 6.4C31.54 6.4 29.45 8.35 26.55 8.35C22.93 8.35 20.52 5.81 20.52 5.81C20.52 5.81 18.12 8.35 14.49 8.35C11.6 8.35 9.5 6.4 9.5 6.4C8.03 10.4 4.87 11.03 4.87 11.03C4.87 11.03 6.24 13.83 6.24 17.45Z" />
	<path id="Path 39 copy" fill-rule="evenodd" class="shp9" d="M-497.28 -21.29C-496.41 -21.29 -495.71 -20.59 -495.71 -19.73C-495.71 -18.86 -496.41 -18.16 -497.28 -18.16C-498.14 -18.16 -498.84 -18.86 -498.84 -19.73C-498.84 -20.59 -498.14 -21.29 -497.28 -21.29ZM-497.28 -20.96C-497.95 -20.96 -498.5 -20.41 -498.5 -19.73C-498.5 -19.05 -497.95 -18.5 -497.28 -18.5C-496.6 -18.5 -496.05 -19.05 -496.05 -19.73C-496.05 -20.41 -496.6 -20.96 -497.28 -20.96Z" />
	<path id="Path 40 copy" fill-rule="evenodd" class="shp9" d="M-497.92 -20.62L-497.16 -20.62C-496.87 -20.62 -496.63 -20.39 -496.63 -20.09C-496.63 -19.86 -496.78 -19.66 -496.98 -19.59L-496.63 -18.83L-497 -18.83L-497.34 -19.56L-497.58 -19.56L-497.58 -18.83L-497.92 -18.83M-497.58 -19.9L-497.16 -19.9C-497.05 -19.9 -496.97 -19.99 -496.97 -20.09C-496.97 -20.2 -497.05 -20.29 -497.16 -20.29L-497.58 -20.29L-497.58 -19.9Z" />
</svg>