<svg xmlns="http://www.w3.org/2000/svg" viewBox="0 0 47 47" width="47" height="47">
	<style>
		tspan { white-space:pre }
		.shp0 { fill: #ffffff } 
		.shp1 { fill: #f63d37 } 
		.shp2 { fill: #004684 } 
		.shp3 { fill: #231f20 } 
		.shp4 { fill: #aeb0b3 } 
		.shp5 { fill: #ecb32c } 
	</style>
	<path id="Path 44 copy 2" class="shp0" d="M46.83 23.88C46.83 36.58 36.54 46.87 23.84 46.87C11.14 46.87 0.84 36.58 0.84 23.88C0.84 11.18 11.14 0.88 23.84 0.88C36.54 0.88 46.83 11.18 46.83 23.88Z" />
	<path id="Path 45 copy 2" class="shp1" d="M23.9 27.13C25.68 27.13 27.12 25.69 27.12 23.91C27.12 22.12 25.68 20.68 23.9 20.68C22.11 20.68 20.67 22.12 20.67 23.91C20.67 25.69 22.11 27.13 23.9 27.13Z" />
	<path id="Path 47 copy 2" fill-rule="evenodd" class="shp2" d="M45.73 23.87C45.73 35.96 35.93 45.76 23.84 45.76C11.75 45.76 1.95 35.96 1.95 23.87C1.95 11.79 11.75 1.99 23.84 1.99C35.93 1.99 45.73 11.79 45.73 23.87ZM23.84 4.87C13.34 4.87 4.84 13.38 4.84 23.87C4.84 34.37 13.34 42.88 23.84 42.88C34.34 42.88 42.84 34.37 42.84 23.87C42.84 13.38 34.34 4.87 23.84 4.87Z" />
	<path id="Path 48 copy 2" class="shp1" d="M20.11 27.1C18.33 27.1 16.88 25.66 16.88 23.88C16.88 22.09 18.33 20.65 20.11 20.65L20.11 27.1ZM27.56 30.66L27.56 27.6L30.63 27.6C30.63 29.29 29.26 30.66 27.56 30.66ZM20.11 17.09L20.11 20.15L17.05 20.15C17.05 18.46 18.42 17.09 20.11 17.09ZM20.11 30.66L20.11 27.6L17.05 27.6C17.05 29.29 18.42 30.66 20.11 30.66ZM31.29 26.65L31.29 21.11C32.24 21.67 32.87 22.7 32.87 23.88C32.87 25.06 32.24 26.09 31.29 26.65ZM21.06 16.42L26.61 16.42C26.05 15.48 25.02 14.85 23.84 14.85C22.66 14.85 21.63 15.48 21.06 16.42ZM26.57 31.33L21.03 31.33C21.59 32.27 22.62 32.91 23.8 32.91C24.98 32.91 26.01 32.27 26.57 31.33ZM27.06 27.6C27.06 29.38 25.62 30.83 23.84 30.83C22.06 30.83 20.61 29.38 20.61 27.6L27.06 27.6ZM27.56 27.1C29.35 27.1 30.79 25.66 30.79 23.88C30.79 22.09 29.35 20.65 27.56 20.65L27.56 27.1ZM27.06 20.16C27.06 18.37 25.62 16.93 23.84 16.93C22.06 16.93 20.61 18.37 20.61 20.16L27.06 20.16ZM16.38 26.65L16.39 21.11C15.44 21.67 14.81 22.7 14.81 23.88C14.81 25.06 15.44 26.09 16.38 26.65ZM30.63 20.15L27.56 20.15L27.56 17.09C29.25 17.09 30.63 18.46 30.63 20.15ZM8.79 28.84C8.78 28.84 8.75 28.84 8.73 28.85C8.68 28.82 8.63 28.86 8.59 28.83C8.59 28.73 8.6 28.62 8.61 28.53C8.61 28.5 8.61 28.47 8.6 28.44C8.61 28.43 8.61 28.42 8.6 28.41C8.61 28.25 8.61 28.09 8.61 27.95C8.62 27.83 8.61 27.72 8.61 27.59L8.6 27.59C8.25 27.65 7.9 27.71 7.54 27.77L7.45 27.77C7.47 27.58 7.59 27.44 7.64 27.26L7.63 27.24C7.54 27.15 7.43 27.07 7.35 26.98C7.16 26.82 6.99 26.63 6.78 26.47C6.71 26.37 6.6 26.3 6.52 26.21C6.5 26.22 6.5 26.19 6.5 26.18L6.5 26.15L6.53 26.17C6.62 26.14 6.72 26.11 6.78 26.03C6.74 25.74 6.66 25.46 6.59 25.17L6.6 25.17C6.83 25.22 7.04 25.31 7.29 25.31C7.37 25.21 7.4 25.08 7.46 24.97C7.59 25.1 7.71 25.26 7.83 25.4C7.89 25.46 7.94 25.54 8.01 25.59C8.03 25.59 8.06 25.59 8.06 25.57C8.04 25.27 7.97 25 7.92 24.72C7.9 24.57 7.86 24.41 7.85 24.26L7.82 24.17C7.97 24.27 8.1 24.34 8.26 24.41C8.3 24.42 8.33 24.38 8.34 24.36C8.52 24.1 8.64 23.81 8.78 23.53C8.91 23.8 9.03 24.09 9.19 24.35L9.24 24.41C9.41 24.38 9.55 24.27 9.7 24.18L9.71 24.19C9.63 24.62 9.54 25.05 9.45 25.47C9.44 25.51 9.43 25.58 9.46 25.61L9.51 25.59C9.69 25.41 9.87 25.18 10.04 24.97C10.1 25.09 10.13 25.22 10.22 25.33C10.41 25.34 10.6 25.27 10.79 25.24C10.83 25.23 10.86 25.21 10.91 25.21C10.84 25.48 10.78 25.76 10.72 26.04C10.72 26.14 10.83 26.15 10.9 26.19C10.92 26.2 10.96 26.23 10.99 26.2L11 26.23C10.62 26.58 10.21 26.92 9.83 27.28C9.88 27.44 9.94 27.6 10.01 27.76C10.01 27.78 10.01 27.79 10 27.8C9.9 27.77 9.81 27.75 9.71 27.74C9.43 27.68 9.14 27.64 8.85 27.58C8.83 28 8.85 28.41 8.84 28.83C8.83 28.86 8.8 28.86 8.79 28.84ZM38.89 28.72C38.87 28.72 38.84 28.72 38.83 28.73C38.78 28.71 38.73 28.74 38.69 28.71C38.69 28.61 38.7 28.5 38.7 28.41C38.71 28.38 38.7 28.35 38.7 28.32C38.7 28.31 38.7 28.3 38.7 28.29C38.71 28.13 38.7 27.97 38.7 27.83C38.72 27.71 38.71 27.6 38.71 27.47L38.7 27.47C38.34 27.53 37.99 27.59 37.64 27.65L37.54 27.65C37.57 27.46 37.69 27.32 37.73 27.14L37.72 27.12C37.64 27.03 37.53 26.95 37.45 26.86C37.26 26.7 37.09 26.51 36.88 26.35C36.81 26.25 36.7 26.18 36.62 26.09C36.6 26.1 36.6 26.07 36.6 26.06L36.6 26.03L36.62 26.05C36.72 26.02 36.81 25.99 36.88 25.92C36.84 25.62 36.76 25.34 36.69 25.05L36.7 25.05C36.92 25.11 37.14 25.2 37.39 25.19C37.47 25.09 37.5 24.96 37.56 24.85C37.69 24.99 37.81 25.14 37.93 25.28C37.99 25.34 38.04 25.42 38.11 25.47C38.13 25.47 38.16 25.47 38.16 25.45C38.14 25.15 38.06 24.88 38.02 24.6C38 24.45 37.95 24.29 37.94 24.14L37.92 24.05C38.06 24.15 38.2 24.22 38.36 24.29C38.4 24.3 38.42 24.27 38.44 24.24C38.62 23.98 38.73 23.69 38.88 23.41C39 23.68 39.13 23.97 39.29 24.23L39.33 24.29C39.51 24.26 39.65 24.15 39.8 24.06L39.8 24.07C39.73 24.5 39.64 24.93 39.55 25.35C39.54 25.39 39.52 25.46 39.56 25.49L39.6 25.47C39.79 25.29 39.97 25.06 40.14 24.85C40.2 24.97 40.23 25.11 40.31 25.21C40.51 25.22 40.69 25.15 40.89 25.12C40.93 25.11 40.96 25.09 41.01 25.09C40.93 25.36 40.88 25.64 40.82 25.92C40.82 26.02 40.93 26.03 40.99 26.07C41.02 26.08 41.06 26.11 41.09 26.08L41.09 26.11C40.72 26.46 40.3 26.8 39.93 27.16C39.98 27.32 40.04 27.48 40.1 27.64C40.1 27.66 40.11 27.67 40.09 27.68C40 27.65 39.91 27.63 39.8 27.62C39.52 27.56 39.23 27.52 38.95 27.46C38.93 27.88 38.94 28.3 38.94 28.71C38.93 28.74 38.9 28.74 38.89 28.72Z" />
	<path id="Path 49 copy 2" class="shp2" d="M14.32 20.19L11.52 19.25L11.23 20.14L14.02 21.08L13.39 22.94L6.51 20.63L7.14 18.77L9.6 19.59L9.9 18.71L7.43 17.88L8.06 16.02L14.94 18.33L14.32 20.19Z" />
	<path id="Path 50 copy 2" fill-rule="evenodd" class="shp2" d="M12.46 10.47C13.98 9.18 15.86 10.18 17.01 11.54C18.15 12.89 18.84 14.9 17.32 16.19C15.8 17.48 13.92 16.48 12.78 15.13C11.63 13.77 10.94 11.76 12.46 10.47ZM16.14 14.8C16.7 14.32 15.77 13.18 15.48 12.83C15.19 12.49 14.21 11.38 13.65 11.86C13.08 12.34 14.01 13.48 14.31 13.83C14.6 14.17 15.57 15.28 16.14 14.8ZM22.78 8.45C22.46 8.24 22.2 8.13 21.8 8.21C20.8 8.41 20.78 9.57 20.93 10.35C21.1 11.18 21.56 12.19 22.52 12C22.95 11.91 23.19 11.69 23.45 11.34L23.73 13.36C23.38 13.6 23.05 13.76 22.62 13.84C21.04 14.16 19.46 13.22 18.98 10.79C18.34 7.59 20.43 6.62 21.36 6.43C21.7 6.37 22.04 6.35 22.38 6.41L22.78 8.45ZM27.62 14.37L27.46 10.82L27.47 10.83L27.46 10.82L26.45 13.99L24.58 13.4L26.77 6.48L28.64 7.07L27.71 10.02L27.72 10.02L29.68 7.4L31.65 8.03L29.1 10.9L29.63 15L27.62 14.37ZM27.71 10.02L27.69 10.01L27.68 10.03L27.71 10.02L27.71 10.02ZM35.01 10.32L37.57 12.93L36.35 14.13L35.17 12.93L34.45 13.64L35.51 14.71L34.29 15.92L33.23 14.84L32.44 15.62L33.62 16.82L32.4 18.02L29.84 15.42L35.01 10.32ZM33.29 19.91L36.23 18.97L39.67 16.01L40.29 17.95L38.36 19.27L38.36 19.29L40.71 19.27L41.32 21.2L36.83 20.85L33.89 21.78L33.29 19.91ZM13.98 27.7L15.06 29.23L12.4 33.03L12.42 33.04C13.06 32.49 13.66 31.89 14.34 31.41L15.85 30.34L16.94 31.88L11.01 36.07L9.92 34.54L12.5 30.92L12.47 30.91C11.94 31.35 11.44 31.81 10.88 32.21L9.14 33.43L8.05 31.89L13.98 27.7ZM14.37 38.65L17.94 32.33L19.65 33.3L16.07 39.61L14.37 38.65ZM25.7 37.35L25.69 37.66C25.57 39.45 25.08 41.64 22.81 41.49C20.68 41.35 20.11 39.43 20.23 37.6C20.35 35.8 21.16 33.86 23.29 34C24.46 34.07 25.29 34.87 25.64 35.95L23.7 36.52C23.7 36.23 23.54 35.77 23.19 35.75C22.29 35.69 22.26 37.35 22.22 37.9C22.22 38.42 22.09 39.69 22.85 39.74C23.37 39.77 23.58 39.17 23.59 38.75L22.87 38.7L22.97 37.17L25.7 37.35ZM32.35 39.2L30.99 36.59L30.16 37.02L31.52 39.64L29.78 40.55L26.42 34.11L28.17 33.2L29.37 35.5L30.2 35.07L28.99 32.77L30.73 31.86L34.09 38.3L32.35 39.2ZM37.95 34.49L33.43 31.38L32.82 32.27L31.36 31.26L33.72 27.83L35.18 28.83L34.54 29.76L39.06 32.87L37.95 34.49Z" />
	<path id="Path 51 copy 2" class="shp3" d="M22.47 20.49C22.26 20.53 22.13 20.41 22.09 20.23C22.05 20.03 22.14 19.81 22.34 19.77C22.54 19.73 22.69 19.87 22.73 20.05C22.78 20.27 22.66 20.45 22.47 20.49ZM22.28 22.93C22.09 22.97 21.97 22.86 21.93 22.64C21.91 22.56 21.94 21.16 22.07 21.13L22.48 21.01C22.58 20.99 22.58 21 22.59 21.04C22.59 21.07 22.58 21.1 22.58 21.13L22.45 22C22.43 22.17 22.39 22.4 22.41 22.5C22.42 22.54 22.43 22.6 22.53 22.58C22.64 22.55 22.83 22.27 22.89 22.26C22.93 22.25 22.95 22.26 22.96 22.3C22.98 22.37 22.59 22.86 22.28 22.93Z" />
	<path id="Path 52 copy 2" fill-rule="evenodd" class="shp2" d="M22.21 23.83C21.99 23.83 21.77 23.77 21.59 23.65C21.4 23.52 21.15 23.28 21.05 22.82C21.01 22.64 21.03 22.17 21.05 21.81C21.08 21.43 21.11 20.99 21.3 20.67C21.26 20.59 21.24 20.5 21.22 20.41C21.15 20.07 21.21 19.71 21.4 19.42C21.57 19.15 21.84 18.97 22.15 18.9C22.82 18.76 23.45 19.18 23.6 19.86C23.67 20.21 23.61 20.54 23.44 20.81C23.45 20.82 23.45 20.84 23.46 20.85C23.49 20.99 23.48 21.1 23.47 21.19C23.47 21.21 23.47 21.24 23.46 21.27L23.42 21.52L23.43 21.52C23.64 21.66 23.78 21.88 23.84 22.13C23.89 22.36 23.83 22.63 23.67 22.88C23.65 22.91 23.16 23.65 22.46 23.8C22.38 23.82 22.29 23.83 22.21 23.83ZM22.28 19.62C22 19.68 21.8 19.97 21.86 20.23C21.86 20.24 21.86 20.25 21.86 20.27L22.22 20.16C22.24 20.15 22.27 20.14 22.29 20.14C22.33 20.13 22.36 20.13 22.39 20.12L22.28 19.62ZM22.55 20.11C22.71 20.11 22.85 20.15 22.97 20.2C22.97 20.15 22.97 20.1 22.96 20.05C22.94 19.93 22.86 19.81 22.75 19.73C22.61 19.63 22.44 19.58 22.28 19.62L22.39 20.12C22.44 20.11 22.5 20.11 22.55 20.11ZM23.47 21.14L23.47 21.15L23.47 21.14ZM23.47 21.15L23.47 21.15L23.47 21.15Z" />
	<path id="Path 53 copy 2" class="shp3" d="M23.08 22.71C22.98 22.73 22.97 22.71 22.96 22.67C22.96 22.64 22.97 22.61 22.97 22.58L23.01 21.94C23.01 21.78 23.04 21.63 23.05 21.47L23.08 21.08C23.09 21.01 23.08 20.94 23.19 20.91L23.56 20.79C23.63 20.77 23.64 20.78 23.65 20.79C23.66 20.83 23.63 20.87 23.63 20.92L23.56 21.45C23.54 21.55 23.53 21.66 23.53 21.76C23.74 21.2 23.94 20.72 24.4 20.63C24.62 20.58 24.82 20.7 24.87 20.94C24.9 21.09 24.87 21.23 24.85 21.38L24.79 21.92C24.78 21.97 24.78 22.01 24.79 22.06C24.79 22.09 24.82 22.12 24.85 22.11C24.99 22.08 25.2 21.76 25.29 21.74C25.31 21.74 25.35 21.76 25.35 21.79C25.37 21.87 25.03 22.35 24.65 22.43C24.39 22.49 24.29 22.35 24.26 22.16C24.23 22.04 24.25 21.76 24.27 21.57L24.32 21.2C24.33 21.13 24.34 21.01 24.33 20.97C24.32 20.91 24.27 20.88 24.21 20.89C23.94 20.95 23.59 21.91 23.51 22.5C23.49 22.57 23.45 22.63 23.37 22.65L23.08 22.71Z" />
	<path id="Path 54 copy 2" fill-rule="evenodd" class="shp2" d="M23.01 23.61C22.82 23.61 22.65 23.56 22.5 23.45C22.35 23.36 22.16 23.18 22.09 22.85C22.06 22.71 22.07 22.59 22.08 22.51L22.12 21.88C22.12 21.79 22.13 21.67 22.14 21.56C22.15 21.51 22.15 21.46 22.16 21.4L22.19 21.01C22.19 21 22.19 20.99 22.2 20.98C22.25 20.3 22.78 20.1 22.94 20.05L23.3 19.94C23.32 19.93 23.35 19.92 23.37 19.92C23.52 19.88 23.67 19.88 23.8 19.9C23.92 19.84 24.06 19.79 24.21 19.76C24.55 19.68 24.9 19.74 25.18 19.93C25.47 20.11 25.67 20.41 25.74 20.76C25.76 20.84 25.77 20.91 25.77 20.99C25.99 21.11 26.16 21.33 26.22 21.6C26.38 22.35 25.5 23.16 24.84 23.31C24.52 23.37 24.26 23.32 24.07 23.24C23.89 23.42 23.69 23.49 23.55 23.52L23.27 23.58C23.26 23.58 23.26 23.58 23.26 23.58C23.18 23.6 23.09 23.61 23.01 23.61ZM22.08 22.56L22.08 22.56L22.08 22.56Z" />
	<path id="Path 55 copy 2" class="shp3" d="M15.82 29.24C15.26 29.36 13.41 29.75 12.89 27.32C12.38 24.91 14.81 21.09 17.39 20.54C17.75 20.47 18.23 20.56 18.36 21.18C18.58 22.21 16.82 23.88 16.48 23.95C16.44 23.96 16.39 23.89 16.38 23.85L16.4 23.24C16.36 23.03 18.27 22.14 18.01 20.94C17.97 20.73 17.66 20.68 17.36 20.75C15.64 21.11 13.3 24.75 13.84 27.3C14.13 28.69 14.96 29.05 15.95 28.84C17.37 28.54 18.15 27.57 18.25 27.55C18.3 27.53 18.36 27.58 18.37 27.64C18.39 27.74 17.12 28.96 15.82 29.24Z" />
	<path id="Path 56 copy 2" class="shp2" d="M15.03 30.22C12.86 30.22 12.21 28.38 12.02 27.5C11.4 24.55 14.2 20.31 17.2 19.67C18.19 19.46 19.02 20.01 19.24 20.99C19.58 22.61 17.39 24.67 16.66 24.82C16.13 24.93 15.62 24.57 15.51 24.03C15.49 23.96 15.49 23.89 15.49 23.82L15.49 23.7C14.81 24.92 14.51 26.19 14.71 27.11C14.8 27.52 14.94 27.81 15.12 27.92C15.26 28.01 15.48 28.03 15.77 27.97C16.65 27.78 17.22 27.26 17.5 27.01C17.66 26.87 17.81 26.73 18.06 26.67C18.6 26.56 19.13 26.91 19.24 27.46C19.32 27.82 19.29 28.23 18.12 29.09C17.63 29.45 16.86 29.93 16.01 30.11L15.93 29.75L16 30.11C15.65 30.18 15.33 30.22 15.03 30.22Z" />
	<path id="Path 57 copy 2" class="shp3" d="M19.45 28.17C19.03 28.26 18.73 28.01 18.65 27.64C18.49 26.89 19.18 25.61 20.11 25.41C20.39 25.36 20.54 25.36 20.56 25.44C20.58 25.54 20.53 25.68 20.46 25.7C20.38 25.71 20.35 25.61 20.14 25.66C19.62 25.77 19.27 26.81 19.4 27.41C19.44 27.59 19.56 27.76 19.78 27.71C20.02 27.66 20.23 27.3 20.45 26.44L20.69 25.5C20.71 25.42 20.73 25.33 20.84 25.3L21.27 25.18C21.36 25.16 21.4 25.17 21.41 25.22C21.42 25.26 21.42 25.29 21.42 25.32L21.27 26.68C21.24 26.87 21.22 27.05 21.25 27.23C21.27 27.31 21.35 27.35 21.44 27.33C21.62 27.29 21.86 26.85 21.95 26.83C22 26.82 22.05 26.85 22.06 26.9C22.07 26.96 21.53 27.72 21.15 27.8C20.87 27.86 20.68 27.74 20.61 27.41C20.56 27.13 20.61 26.85 20.64 26.56C20.44 27.14 20.21 28.01 19.45 28.17Z" />
	<path id="Path 58 copy 2" class="shp2" d="M19.28 29.08C18.97 29.08 18.66 28.99 18.41 28.81C18.09 28.58 17.86 28.23 17.78 27.83C17.65 27.24 17.81 26.5 18.21 25.86C18.64 25.16 19.26 24.69 19.93 24.54C20.11 24.5 20.3 24.47 20.49 24.48C20.53 24.46 20.58 24.45 20.62 24.44L21.02 24.32C21.04 24.32 21.06 24.31 21.08 24.31C21.38 24.24 21.64 24.29 21.87 24.43C22.08 24.57 22.23 24.78 22.28 25.04C22.3 25.12 22.32 25.25 22.3 25.42L22.24 25.98C22.58 26.07 22.85 26.34 22.93 26.71C23.08 27.45 22 28.53 21.33 28.67C21.04 28.73 20.76 28.71 20.52 28.6C20.29 28.81 20 28.97 19.64 29.04C19.52 29.07 19.4 29.08 19.28 29.08Z" />
	<path id="Path 59 copy 2" class="shp3" d="M22.19 27.48C22.06 27.51 22.04 27.49 22.03 27.43C22.02 27.39 22.04 27.36 22.04 27.31L22.09 26.41C22.1 26.19 22.13 25.98 22.15 25.76L22.19 25.21C22.21 25.11 22.19 25.01 22.35 24.96L22.87 24.8C22.96 24.78 22.99 24.78 22.99 24.79C23 24.86 22.97 24.92 22.97 24.98L22.86 25.73C22.84 25.87 22.83 26.01 22.82 26.17C23.12 25.37 23.4 24.71 24.04 24.57C24.35 24.51 24.63 24.67 24.7 25.01C24.75 25.22 24.69 25.42 24.67 25.63L24.59 26.38C24.58 26.45 24.57 26.52 24.58 26.58C24.59 26.62 24.64 26.66 24.68 26.65C24.87 26.61 25.16 26.16 25.29 26.14C25.32 26.13 25.37 26.16 25.38 26.2C25.4 26.31 24.92 26.99 24.4 27.1C24.03 27.18 23.9 26.98 23.84 26.72C23.8 26.55 23.83 26.17 23.87 25.89L23.93 25.38C23.94 25.27 23.96 25.11 23.95 25.05C23.93 24.97 23.86 24.92 23.78 24.94C23.39 25.02 22.91 26.37 22.8 27.19C22.76 27.29 22.72 27.37 22.59 27.4L22.19 27.48Z" />
	<path id="Path 60 copy 2" fill-rule="evenodd" class="shp2" d="M22.11 28.38C21.57 28.38 21.25 28.01 21.16 27.62C21.12 27.44 21.14 27.3 21.15 27.24L21.2 26.35C21.21 26.22 21.22 26.06 21.24 25.91C21.25 25.83 21.25 25.76 21.26 25.69L21.3 25.14C21.31 25.13 21.31 25.12 21.31 25.11C21.37 24.39 21.88 24.17 22.1 24.11L22.6 23.95C22.63 23.94 22.65 23.93 22.68 23.93C22.91 23.88 23.1 23.89 23.25 23.94C23.43 23.83 23.63 23.75 23.85 23.7C24.24 23.62 24.63 23.68 24.95 23.89C25.27 24.1 25.49 24.43 25.57 24.83C25.61 25 25.62 25.15 25.61 25.3C25.92 25.4 26.17 25.67 26.25 26.01C26.33 26.38 26.17 26.68 26.04 26.87C25.94 27.03 25.41 27.8 24.58 27.97C24.1 28.07 23.75 27.94 23.55 27.81C23.53 27.8 23.52 27.79 23.5 27.77C23.28 28.11 22.97 28.23 22.78 28.27L22.38 28.35C22.28 28.37 22.19 28.38 22.11 28.38ZM22.07 26.92L22.07 26.93L22.04 26.76C22.04 26.76 22.04 26.76 22.04 26.76L22.07 26.92ZM21.15 27.24C21.15 27.25 21.15 27.27 21.15 27.28L21.15 27.24ZM22.11 27.09L22.19 27.48L22.11 27.09ZM22 26.61L22 26.61L22 26.61Z" />
	<path id="Path 61 copy 2" class="shp3" d="M26.05 26.77C25.62 26.86 25.32 26.61 25.24 26.24C25.08 25.49 25.77 24.21 26.71 24.01C26.99 23.95 27.14 23.95 27.16 24.04C27.18 24.14 27.12 24.28 27.06 24.3C26.98 24.31 26.94 24.21 26.74 24.25C26.21 24.37 25.86 25.41 25.99 26.01C26.03 26.19 26.15 26.36 26.38 26.31C26.62 26.26 26.83 25.89 27.05 25.04L27.29 24.09C27.3 24.02 27.33 23.93 27.44 23.9L27.86 23.78C27.96 23.76 27.99 23.77 28 23.82C28.01 23.85 28.02 23.89 28.01 23.92L27.86 25.28C27.84 25.46 27.81 25.65 27.85 25.83C27.87 25.91 27.95 25.95 28.03 25.93C28.22 25.89 28.46 25.45 28.54 25.43C28.59 25.42 28.64 25.44 28.65 25.49C28.66 25.56 28.12 26.32 27.74 26.4C27.47 26.46 27.28 26.34 27.21 26.01C27.15 25.73 27.21 25.45 27.23 25.16C27.03 25.74 26.81 26.61 26.05 26.77Z" />
	<path id="Path 62 copy 2" class="shp2" d="M25.88 27.68C25.58 27.68 25.29 27.6 25.05 27.44C24.7 27.21 24.46 26.85 24.37 26.42C24.25 25.84 24.41 25.1 24.81 24.45C25.23 23.76 25.86 23.28 26.52 23.14C26.73 23.1 26.91 23.08 27.06 23.09C27.11 23.07 27.16 23.05 27.21 23.04L27.62 22.92L27.68 22.9C27.98 22.84 28.24 22.89 28.47 23.04C28.67 23.17 28.82 23.38 28.87 23.63C28.89 23.71 28.92 23.84 28.9 24L28.84 24.57C29.17 24.67 29.43 24.93 29.52 25.29C29.67 26.04 28.59 27.13 27.93 27.27C27.64 27.33 27.36 27.31 27.11 27.2C26.88 27.41 26.59 27.56 26.23 27.64C26.11 27.67 26 27.68 25.88 27.68Z" />
	<path id="Path 63 copy 2" fill-rule="evenodd" class="shp3" d="M29.28 26.05C28.9 26.13 28.58 25.94 28.48 25.47C28.31 24.66 29.05 23.55 30.13 23.32C30.29 23.28 30.46 23.28 30.63 23.27L31.1 18.74C31.1 18.66 31.12 18.56 31.17 18.53L31.8 18.17C31.82 18.16 31.85 18.15 31.88 18.14C31.91 18.14 31.93 18.17 31.94 18.2C31.94 18.23 31.93 18.31 31.92 18.36L31.15 24.72C31.12 24.86 31.11 25.09 31.12 25.17C31.14 25.26 31.18 25.32 31.24 25.3C31.36 25.28 31.46 25.21 31.56 25.09L31.71 24.91C31.76 24.86 31.82 24.78 31.86 24.77C31.9 24.76 31.93 24.8 31.94 24.84C31.95 24.9 31.89 24.95 31.85 25L31.66 25.22C31.47 25.47 31.21 25.66 31.03 25.7C30.76 25.76 30.57 25.69 30.53 25.5C30.47 25.26 30.53 24.92 30.59 24.37C30.22 25.14 29.94 25.91 29.28 26.05ZM29.22 25.25C29.28 25.53 29.43 25.6 29.62 25.56C30.06 25.46 30.62 23.89 30.56 23.66C30.53 23.5 30.3 23.44 30.13 23.48C29.58 23.6 29.1 24.65 29.22 25.25Z" />
	<path id="Path 64 copy 2" class="shp2" d="M29.12 26.96C28.83 26.96 28.55 26.88 28.31 26.72C28.06 26.56 27.74 26.25 27.61 25.65C27.33 24.33 28.37 22.85 29.82 22.48L30.21 18.71C30.21 18.34 30.37 18 30.66 17.8C30.68 17.78 30.7 17.77 30.72 17.76L31.34 17.41C31.49 17.31 31.64 17.28 31.7 17.27C31.94 17.22 32.19 17.27 32.39 17.4C32.61 17.54 32.75 17.76 32.81 18.01C32.85 18.2 32.82 18.37 32.8 18.5L32.14 23.91C32.46 24.01 32.72 24.27 32.8 24.64C32.86 24.88 32.85 25.22 32.54 25.56L32.35 25.79C32.21 25.96 31.77 26.45 31.22 26.57C30.82 26.66 30.52 26.59 30.31 26.5C30.08 26.7 29.8 26.85 29.46 26.92C29.35 26.95 29.23 26.96 29.12 26.96Z" />
	<path id="Path 65 copy 2" class="shp3" d="M32.64 25.37C32.22 25.46 31.92 25.21 31.84 24.84C31.68 24.09 32.37 22.81 33.3 22.61C33.58 22.55 33.73 22.55 33.75 22.64C33.77 22.74 33.72 22.88 33.65 22.89C33.57 22.91 33.54 22.81 33.33 22.85C32.81 22.96 32.46 24.01 32.59 24.61C32.62 24.79 32.75 24.96 32.97 24.91C33.21 24.86 33.42 24.49 33.64 23.64L33.88 22.69C33.9 22.62 33.92 22.52 34.03 22.5L34.46 22.38C34.55 22.36 34.59 22.37 34.6 22.42C34.6 22.45 34.61 22.49 34.61 22.52L34.45 23.87C34.43 24.06 34.41 24.25 34.44 24.43C34.46 24.51 34.54 24.55 34.63 24.53C34.81 24.49 35.05 24.05 35.13 24.03C35.18 24.02 35.23 24.04 35.25 24.09C35.26 24.16 34.72 24.92 34.34 25C34.06 25.06 33.87 24.93 33.8 24.61C33.74 24.33 33.8 24.05 33.83 23.76C33.63 24.34 33.4 25.21 32.64 25.37Z" />
	<path id="Path 66 copy 2" class="shp2" d="M32.47 26.28C32.18 26.28 31.89 26.2 31.65 26.04C31.3 25.81 31.06 25.45 30.97 25.02C30.84 24.44 31 23.7 31.4 23.05C31.83 22.36 32.45 21.88 33.12 21.74C33.32 21.7 33.5 21.68 33.66 21.69C33.71 21.66 33.76 21.65 33.8 21.64L34.21 21.52C34.23 21.51 34.26 21.51 34.28 21.5C34.65 21.43 34.91 21.53 35.07 21.64C35.27 21.77 35.41 21.98 35.47 22.23C35.49 22.32 35.51 22.45 35.5 22.61L35.43 23.18C35.77 23.27 36.04 23.54 36.11 23.9C36.2 24.29 36.01 24.58 35.93 24.71C35.77 24.94 35.22 25.72 34.52 25.87C34.18 25.94 33.91 25.89 33.7 25.8C33.47 26 33.18 26.16 32.82 26.24C32.71 26.27 32.59 26.28 32.47 26.28Z" />
	<path id="Path 67 copy 2" class="shp4" d="M22.43 20.48C22.23 20.52 22.09 20.4 22.06 20.22C22.01 20.02 22.11 19.8 22.3 19.76C22.51 19.71 22.65 19.85 22.69 20.04C22.74 20.26 22.63 20.44 22.43 20.48ZM22.24 22.92C22.05 22.96 21.94 22.85 21.89 22.62C21.87 22.55 21.91 21.15 22.04 21.12L22.44 21C22.54 20.98 22.54 20.98 22.55 21.03C22.56 21.06 22.55 21.09 22.55 21.12L22.42 21.99C22.39 22.16 22.36 22.39 22.38 22.48C22.39 22.53 22.4 22.59 22.49 22.57C22.6 22.54 22.8 22.25 22.85 22.24C22.89 22.23 22.92 22.25 22.93 22.29C22.94 22.36 22.55 22.85 22.24 22.92Z" />
	<path id="Path 68 copy 2" fill-rule="evenodd" class="shp5" d="M22.17 23.3C22.02 23.3 21.91 23.25 21.84 23.2C21.68 23.1 21.58 22.93 21.53 22.7C21.51 22.62 21.51 21.25 21.71 20.94C21.76 20.85 21.84 20.79 21.94 20.76L21.99 20.75C21.98 20.74 21.97 20.74 21.96 20.73C21.83 20.63 21.73 20.47 21.69 20.3C21.61 19.88 21.85 19.48 22.23 19.4C22.62 19.31 22.97 19.56 23.06 19.96C23.13 20.27 23.01 20.56 22.79 20.72C22.89 20.81 22.91 20.91 22.92 20.95C22.93 21.03 22.93 21.09 22.92 21.13C22.92 21.15 22.92 21.16 22.92 21.18L22.81 21.87C22.92 21.86 23.02 21.88 23.11 21.94C23.2 22 23.27 22.1 23.29 22.22C23.32 22.36 23.26 22.49 23.2 22.59C23.09 22.75 22.73 23.19 22.32 23.28C22.27 23.29 22.22 23.3 22.17 23.3ZM22.36 20.12L22.44 20.48L22.36 20.12C22.37 20.12 22.38 20.12 22.38 20.12L22.39 20.12C22.38 20.12 22.37 20.11 22.36 20.11L22.35 20.11L22.35 20.12L22.36 20.12ZM22.24 22.88L22.25 22.92L22.24 22.88Z" />
	<path id="Path 69 copy 2" class="shp4" d="M23.04 22.69C22.95 22.71 22.94 22.7 22.93 22.66C22.92 22.63 22.93 22.6 22.93 22.57L22.97 21.92C22.98 21.77 23 21.62 23.01 21.46L23.04 21.07C23.05 21 23.04 20.92 23.15 20.89L23.53 20.77C23.59 20.76 23.61 20.76 23.61 20.77C23.62 20.82 23.6 20.86 23.59 20.91L23.52 21.44C23.51 21.54 23.5 21.64 23.49 21.75C23.71 21.18 23.91 20.71 24.36 20.61C24.59 20.57 24.79 20.68 24.84 20.93C24.87 21.07 24.83 21.22 24.82 21.37L24.75 21.91C24.75 21.95 24.74 22 24.75 22.05C24.76 22.07 24.79 22.11 24.82 22.1C24.96 22.07 25.17 21.75 25.25 21.73C25.28 21.73 25.31 21.75 25.32 21.78C25.34 21.85 24.99 22.34 24.62 22.42C24.36 22.48 24.26 22.33 24.22 22.15C24.19 22.03 24.21 21.75 24.24 21.56L24.29 21.19C24.29 21.11 24.31 21 24.3 20.96C24.28 20.9 24.23 20.86 24.18 20.88C23.9 20.93 23.56 21.9 23.48 22.49C23.45 22.55 23.42 22.61 23.33 22.63L23.04 22.69Z" />
	<path id="Path 70 copy 2" fill-rule="evenodd" class="shp5" d="M22.98 23.07C22.65 23.07 22.57 22.77 22.57 22.73C22.55 22.65 22.56 22.58 22.56 22.55L22.6 21.9C22.61 21.8 22.62 21.7 22.63 21.6C22.63 21.54 22.64 21.49 22.64 21.43L22.68 21.04L22.68 21.01C22.71 20.7 22.9 20.58 23.05 20.54L23.42 20.42C23.43 20.42 23.44 20.41 23.45 20.41C23.52 20.4 23.68 20.36 23.82 20.46C23.82 20.46 23.82 20.47 23.83 20.47C23.96 20.36 24.11 20.29 24.29 20.25C24.49 20.21 24.7 20.24 24.87 20.35C25.04 20.46 25.16 20.64 25.2 20.85C25.24 21.02 25.22 21.18 25.2 21.3C25.2 21.32 25.19 21.34 25.19 21.36C25.41 21.33 25.63 21.48 25.68 21.7C25.76 22.05 25.19 22.68 24.7 22.78C24.44 22.84 24.26 22.77 24.16 22.7C24.03 22.62 23.94 22.49 23.88 22.32C23.87 22.4 23.86 22.47 23.85 22.54C23.84 22.56 23.84 22.59 23.83 22.61C23.73 22.88 23.55 22.97 23.41 22.99L23.12 23.05L23.12 23.06C23.07 23.07 23.02 23.07 22.98 23.07ZM22.97 22.33C22.96 22.33 22.96 22.33 22.96 22.33L23.05 22.69L22.97 22.33Z" />
	<path id="Path 71 copy 2" class="shp4" d="M15.79 29.22C15.22 29.34 13.38 29.74 12.86 27.3C12.35 24.89 14.78 21.08 17.35 20.53C17.72 20.46 18.2 20.55 18.33 21.17C18.55 22.2 16.78 23.86 16.44 23.94C16.4 23.94 16.35 23.88 16.34 23.84L16.37 23.23C16.32 23.01 18.23 22.12 17.98 20.93C17.93 20.72 17.62 20.67 17.32 20.73C15.6 21.1 13.26 24.74 13.8 27.29C14.1 28.68 14.93 29.04 15.92 28.83C17.33 28.53 18.11 27.55 18.22 27.53C18.27 27.52 18.32 27.56 18.33 27.63C18.36 27.73 17.09 28.95 15.79 29.22Z" />
	<path id="Path 72 copy 2" fill-rule="evenodd" class="shp5" d="M15 29.68C13.36 29.68 12.73 28.48 12.5 27.38C11.93 24.72 14.57 20.75 17.28 20.17C17.86 20.05 18.52 20.28 18.69 21.09C18.96 22.31 17.07 24.18 16.52 24.3C16.25 24.35 16.03 24.14 15.98 23.91C15.98 23.88 15.97 23.85 15.97 23.83L16 23.25C15.97 22.99 16.18 22.83 16.51 22.57C16.95 22.23 17.68 21.67 17.63 21.08C17.58 21.08 17.5 21.08 17.4 21.1C16.68 21.25 15.73 22.17 15.04 23.38C14.27 24.72 13.94 26.15 14.17 27.21C14.29 27.77 14.5 28.15 14.8 28.35C15.07 28.52 15.42 28.56 15.84 28.47C16.86 28.25 17.53 27.64 17.81 27.38C17.95 27.26 18.02 27.19 18.14 27.17C18.39 27.12 18.64 27.29 18.7 27.55C18.82 28.1 16.94 29.36 15.87 29.59L15.79 29.23L15.87 29.59C15.55 29.65 15.26 29.68 15 29.68ZM13.89 24.02C13.31 25.1 13.02 26.27 13.22 27.23C13.4 28.04 13.72 28.49 14.1 28.72C13.79 28.41 13.57 27.95 13.44 27.36C13.23 26.39 13.4 25.21 13.89 24.02Z" />
	<path id="Path 73 copy 2" class="shp4" d="M19.42 28.16C19 28.25 18.7 28 18.62 27.63C18.46 26.88 19.14 25.6 20.08 25.4C20.36 25.34 20.51 25.34 20.53 25.43C20.55 25.53 20.49 25.67 20.43 25.68C20.35 25.7 20.32 25.6 20.11 25.64C19.59 25.75 19.24 26.8 19.36 27.39C19.4 27.58 19.53 27.75 19.75 27.7C19.99 27.65 20.2 27.28 20.42 26.43L20.66 25.48C20.68 25.4 20.7 25.31 20.81 25.29L21.24 25.17C21.33 25.15 21.37 25.16 21.38 25.21C21.38 25.24 21.39 25.27 21.39 25.31L21.23 26.66C21.21 26.85 21.18 27.04 21.22 27.22C21.24 27.3 21.32 27.33 21.4 27.32C21.59 27.28 21.83 26.84 21.91 26.82C21.96 26.81 22.01 26.83 22.02 26.88C22.04 26.95 21.5 27.71 21.12 27.79C20.84 27.85 20.65 27.73 20.58 27.39C20.52 27.12 20.58 26.83 20.61 26.55C20.41 27.13 20.18 28 19.42 28.16Z" />
	<path id="Path 74 copy 2" fill-rule="evenodd" class="shp5" d="M19.25 28.55C19.05 28.55 18.87 28.5 18.71 28.39C18.48 28.24 18.32 28 18.25 27.71C18.16 27.24 18.29 26.65 18.62 26.11C18.97 25.54 19.48 25.15 20 25.04C20.22 24.99 20.39 24.97 20.54 25.01C20.6 24.97 20.66 24.94 20.72 24.93L21.14 24.81C21.23 24.79 21.34 24.77 21.46 24.81C21.61 24.86 21.71 24.98 21.74 25.13C21.75 25.19 21.77 25.26 21.76 25.35L21.62 26.58C21.68 26.52 21.75 26.48 21.84 26.46C22.09 26.41 22.33 26.56 22.39 26.81C22.47 27.19 21.63 28.06 21.2 28.15C20.87 28.22 20.59 28.13 20.41 27.9C20.2 28.2 19.91 28.43 19.5 28.52C19.41 28.54 19.33 28.55 19.25 28.55ZM20.14 26.04C19.89 26.19 19.65 26.84 19.72 27.28C19.78 27.18 19.91 26.93 20.06 26.34L20.14 26.04ZM18.97 27.27C18.96 27.37 18.96 27.47 18.98 27.55C19 27.65 19.05 27.73 19.11 27.77C19.12 27.77 19.12 27.78 19.13 27.78C19.07 27.69 19.03 27.59 19 27.47C18.99 27.41 18.98 27.34 18.97 27.27ZM20.84 26.27C20.86 26.28 20.88 26.3 20.9 26.32L20.95 25.83L20.84 26.27Z" />
	<path id="Path 75 copy 2" class="shp4" d="M22.16 27.47C22.02 27.5 22.01 27.48 22 27.42C21.99 27.38 22 27.34 22 27.3L22.06 26.39C22.07 26.18 22.1 25.96 22.12 25.75L22.16 25.2C22.17 25.1 22.16 24.99 22.31 24.95L22.84 24.78C22.93 24.76 22.95 24.77 22.95 24.78C22.97 24.84 22.94 24.9 22.93 24.97L22.83 25.71C22.81 25.86 22.79 26 22.78 26.15C23.09 25.36 23.37 24.69 24.01 24.56C24.31 24.49 24.6 24.66 24.67 25C24.71 25.2 24.66 25.41 24.64 25.62L24.55 26.37C24.54 26.43 24.54 26.5 24.55 26.56C24.56 26.6 24.6 26.65 24.64 26.64C24.84 26.6 25.13 26.15 25.25 26.12C25.28 26.12 25.33 26.15 25.34 26.19C25.37 26.29 24.88 26.98 24.36 27.09C24 27.17 23.86 26.97 23.81 26.71C23.77 26.54 23.79 26.15 23.83 25.88L23.9 25.37C23.91 25.26 23.93 25.1 23.91 25.04C23.9 24.96 23.82 24.91 23.75 24.93C23.36 25.01 22.88 26.36 22.76 27.18C22.73 27.27 22.68 27.36 22.56 27.39L22.16 27.47Z" />
	<path id="Path 76 copy 2" fill-rule="evenodd" class="shp5" d="M22.07 27.85C21.74 27.85 21.65 27.59 21.63 27.5C21.61 27.4 21.63 27.33 21.63 27.29L21.69 26.37C21.69 26.24 21.71 26.09 21.72 25.95C21.73 25.87 21.74 25.79 21.74 25.72L21.79 25.13C21.82 24.85 21.96 24.67 22.21 24.59L22.72 24.43C22.74 24.43 22.75 24.43 22.76 24.42C23.04 24.36 23.18 24.46 23.25 24.55C23.43 24.38 23.65 24.25 23.93 24.19C24.18 24.14 24.43 24.18 24.63 24.32C24.84 24.45 24.98 24.66 25.03 24.92C25.08 25.14 25.05 25.33 25.03 25.51C25.02 25.55 25.01 25.6 25.01 25.65L24.99 25.85C25.05 25.81 25.11 25.77 25.18 25.76C25.41 25.71 25.65 25.87 25.71 26.11C25.73 26.25 25.7 26.39 25.57 26.58C25.52 26.65 25.08 27.31 24.44 27.45C24.19 27.51 23.97 27.47 23.8 27.36C23.62 27.24 23.5 27.05 23.44 26.79C23.4 26.6 23.42 26.3 23.44 26.07C23.31 26.43 23.19 26.85 23.13 27.23C23.13 27.26 23.12 27.28 23.11 27.31C23.02 27.55 22.87 27.7 22.64 27.75L22.23 27.83C22.18 27.85 22.12 27.85 22.07 27.85ZM24.29 25.01C24.3 25.1 24.29 25.19 24.27 25.33L24.27 25.4L24.2 25.92C24.16 26.25 24.15 26.55 24.17 26.63C24.18 26.7 24.2 26.73 24.21 26.74C24.21 26.74 24.21 26.74 24.22 26.73C24.21 26.7 24.19 26.67 24.19 26.64C24.16 26.52 24.17 26.42 24.18 26.33L24.27 25.58C24.28 25.52 24.28 25.46 24.29 25.41C24.31 25.28 24.32 25.17 24.31 25.08C24.3 25.06 24.3 25.03 24.29 25.01ZM22.44 26.29C22.43 26.33 22.43 26.37 22.43 26.41L22.39 27.04L22.41 27.04C22.44 26.9 22.48 26.69 22.55 26.44C22.5 26.4 22.46 26.35 22.44 26.29ZM22.43 25.3L22.42 25.3L22.43 25.3Z" />
	<path id="Path 77 copy 2" class="shp4" d="M26.01 26.76C25.59 26.85 25.29 26.6 25.21 26.23C25.05 25.47 25.74 24.2 26.68 24C26.96 23.94 27.11 23.94 27.12 24.02C27.14 24.13 27.09 24.27 27.03 24.28C26.94 24.3 26.91 24.2 26.71 24.24C26.18 24.35 25.83 25.4 25.96 25.99C26 26.18 26.12 26.35 26.35 26.3C26.58 26.25 26.8 25.88 27.01 25.03L27.25 24.08C27.27 24 27.29 23.91 27.41 23.89L27.83 23.76C27.92 23.74 27.96 23.76 27.97 23.81C27.98 23.84 27.98 23.87 27.98 23.91L27.83 25.26C27.8 25.45 27.78 25.64 27.82 25.81C27.83 25.9 27.92 25.93 28 25.92C28.18 25.88 28.43 25.44 28.51 25.42C28.56 25.41 28.61 25.43 28.62 25.48C28.63 25.55 28.09 26.3 27.71 26.39C27.43 26.45 27.25 26.32 27.18 25.99C27.12 25.72 27.17 25.43 27.2 25.15C27 25.73 26.78 26.6 26.01 26.76Z" />
	<path id="Path 78 copy 2" fill-rule="evenodd" class="shp5" d="M25.85 27.15C25.36 27.15 24.96 26.82 24.85 26.3C24.75 25.84 24.89 25.25 25.21 24.71C25.56 24.14 26.07 23.75 26.6 23.64C26.81 23.59 26.99 23.57 27.14 23.6C27.2 23.56 27.26 23.54 27.33 23.53L27.73 23.41C27.74 23.41 27.74 23.4 27.75 23.4C27.81 23.39 27.99 23.35 28.15 23.46C28.24 23.52 28.31 23.62 28.33 23.74C28.34 23.78 28.36 23.85 28.35 23.94L28.21 25.18C28.27 25.12 28.34 25.08 28.43 25.06C28.68 25 28.92 25.15 28.98 25.4C29.06 25.78 28.22 26.66 27.79 26.75C27.48 26.81 27.27 26.72 27.15 26.64C27.09 26.6 27.05 26.55 27 26.5C26.79 26.79 26.5 27.03 26.09 27.12C26.01 27.14 25.93 27.15 25.85 27.15ZM27.44 24.86C27.46 24.88 27.48 24.9 27.49 24.92L27.55 24.43L27.44 24.86ZM26.73 24.63C26.49 24.78 26.24 25.44 26.31 25.87C26.38 25.78 26.5 25.53 26.65 24.94L26.73 24.63ZM25.56 25.86C25.55 25.97 25.56 26.07 25.57 26.15C25.59 26.24 25.63 26.33 25.72 26.38C25.66 26.29 25.62 26.19 25.59 26.07C25.58 26 25.57 25.94 25.56 25.86ZM27.52 24.24L27.51 24.24C27.51 24.24 27.52 24.24 27.52 24.24Z" />
	<path id="Path 79 copy 2" fill-rule="evenodd" class="shp4" d="M29.24 26.04C28.87 26.12 28.55 25.93 28.45 25.45C28.28 24.65 29.01 23.54 30.09 23.31C30.26 23.27 30.43 23.27 30.6 23.25L31.07 18.73C31.06 18.64 31.09 18.55 31.13 18.52L31.77 18.16C31.78 18.14 31.81 18.14 31.84 18.13C31.88 18.12 31.89 18.15 31.9 18.18C31.91 18.22 31.89 18.29 31.88 18.35L31.11 24.71C31.09 24.85 31.07 25.08 31.09 25.15C31.11 25.24 31.14 25.3 31.2 25.29C31.33 25.26 31.42 25.2 31.52 25.08L31.68 24.9C31.72 24.84 31.78 24.77 31.82 24.76C31.86 24.75 31.89 24.79 31.9 24.83C31.92 24.89 31.86 24.93 31.82 24.98L31.63 25.21C31.43 25.46 31.17 25.65 31 25.69C30.73 25.74 30.53 25.68 30.49 25.48C30.44 25.25 30.5 24.91 30.55 24.36C30.19 25.13 29.9 25.9 29.24 26.04ZM29.19 25.24C29.25 25.52 29.39 25.59 29.59 25.55C30.03 25.45 30.58 23.88 30.53 23.64C30.5 23.49 30.27 23.43 30.09 23.47C29.55 23.58 29.06 24.64 29.19 25.24Z" />
	<path id="Path 80 copy 2" fill-rule="evenodd" class="shp5" d="M29.08 26.43C28.89 26.43 28.71 26.38 28.56 26.28C28.39 26.17 28.18 25.95 28.09 25.53C27.88 24.57 28.68 23.23 30.02 22.94C30.1 22.93 30.18 22.91 30.26 22.91L30.7 18.72C30.69 18.55 30.75 18.33 30.92 18.21L30.95 18.2L31.57 17.84C31.65 17.79 31.73 17.78 31.77 17.77C31.88 17.74 31.99 17.76 32.08 17.82C32.17 17.89 32.24 17.99 32.26 18.11C32.28 18.2 32.27 18.29 32.25 18.4L31.51 24.53C31.57 24.47 31.65 24.41 31.75 24.4C31.97 24.34 32.2 24.5 32.26 24.74C32.31 24.99 32.17 25.15 32.12 25.2C32.12 25.21 32.1 25.23 32.1 25.23L31.91 25.45C31.73 25.68 31.39 25.98 31.07 26.05C30.81 26.11 30.58 26.08 30.4 25.96C30.33 25.91 30.27 25.85 30.22 25.78C29.99 26.09 29.71 26.32 29.32 26.4C29.24 26.42 29.16 26.43 29.08 26.43ZM30.87 23.5C30.88 23.51 30.88 23.51 30.88 23.52L30.88 23.49C30.88 23.49 30.88 23.5 30.87 23.5ZM30.13 23.84C30.03 23.89 29.86 24.05 29.72 24.33C29.58 24.61 29.52 24.93 29.55 25.14C29.75 24.91 30.04 24.21 30.13 23.84ZM28.8 25.11C28.79 25.21 28.79 25.3 28.81 25.38C28.84 25.51 28.89 25.61 28.96 25.65C28.96 25.65 28.96 25.65 28.96 25.65C28.9 25.57 28.86 25.46 28.83 25.32C28.81 25.25 28.8 25.19 28.8 25.11ZM28.96 25.65C28.96 25.65 28.96 25.66 28.96 25.66C28.96 25.66 28.96 25.65 28.96 25.65ZM31.44 18.77L31.32 19.88L31.46 18.76L31.44 18.77ZM31.13 24.92L31.13 24.93L31.13 24.92ZM29.49 25.19C29.49 25.19 29.49 25.19 29.48 25.19C29.49 25.19 29.49 25.19 29.49 25.19L29.49 25.19Z" />
	<path id="Path 81 copy 2" class="shp4" d="M32.61 25.36C32.19 25.45 31.89 25.2 31.81 24.83C31.65 24.07 32.33 22.8 33.27 22.6C33.55 22.54 33.7 22.54 33.72 22.62C33.74 22.73 33.68 22.87 33.62 22.88C33.54 22.9 33.51 22.8 33.3 22.84C32.78 22.95 32.43 23.99 32.55 24.59C32.59 24.78 32.71 24.95 32.94 24.9C33.18 24.85 33.39 24.48 33.61 23.63L33.85 22.68C33.86 22.6 33.89 22.51 34 22.49L34.43 22.36C34.52 22.34 34.56 22.36 34.56 22.41C34.57 22.44 34.58 22.47 34.57 22.5L34.42 23.86C34.4 24.05 34.37 24.24 34.41 24.41C34.43 24.5 34.51 24.53 34.59 24.51C34.78 24.48 35.02 24.04 35.1 24.02C35.15 24.01 35.2 24.03 35.21 24.08C35.23 24.14 34.69 24.9 34.31 24.98C34.03 25.04 33.84 24.92 33.77 24.59C33.71 24.31 33.77 24.03 33.8 23.75C33.59 24.33 33.37 25.19 32.61 25.36Z" />
	<path id="Path 82 copy 2" fill-rule="evenodd" class="shp5" d="M32.43 25.75C32.24 25.75 32.05 25.69 31.89 25.59C31.66 25.44 31.5 25.2 31.44 24.91C31.34 24.44 31.48 23.85 31.81 23.31C32.16 22.74 32.66 22.35 33.19 22.24C33.41 22.19 33.58 22.17 33.73 22.2C33.79 22.16 33.86 22.14 33.92 22.12L34.32 22.01C34.33 22.01 34.34 22 34.35 22C34.41 21.99 34.58 21.95 34.74 22.06C34.84 22.12 34.91 22.22 34.93 22.34C34.94 22.38 34.95 22.45 34.94 22.54L34.8 23.78C34.87 23.72 34.93 23.68 35.02 23.66C35.28 23.6 35.52 23.76 35.57 24.01C35.61 24.16 35.54 24.29 35.46 24.41C35.44 24.44 34.92 25.23 34.38 25.35C34.09 25.41 33.89 25.33 33.77 25.26C33.7 25.21 33.65 25.16 33.6 25.1C33.39 25.39 33.1 25.63 32.68 25.72C32.6 25.74 32.51 25.75 32.43 25.75ZM34.03 23.46C34.05 23.48 34.07 23.5 34.09 23.52L34.14 23.03L34.03 23.46ZM33.32 23.23C33.08 23.39 32.84 24.04 32.91 24.47C32.97 24.37 33.09 24.13 33.24 23.53L33.32 23.23ZM32.16 24.46C32.15 24.57 32.15 24.67 32.17 24.75C32.19 24.85 32.24 24.93 32.3 24.97C32.3 24.97 32.31 24.97 32.31 24.98C32.25 24.89 32.21 24.78 32.19 24.67C32.17 24.6 32.16 24.54 32.16 24.46ZM34.11 22.84L34.1 22.84C34.11 22.84 34.11 22.84 34.11 22.84ZM34.2 22.48C34.2 22.48 34.2 22.49 34.2 22.49C34.2 22.49 34.2 22.48 34.2 22.48Z" />
	<path id="Path 83 copy 2" class="shp0" d="M15.8 29.23C15.23 29.35 13.39 29.74 12.87 27.31C12.36 24.9 14.79 21.09 17.36 20.54C17.72 20.46 18.21 20.55 18.34 21.17C18.56 22.2 16.79 23.87 16.45 23.94C16.41 23.95 16.36 23.89 16.35 23.85L16.37 23.24C16.33 23.02 18.24 22.13 17.99 20.94C17.94 20.73 17.63 20.68 17.33 20.74C15.61 21.11 13.27 24.75 13.81 27.29C14.11 28.68 14.94 29.05 15.93 28.84C17.34 28.53 18.12 27.56 18.23 27.54C18.28 27.53 18.33 27.57 18.34 27.63C18.37 27.74 17.09 28.95 15.8 29.23ZM19.43 28.17C19 28.26 18.7 28.01 18.63 27.64C18.47 26.88 19.15 25.61 20.09 25.41C20.37 25.35 20.52 25.35 20.54 25.43C20.56 25.53 20.5 25.68 20.44 25.69C20.36 25.71 20.33 25.61 20.12 25.65C19.59 25.76 19.25 26.8 19.37 27.4C19.41 27.59 19.53 27.76 19.76 27.71C20 27.66 20.21 27.29 20.43 26.44L20.67 25.49C20.68 25.41 20.71 25.32 20.82 25.3L21.25 25.17C21.34 25.15 21.38 25.17 21.39 25.22C21.39 25.25 21.4 25.28 21.39 25.31L21.24 26.67C21.22 26.86 21.19 27.05 21.23 27.22C21.25 27.3 21.33 27.34 21.41 27.32C21.6 27.29 21.84 26.85 21.92 26.83C21.97 26.82 22.02 26.84 22.03 26.89C22.05 26.95 21.51 27.71 21.13 27.79C20.85 27.85 20.66 27.73 20.59 27.4C20.53 27.12 20.59 26.84 20.61 26.56C20.41 27.14 20.19 28 19.43 28.17ZM22.17 27.48C22.03 27.51 22.02 27.49 22 27.43C22 27.38 22.01 27.35 22.01 27.31L22.07 26.4C22.07 26.18 22.11 25.97 22.12 25.75L22.17 25.2C22.18 25.1 22.17 25 22.32 24.96L22.85 24.79C22.94 24.77 22.96 24.78 22.96 24.79C22.98 24.85 22.95 24.91 22.94 24.98L22.84 25.72C22.81 25.86 22.8 26.01 22.79 26.16C23.1 25.36 23.37 24.7 24.01 24.56C24.32 24.5 24.61 24.67 24.68 25.01C24.72 25.21 24.67 25.42 24.65 25.62L24.56 26.38C24.55 26.44 24.54 26.51 24.56 26.57C24.57 26.61 24.61 26.66 24.65 26.65C24.85 26.61 25.14 26.16 25.26 26.13C25.29 26.12 25.34 26.16 25.35 26.2C25.37 26.3 24.89 26.98 24.37 27.1C24.01 27.17 23.87 26.98 23.81 26.72C23.78 26.54 23.8 26.16 23.84 25.88L23.9 25.37C23.91 25.27 23.94 25.11 23.92 25.05C23.9 24.96 23.83 24.92 23.76 24.93C23.37 25.02 22.89 26.36 22.77 27.19C22.74 27.28 22.69 27.36 22.57 27.39L22.17 27.48ZM26.02 26.76C25.6 26.85 25.3 26.61 25.22 26.23C25.06 25.48 25.74 24.21 26.68 24.01C26.96 23.95 27.11 23.95 27.13 24.03C27.15 24.13 27.09 24.27 27.03 24.29C26.95 24.31 26.92 24.2 26.71 24.25C26.19 24.36 25.84 25.4 25.97 26C26 26.19 26.13 26.35 26.35 26.31C26.59 26.26 26.8 25.89 27.02 25.03L27.26 24.09C27.28 24.01 27.3 23.92 27.41 23.89L27.84 23.77C27.93 23.75 27.97 23.77 27.98 23.82C27.98 23.85 27.99 23.88 27.99 23.91L27.83 25.27C27.81 25.46 27.79 25.65 27.82 25.82C27.84 25.9 27.92 25.94 28 25.92C28.19 25.88 28.43 25.44 28.51 25.43C28.56 25.42 28.61 25.44 28.63 25.49C28.64 25.55 28.1 26.31 27.72 26.39C27.44 26.45 27.25 26.33 27.18 26C27.12 25.72 27.18 25.44 27.21 25.15C27.01 25.74 26.78 26.6 26.02 26.76Z" />
	<path id="Path 84 copy 2" fill-rule="evenodd" class="shp0" d="M29.25 26.05C28.88 26.13 28.56 25.93 28.46 25.46C28.29 24.66 29.02 23.54 30.1 23.31C30.27 23.28 30.44 23.27 30.61 23.26L31.08 18.73C31.07 18.65 31.09 18.56 31.14 18.53L31.77 18.16C31.79 18.15 31.82 18.14 31.85 18.14C31.88 18.13 31.9 18.16 31.91 18.19C31.92 18.22 31.9 18.3 31.89 18.36L31.12 24.71C31.1 24.86 31.08 25.09 31.1 25.16C31.11 25.25 31.15 25.31 31.21 25.3C31.33 25.27 31.43 25.21 31.53 25.09L31.69 24.9C31.72 24.86 31.77 24.8 31.8 24.78C31.69 24.02 32.36 22.8 33.28 22.6C33.56 22.55 33.71 22.55 33.72 22.63C33.74 22.73 33.69 22.87 33.63 22.89C33.55 22.9 33.51 22.8 33.31 22.85C32.78 22.96 32.43 24 32.56 24.6C32.6 24.79 32.72 24.95 32.95 24.9C33.18 24.85 33.4 24.49 33.61 23.63L33.85 22.69C33.87 22.61 33.89 22.52 34.01 22.49L34.43 22.37C34.53 22.35 34.56 22.37 34.57 22.42C34.58 22.45 34.58 22.48 34.58 22.51L34.43 23.87C34.4 24.06 34.38 24.24 34.42 24.42C34.43 24.5 34.52 24.54 34.6 24.52C34.79 24.48 35.02 24.04 35.11 24.02C35.16 24.01 35.21 24.04 35.22 24.09C35.23 24.15 34.69 24.91 34.31 24.99C34.03 25.05 33.85 24.93 33.78 24.6C33.72 24.32 33.78 24.04 33.8 23.75C33.6 24.33 33.38 25.2 32.61 25.36C32.24 25.44 31.97 25.26 31.85 24.96C31.84 24.97 31.83 24.98 31.83 24.99L31.64 25.22C31.44 25.46 31.18 25.66 31.01 25.69C30.74 25.75 30.54 25.69 30.5 25.49C30.45 25.25 30.51 24.92 30.56 24.37C30.2 25.13 29.91 25.91 29.25 26.05ZM29.2 25.25C29.26 25.53 29.4 25.59 29.6 25.55C30.04 25.46 30.59 23.89 30.54 23.65C30.51 23.5 30.28 23.44 30.1 23.47C29.56 23.59 29.07 24.64 29.2 25.25ZM22.44 20.48C22.24 20.53 22.1 20.4 22.07 20.23C22.02 20.03 22.11 19.81 22.31 19.77C22.52 19.72 22.66 19.86 22.7 20.04C22.75 20.27 22.63 20.44 22.44 20.48ZM22.25 22.92C22.06 22.96 21.94 22.85 21.9 22.63C21.88 22.56 21.92 21.16 22.05 21.13L22.45 21.01C22.55 20.98 22.55 20.99 22.56 21.03C22.57 21.07 22.56 21.1 22.56 21.13L22.42 22C22.4 22.16 22.36 22.39 22.38 22.49C22.39 22.53 22.4 22.59 22.5 22.57C22.61 22.55 22.8 22.26 22.86 22.25C22.9 22.24 22.93 22.26 22.93 22.29C22.95 22.37 22.56 22.86 22.25 22.92ZM23.05 22.7C22.96 22.72 22.95 22.71 22.94 22.66C22.93 22.63 22.94 22.61 22.94 22.58L22.98 21.93C22.99 21.78 23.01 21.62 23.02 21.47L23.05 21.08C23.06 21 23.05 20.93 23.16 20.9L23.54 20.78C23.6 20.77 23.62 20.77 23.62 20.78C23.63 20.82 23.61 20.87 23.6 20.91L23.53 21.44C23.51 21.55 23.51 21.65 23.5 21.76C23.72 21.19 23.92 20.72 24.37 20.62C24.59 20.57 24.79 20.69 24.85 20.93C24.88 21.08 24.84 21.23 24.83 21.38L24.76 21.91C24.76 21.96 24.75 22.01 24.76 22.05C24.77 22.08 24.8 22.11 24.83 22.11C24.97 22.08 25.18 21.76 25.26 21.74C25.29 21.73 25.32 21.76 25.33 21.79C25.34 21.86 25 22.35 24.63 22.43C24.37 22.48 24.27 22.34 24.23 22.16C24.2 22.03 24.22 21.76 24.25 21.56L24.29 21.2C24.3 21.12 24.32 21.01 24.31 20.96C24.29 20.91 24.24 20.87 24.19 20.88C23.91 20.94 23.57 21.91 23.49 22.49C23.46 22.56 23.43 22.62 23.34 22.64L23.05 22.7ZM46.5 92.69L-55.51 92.69L-55.51 83.09L46.5 83.09L46.5 92.69Z" />
</svg>