<svg xmlns="http://www.w3.org/2000/svg" viewBox="0 0 115 18" width="115" height="18">
	<style>
		tspan { white-space:pre }
		.shp0 { fill: #ffffff } 
		.shp1 { fill: #5b6770 } 
		.shp2 { fill: #000000 } 
		.shp3 { fill: #00558c } 
		.shp4 { fill: #c8102e } 
	</style>
	<path id="Path 84 copy" fill-rule="evenodd" class="shp0" d="M168.25 9.05C167.88 9.13 167.56 8.93 167.46 8.46C167.29 7.66 168.02 6.54 169.1 6.31C169.27 6.28 169.44 6.27 169.61 6.26L170.08 1.73C170.07 1.65 170.09 1.56 170.14 1.53L170.77 1.16C170.79 1.15 170.82 1.14 170.85 1.14C170.88 1.13 170.9 1.16 170.91 1.19C170.92 1.22 170.9 1.3 170.89 1.36L170.12 7.71C170.1 7.86 170.08 8.09 170.1 8.16C170.11 8.25 170.15 8.31 170.21 8.3C170.33 8.27 170.43 8.21 170.53 8.09L170.69 7.9C170.72 7.86 170.77 7.8 170.8 7.78C170.69 7.02 171.36 5.8 172.28 5.6C172.56 5.55 172.71 5.55 172.72 5.63C172.74 5.73 172.69 5.87 172.63 5.89C172.55 5.9 172.51 5.8 172.31 5.85C171.78 5.96 171.43 7 171.56 7.6C171.6 7.79 171.72 7.95 171.95 7.9C172.18 7.85 172.4 7.49 172.61 6.63L172.85 5.69C172.87 5.61 172.89 5.52 173.01 5.49L173.43 5.37C173.53 5.35 173.56 5.37 173.57 5.42C173.58 5.45 173.58 5.48 173.58 5.51L173.43 6.87C173.4 7.06 173.38 7.24 173.42 7.42C173.43 7.5 173.52 7.54 173.6 7.52C173.79 7.48 174.02 7.04 174.11 7.02C174.16 7.01 174.21 7.04 174.22 7.09C174.23 7.15 173.69 7.91 173.31 7.99C173.03 8.05 172.85 7.93 172.78 7.6C172.72 7.32 172.78 7.04 172.8 6.75C172.6 7.33 172.38 8.2 171.61 8.36C171.24 8.44 170.97 8.26 170.85 7.96C170.84 7.97 170.83 7.98 170.83 7.99L170.64 8.22C170.44 8.46 170.18 8.66 170.01 8.69C169.74 8.75 169.54 8.69 169.5 8.49C169.45 8.25 169.51 7.92 169.56 7.37C169.2 8.13 168.91 8.91 168.25 9.05ZM168.2 8.25C168.26 8.53 168.4 8.59 168.6 8.55C169.04 8.46 169.59 6.89 169.54 6.65C169.51 6.5 169.28 6.44 169.1 6.47C168.56 6.59 168.07 7.64 168.2 8.25ZM161.44 3.48C161.24 3.53 161.1 3.4 161.07 3.23C161.02 3.03 161.11 2.81 161.31 2.77C161.52 2.72 161.66 2.86 161.7 3.04C161.75 3.27 161.63 3.44 161.44 3.48ZM161.25 5.92C161.06 5.96 160.94 5.85 160.9 5.63C160.88 5.56 160.92 4.16 161.05 4.13L161.45 4.01C161.55 3.98 161.55 3.99 161.56 4.03C161.57 4.07 161.56 4.1 161.56 4.13L161.42 5C161.4 5.16 161.36 5.39 161.38 5.49C161.39 5.53 161.4 5.59 161.5 5.57C161.61 5.55 161.8 5.26 161.86 5.25C161.9 5.24 161.93 5.26 161.93 5.29C161.95 5.37 161.56 5.86 161.25 5.92ZM162.05 5.7C161.96 5.72 161.95 5.71 161.94 5.66C161.93 5.63 161.94 5.61 161.94 5.58L161.98 4.93C161.99 4.78 162.01 4.62 162.02 4.47L162.05 4.08C162.06 4 162.05 3.93 162.16 3.9L162.54 3.78C162.6 3.77 162.62 3.77 162.62 3.78C162.63 3.82 162.61 3.87 162.6 3.91L162.53 4.44C162.51 4.55 162.51 4.65 162.5 4.76C162.72 4.19 162.92 3.72 163.37 3.62C163.59 3.57 163.79 3.69 163.85 3.93C163.88 4.08 163.84 4.23 163.83 4.38L163.76 4.91C163.76 4.96 163.75 5.01 163.76 5.05C163.77 5.08 163.8 5.11 163.83 5.11C163.97 5.08 164.18 4.76 164.26 4.74C164.29 4.73 164.32 4.76 164.33 4.79C164.34 4.86 164 5.35 163.63 5.43C163.37 5.48 163.27 5.34 163.23 5.16C163.2 5.03 163.22 4.76 163.25 4.56L163.29 4.2C163.3 4.12 163.32 4.01 163.31 3.96C163.29 3.91 163.24 3.87 163.19 3.88C162.91 3.94 162.57 4.91 162.49 5.49C162.46 5.56 162.43 5.62 162.34 5.64L162.05 5.7ZM185.5 75.69L83.49 75.69L83.49 66.09L185.5 66.09L185.5 75.69Z" />
	<path id="Path 97 copy" class="shp1" d="M88.08 0.8L86.63 7.62L86.59 7.62L84.61 0.8L77.29 0.8L76.64 3.83L77.7 3.83L76.38 10.05C76.58 10.05 76.78 10.05 76.99 10.05C78.02 10.05 79.04 10.09 80.07 10.17L81.44 3.73L81.47 3.73L83.45 10.58C85.41 10.89 87.38 11.35 89.41 11.96C89.41 11.97 89.43 11.97 89.44 11.97L91.8 0.8L88.08 0.8ZM103.86 0.8L103.41 2.94L106.74 2.94L105.04 10.97L109.32 10.97L111.02 2.94L114.18 2.94L114.64 0.8L103.86 0.8ZM91.83 3.83L92.87 3.83L91.35 10.97L101.15 10.97L101.6 8.83L95.94 8.83L96.34 6.95L101.59 6.95L102.05 4.81L96.79 4.81L97.19 2.94L102.8 2.94L103.25 0.8L92.48 0.8L91.83 3.83Z" />
	<path id="Path 98 copy" fill-rule="evenodd" class="shp2" d="M71.91 3.83C72 3.26 71.9 2.91 71.63 2.7C71.38 2.49 70.97 2.42 70.44 2.42C69.54 2.42 68.99 2.76 68.88 3.28C68.84 3.43 68.86 3.63 68.96 3.74C69.49 4.38 74.09 4.83 75.19 6.04C75.51 6.39 75.8 6.94 75.59 7.93C75.4 8.84 74.87 9.6 73.91 10.17C71.75 10.34 69.59 10.68 67.4 11.21C62.98 11 63.07 9.45 63.36 7.7L67.73 7.7C67.62 8.26 67.65 8.67 67.85 8.94C68.08 9.21 68.43 9.35 68.99 9.35C69.88 9.35 70.88 9.14 71.06 8.32C71.1 8.14 71.06 7.98 70.97 7.86C70.53 7.21 65.78 6.73 64.66 5.53C64.22 5.05 64.2 4.33 64.32 3.76C64.8 1.53 67.05 0.53 71.12 0.53C75.44 0.53 76.5 1.73 76.11 3.83L71.91 3.83ZM12.76 3.83L8.57 3.83C8.66 3.26 8.55 2.91 8.29 2.7C8.04 2.49 7.63 2.42 7.09 2.42C6.19 2.42 5.64 2.76 5.53 3.28C5.5 3.43 5.51 3.63 5.62 3.74C6.14 4.38 10.75 4.83 11.84 6.04C12.16 6.39 12.45 6.94 12.24 7.92C11.82 9.94 9.77 11.23 5.14 11.23C-0.38 11.23 -0.3 9.59 0.02 7.7L4.38 7.7C4.28 8.26 4.3 8.67 4.51 8.94C4.74 9.2 5.09 9.35 5.65 9.35C6.54 9.35 7.54 9.13 7.71 8.32C7.75 8.13 7.71 7.98 7.63 7.85C7.19 7.21 2.43 6.73 1.32 5.53C0.88 5.05 0.86 4.33 0.98 3.76C1.46 1.53 3.71 0.53 7.78 0.53C12.1 0.53 13.15 1.73 12.76 3.83ZM52.91 3.6C52.69 4.95 51.75 6.11 50.43 6.33L52.37 10.96L48.04 10.96L47.11 8.19C46.91 7.56 46.55 7.28 45.83 7.28L44.83 7.28L44.04 10.96L39.76 10.96L41.28 3.83L40.19 3.83L40.84 0.8L49.16 0.8C51.93 0.8 53.25 1.45 52.91 3.6ZM47.33 2.86L45.77 2.86L45.25 5.3L46.88 5.3C47.79 5.3 48.56 5.02 48.76 4.07C48.95 3.16 48.37 2.86 47.33 2.86ZM25.72 4.33C25.19 6.81 23.35 7.7 21.22 7.7L17.86 7.7L17.17 10.96L12.89 10.96L14.41 3.83L13.32 3.83L13.97 0.8L22.3 0.8C24.75 0.8 26.28 1.69 25.72 4.33ZM20.17 2.94L18.88 2.94L18.32 5.56L19.19 5.56C20.71 5.56 21.33 5.22 21.55 4.22C21.73 3.38 21.4 2.94 20.17 2.94ZM64.1 2.94L60.95 2.94L59.24 10.96L54.96 10.96L56.66 2.94L53.33 2.94L53.79 0.8L64.56 0.8L64.1 2.94ZM39.47 5.88C39.14 7.45 38.4 8.67 37.38 9.47C36.06 10.53 34.15 11.23 31.53 11.23C26.56 11.23 25.23 8.92 25.87 5.88C26.29 3.91 27.38 2.49 28.73 1.66C29.84 0.97 31.19 0.53 33.81 0.53C38.78 0.53 40.12 2.84 39.47 5.88ZM33.32 2.84C31.91 2.84 30.68 3.8 30.24 5.88C29.79 7.97 30.62 8.92 32.02 8.92C33.43 8.92 34.66 7.97 35.11 5.88C35.55 3.8 34.72 2.84 33.32 2.84Z" />
	<path id="Path 99 copy" class="shp3" d="M79.6 17.38C81.98 14.97 87.71 17.15 88.3 17.09C88.6 17.06 88.73 16.63 88.14 16.39C82.45 14.13 74.06 13.55 69.46 14.38C68.95 14.52 68.77 14.96 69.57 15.06C70.38 15.16 72.43 15.31 75.36 16.01C76.98 16.39 78.18 16.91 79.21 17.48C79.34 17.54 79.47 17.52 79.6 17.38Z" />
	<path id="Path 100 copy" class="shp4" d="M88.78 15.23L89.26 12.94C80.33 10.24 71.79 10.38 62.78 13.58C62.32 13.74 62.18 14.4 63.12 14.25C64.51 14.04 70.1 13.29 75.09 13.26C79.1 13.24 83.95 14.08 88 15.43C88.48 15.56 88.71 15.49 88.78 15.23Z" />
</svg>