<svg xmlns="http://www.w3.org/2000/svg" viewBox="0 0 103 10" width="103" height="10">
	<style>
		tspan { white-space:pre }
		.shp0 { fill: #ffffff } 
		.shp1 { fill: #181818 } 
	</style>
	<path id="Path 84 copy 3" fill-rule="evenodd" class="shp0" d="M85.25 -56.95C84.88 -56.87 84.56 -57.07 84.46 -57.54C84.29 -58.34 85.02 -59.46 86.1 -59.69C86.27 -59.72 86.44 -59.73 86.61 -59.74L87.08 -64.27C87.07 -64.35 87.09 -64.44 87.14 -64.47L87.77 -64.84C87.79 -64.85 87.82 -64.86 87.85 -64.86C87.88 -64.87 87.9 -64.84 87.91 -64.81C87.92 -64.78 87.9 -64.7 87.89 -64.64L87.12 -58.29C87.1 -58.14 87.08 -57.91 87.1 -57.84C87.11 -57.75 87.15 -57.69 87.21 -57.7C87.33 -57.73 87.43 -57.79 87.53 -57.91L87.69 -58.1C87.72 -58.14 87.77 -58.2 87.8 -58.22C87.69 -58.98 88.36 -60.2 89.28 -60.4C89.56 -60.45 89.71 -60.45 89.72 -60.37C89.74 -60.27 89.69 -60.13 89.63 -60.11C89.55 -60.1 89.51 -60.2 89.31 -60.15C88.78 -60.04 88.43 -59 88.56 -58.4C88.6 -58.21 88.72 -58.05 88.95 -58.1C89.18 -58.15 89.4 -58.51 89.61 -59.37L89.85 -60.31C89.87 -60.39 89.89 -60.48 90.01 -60.51L90.43 -60.63C90.53 -60.65 90.56 -60.63 90.57 -60.58C90.58 -60.55 90.58 -60.52 90.58 -60.49L90.43 -59.13C90.4 -58.94 90.38 -58.76 90.42 -58.58C90.43 -58.5 90.52 -58.46 90.6 -58.48C90.79 -58.52 91.02 -58.96 91.11 -58.98C91.16 -58.99 91.21 -58.96 91.22 -58.91C91.23 -58.85 90.69 -58.09 90.31 -58.01C90.03 -57.95 89.85 -58.07 89.78 -58.4C89.72 -58.68 89.78 -58.96 89.8 -59.25C89.6 -58.67 89.38 -57.8 88.61 -57.64C88.24 -57.56 87.97 -57.74 87.85 -58.04C87.84 -58.03 87.83 -58.02 87.83 -58.01L87.64 -57.78C87.44 -57.54 87.18 -57.34 87.01 -57.31C86.74 -57.25 86.54 -57.31 86.5 -57.51C86.45 -57.75 86.51 -58.08 86.56 -58.63C86.2 -57.87 85.91 -57.09 85.25 -56.95ZM85.2 -57.75C85.26 -57.47 85.4 -57.41 85.6 -57.45C86.04 -57.54 86.59 -59.11 86.54 -59.35C86.51 -59.5 86.28 -59.56 86.1 -59.53C85.56 -59.41 85.07 -58.36 85.2 -57.75ZM78.44 -62.52C78.24 -62.47 78.1 -62.6 78.07 -62.77C78.02 -62.97 78.11 -63.19 78.31 -63.23C78.52 -63.28 78.66 -63.14 78.7 -62.96C78.75 -62.73 78.63 -62.56 78.44 -62.52ZM78.25 -60.08C78.06 -60.04 77.94 -60.15 77.9 -60.37C77.88 -60.44 77.92 -61.84 78.05 -61.87L78.45 -61.99C78.55 -62.02 78.55 -62.01 78.56 -61.97C78.57 -61.93 78.56 -61.9 78.56 -61.87L78.42 -61C78.4 -60.84 78.36 -60.61 78.38 -60.51C78.39 -60.47 78.4 -60.41 78.5 -60.43C78.61 -60.45 78.8 -60.74 78.86 -60.75C78.9 -60.76 78.93 -60.74 78.93 -60.71C78.95 -60.63 78.56 -60.14 78.25 -60.08ZM79.05 -60.3C78.96 -60.28 78.95 -60.29 78.94 -60.34C78.93 -60.37 78.94 -60.39 78.94 -60.42L78.98 -61.07C78.99 -61.22 79.01 -61.38 79.02 -61.53L79.05 -61.92C79.06 -62 79.05 -62.07 79.16 -62.1L79.54 -62.22C79.6 -62.23 79.62 -62.23 79.62 -62.22C79.63 -62.18 79.61 -62.13 79.6 -62.09L79.53 -61.56C79.51 -61.45 79.51 -61.35 79.5 -61.24C79.72 -61.81 79.92 -62.28 80.37 -62.38C80.59 -62.43 80.79 -62.31 80.85 -62.07C80.88 -61.92 80.84 -61.77 80.83 -61.62L80.76 -61.09C80.76 -61.04 80.75 -60.99 80.76 -60.95C80.77 -60.92 80.8 -60.89 80.83 -60.89C80.97 -60.92 81.18 -61.24 81.26 -61.26C81.29 -61.27 81.32 -61.24 81.33 -61.21C81.34 -61.14 81 -60.65 80.63 -60.57C80.37 -60.52 80.27 -60.66 80.23 -60.84C80.2 -60.97 80.22 -61.24 80.25 -61.44L80.29 -61.8C80.3 -61.88 80.32 -61.99 80.31 -62.04C80.29 -62.09 80.24 -62.13 80.19 -62.12C79.91 -62.06 79.57 -61.09 79.49 -60.51C79.46 -60.44 79.43 -60.38 79.34 -60.36L79.05 -60.3ZM102.5 9.69L0.49 9.69L0.49 0.09L102.5 0.09L102.5 9.69Z" />
	<path id="Path 84 copy 4" fill-rule="evenodd" class="shp0" d="M85.25 -56.95C84.88 -56.87 84.56 -57.07 84.46 -57.54C84.29 -58.34 85.02 -59.46 86.1 -59.69C86.27 -59.72 86.44 -59.73 86.61 -59.74L87.08 -64.27C87.07 -64.35 87.09 -64.44 87.14 -64.47L87.77 -64.84C87.79 -64.85 87.82 -64.86 87.85 -64.86C87.88 -64.87 87.9 -64.84 87.91 -64.81C87.92 -64.78 87.9 -64.7 87.89 -64.64L87.12 -58.29C87.1 -58.14 87.08 -57.91 87.1 -57.84C87.11 -57.75 87.15 -57.69 87.21 -57.7C87.33 -57.73 87.43 -57.79 87.53 -57.91L87.69 -58.1C87.72 -58.14 87.77 -58.2 87.8 -58.22C87.69 -58.98 88.36 -60.2 89.28 -60.4C89.56 -60.45 89.71 -60.45 89.72 -60.37C89.74 -60.27 89.69 -60.13 89.63 -60.11C89.55 -60.1 89.51 -60.2 89.31 -60.15C88.78 -60.04 88.43 -59 88.56 -58.4C88.6 -58.21 88.72 -58.05 88.95 -58.1C89.18 -58.15 89.4 -58.51 89.61 -59.37L89.85 -60.31C89.87 -60.39 89.89 -60.48 90.01 -60.51L90.43 -60.63C90.53 -60.65 90.56 -60.63 90.57 -60.58C90.58 -60.55 90.58 -60.52 90.58 -60.49L90.43 -59.13C90.4 -58.94 90.38 -58.76 90.42 -58.58C90.43 -58.5 90.52 -58.46 90.6 -58.48C90.79 -58.52 91.02 -58.96 91.11 -58.98C91.16 -58.99 91.21 -58.96 91.22 -58.91C91.23 -58.85 90.69 -58.09 90.31 -58.01C90.03 -57.95 89.85 -58.07 89.78 -58.4C89.72 -58.68 89.78 -58.96 89.8 -59.25C89.6 -58.67 89.38 -57.8 88.61 -57.64C88.24 -57.56 87.97 -57.74 87.85 -58.04C87.84 -58.03 87.83 -58.02 87.83 -58.01L87.64 -57.78C87.44 -57.54 87.18 -57.34 87.01 -57.31C86.74 -57.25 86.54 -57.31 86.5 -57.51C86.45 -57.75 86.51 -58.08 86.56 -58.63C86.2 -57.87 85.91 -57.09 85.25 -56.95ZM85.2 -57.75C85.26 -57.47 85.4 -57.41 85.6 -57.45C86.04 -57.54 86.59 -59.11 86.54 -59.35C86.51 -59.5 86.28 -59.56 86.1 -59.53C85.56 -59.41 85.07 -58.36 85.2 -57.75ZM78.44 -62.52C78.24 -62.47 78.1 -62.6 78.07 -62.77C78.02 -62.97 78.11 -63.19 78.31 -63.23C78.52 -63.28 78.66 -63.14 78.7 -62.96C78.75 -62.73 78.63 -62.56 78.44 -62.52ZM78.25 -60.08C78.06 -60.04 77.94 -60.15 77.9 -60.37C77.88 -60.44 77.92 -61.84 78.05 -61.87L78.45 -61.99C78.55 -62.02 78.55 -62.01 78.56 -61.97C78.57 -61.93 78.56 -61.9 78.56 -61.87L78.42 -61C78.4 -60.84 78.36 -60.61 78.38 -60.51C78.39 -60.47 78.4 -60.41 78.5 -60.43C78.61 -60.45 78.8 -60.74 78.86 -60.75C78.9 -60.76 78.93 -60.74 78.93 -60.71C78.95 -60.63 78.56 -60.14 78.25 -60.08ZM79.05 -60.3C78.96 -60.28 78.95 -60.29 78.94 -60.34C78.93 -60.37 78.94 -60.39 78.94 -60.42L78.98 -61.07C78.99 -61.22 79.01 -61.38 79.02 -61.53L79.05 -61.92C79.06 -62 79.05 -62.07 79.16 -62.1L79.54 -62.22C79.6 -62.23 79.62 -62.23 79.62 -62.22C79.63 -62.18 79.61 -62.13 79.6 -62.09L79.53 -61.56C79.51 -61.45 79.51 -61.35 79.5 -61.24C79.72 -61.81 79.92 -62.28 80.37 -62.38C80.59 -62.43 80.79 -62.31 80.85 -62.07C80.88 -61.92 80.84 -61.77 80.83 -61.62L80.76 -61.09C80.76 -61.04 80.75 -60.99 80.76 -60.95C80.77 -60.92 80.8 -60.89 80.83 -60.89C80.97 -60.92 81.18 -61.24 81.26 -61.26C81.29 -61.27 81.32 -61.24 81.33 -61.21C81.34 -61.14 81 -60.65 80.63 -60.57C80.37 -60.52 80.27 -60.66 80.23 -60.84C80.2 -60.97 80.22 -61.24 80.25 -61.44L80.29 -61.8C80.3 -61.88 80.32 -61.99 80.31 -62.04C80.29 -62.09 80.24 -62.13 80.19 -62.12C79.91 -62.06 79.57 -61.09 79.49 -60.51C79.46 -60.44 79.43 -60.38 79.34 -60.36L79.05 -60.3ZM102.5 9.69L0.49 9.69L0.49 0.09L102.5 0.09L102.5 9.69Z" />
	<path id="Path 84 copy 5" fill-rule="evenodd" class="shp0" d="M85.25 -56.95C84.88 -56.87 84.56 -57.07 84.46 -57.54C84.29 -58.34 85.02 -59.46 86.1 -59.69C86.27 -59.72 86.44 -59.73 86.61 -59.74L87.08 -64.27C87.07 -64.35 87.09 -64.44 87.14 -64.47L87.77 -64.84C87.79 -64.85 87.82 -64.86 87.85 -64.86C87.88 -64.87 87.9 -64.84 87.91 -64.81C87.92 -64.78 87.9 -64.7 87.89 -64.64L87.12 -58.29C87.1 -58.14 87.08 -57.91 87.1 -57.84C87.11 -57.75 87.15 -57.69 87.21 -57.7C87.33 -57.73 87.43 -57.79 87.53 -57.91L87.69 -58.1C87.72 -58.14 87.77 -58.2 87.8 -58.22C87.69 -58.98 88.36 -60.2 89.28 -60.4C89.56 -60.45 89.71 -60.45 89.72 -60.37C89.74 -60.27 89.69 -60.13 89.63 -60.11C89.55 -60.1 89.51 -60.2 89.31 -60.15C88.78 -60.04 88.43 -59 88.56 -58.4C88.6 -58.21 88.72 -58.05 88.95 -58.1C89.18 -58.15 89.4 -58.51 89.61 -59.37L89.85 -60.31C89.87 -60.39 89.89 -60.48 90.01 -60.51L90.43 -60.63C90.53 -60.65 90.56 -60.63 90.57 -60.58C90.58 -60.55 90.58 -60.52 90.58 -60.49L90.43 -59.13C90.4 -58.94 90.38 -58.76 90.42 -58.58C90.43 -58.5 90.52 -58.46 90.6 -58.48C90.79 -58.52 91.02 -58.96 91.11 -58.98C91.16 -58.99 91.21 -58.96 91.22 -58.91C91.23 -58.85 90.69 -58.09 90.31 -58.01C90.03 -57.95 89.85 -58.07 89.78 -58.4C89.72 -58.68 89.78 -58.96 89.8 -59.25C89.6 -58.67 89.38 -57.8 88.61 -57.64C88.24 -57.56 87.97 -57.74 87.85 -58.04C87.84 -58.03 87.83 -58.02 87.83 -58.01L87.64 -57.78C87.44 -57.54 87.18 -57.34 87.01 -57.31C86.74 -57.25 86.54 -57.31 86.5 -57.51C86.45 -57.75 86.51 -58.08 86.56 -58.63C86.2 -57.87 85.91 -57.09 85.25 -56.95ZM85.2 -57.75C85.26 -57.47 85.4 -57.41 85.6 -57.45C86.04 -57.54 86.59 -59.11 86.54 -59.35C86.51 -59.5 86.28 -59.56 86.1 -59.53C85.56 -59.41 85.07 -58.36 85.2 -57.75ZM78.44 -62.52C78.24 -62.47 78.1 -62.6 78.07 -62.77C78.02 -62.97 78.11 -63.19 78.31 -63.23C78.52 -63.28 78.66 -63.14 78.7 -62.96C78.75 -62.73 78.63 -62.56 78.44 -62.52ZM78.25 -60.08C78.06 -60.04 77.94 -60.15 77.9 -60.37C77.88 -60.44 77.92 -61.84 78.05 -61.87L78.45 -61.99C78.55 -62.02 78.55 -62.01 78.56 -61.97C78.57 -61.93 78.56 -61.9 78.56 -61.87L78.42 -61C78.4 -60.84 78.36 -60.61 78.38 -60.51C78.39 -60.47 78.4 -60.41 78.5 -60.43C78.61 -60.45 78.8 -60.74 78.86 -60.75C78.9 -60.76 78.93 -60.74 78.93 -60.71C78.95 -60.63 78.56 -60.14 78.25 -60.08ZM79.05 -60.3C78.96 -60.28 78.95 -60.29 78.94 -60.34C78.93 -60.37 78.94 -60.39 78.94 -60.42L78.98 -61.07C78.99 -61.22 79.01 -61.38 79.02 -61.53L79.05 -61.92C79.06 -62 79.05 -62.07 79.16 -62.1L79.54 -62.22C79.6 -62.23 79.62 -62.23 79.62 -62.22C79.63 -62.18 79.61 -62.13 79.6 -62.09L79.53 -61.56C79.51 -61.45 79.51 -61.35 79.5 -61.24C79.72 -61.81 79.92 -62.28 80.37 -62.38C80.59 -62.43 80.79 -62.31 80.85 -62.07C80.88 -61.92 80.84 -61.77 80.83 -61.62L80.76 -61.09C80.76 -61.04 80.75 -60.99 80.76 -60.95C80.77 -60.92 80.8 -60.89 80.83 -60.89C80.97 -60.92 81.18 -61.24 81.26 -61.26C81.29 -61.27 81.32 -61.24 81.33 -61.21C81.34 -61.14 81 -60.65 80.63 -60.57C80.37 -60.52 80.27 -60.66 80.23 -60.84C80.2 -60.97 80.22 -61.24 80.25 -61.44L80.29 -61.8C80.3 -61.88 80.32 -61.99 80.31 -62.04C80.29 -62.09 80.24 -62.13 80.19 -62.12C79.91 -62.06 79.57 -61.09 79.49 -60.51C79.46 -60.44 79.43 -60.38 79.34 -60.36L79.05 -60.3ZM102.5 9.69L0.49 9.69L0.49 0.09L102.5 0.09L102.5 9.69Z" />
	<path id="Path 85 copy" fill-rule="evenodd" class="shp1" d="M42.1 8.23L42.74 8.23L42.74 9.69L39.83 9.69L39.83 8.23L40.59 8.23L40.08 6.88L36.38 6.88L35.87 8.23L36.61 8.23L36.61 9.69L33.68 9.69L33.68 8.23L34.31 8.23L36.84 1.54L35.82 1.54L35.82 0.09L39.08 0.09L42.1 8.23ZM39.54 5.46L38.26 2.01L36.93 5.42L39.54 5.46ZM8.36 0.09L8.36 2.62L6.89 2.62L6.89 1.55L5.16 1.55L5.16 8.22L6.23 8.22L6.23 9.69L2.62 9.69L2.62 8.22L3.69 8.22L3.69 1.55L1.96 1.55L1.96 2.62L0.49 2.62L0.49 0.09L8.36 0.09ZM19.03 0.09L19.03 1.55L17.96 1.55L17.96 8.22L19.03 8.22L19.03 9.69L15.43 9.69L15.43 8.22L16.49 8.22L16.49 5.62L12.49 5.62L12.49 8.22L13.56 8.22L13.56 9.69L9.96 9.69L9.96 8.22L11.03 8.22L11.03 1.55L9.96 1.55L9.96 0.09L13.56 0.09L13.56 1.55L12.49 1.55L12.49 4.15L16.49 4.15L16.49 1.55L15.43 1.55L15.43 0.09L19.03 0.09ZM61.83 0.09L61.83 1.55L60.77 1.55L60.77 8.22L61.83 8.22L61.83 9.69L58.24 9.69L58.24 8.22L59.3 8.22L59.3 5.62L55.3 5.62L55.3 8.22L56.37 8.22L56.37 9.69L52.77 9.69L52.77 8.22L53.83 8.22L53.83 1.55L52.77 1.55L52.77 0.09L56.37 0.09L56.37 1.55L55.3 1.55L55.3 4.15L59.3 4.15L59.3 1.55L58.24 1.55L58.24 0.09L61.83 0.09ZM51.17 0.09L51.17 2.62L49.7 2.62L49.7 1.55L47.97 1.55L47.97 8.22L49.03 8.22L49.03 9.69L45.43 9.69L45.43 8.22L46.5 8.22L46.5 1.55L44.77 1.55L44.77 2.62L43.3 2.62L43.3 0.09L51.17 0.09ZM89.17 0.09L89.17 2.62L87.7 2.62L87.7 1.55L85.97 1.55L85.97 8.22L87.04 8.22L87.04 9.69L83.43 9.69L83.43 8.22L84.51 8.22L84.51 1.55L82.77 1.55L82.77 2.62L81.3 2.62L81.3 0.09L89.17 0.09ZM94.37 0.09L94.37 1.55L93.31 1.55L93.31 8.22L94.37 8.22L94.37 9.69L90.77 9.69L90.77 8.22L91.84 8.22L91.84 1.55L90.77 1.55L90.77 0.09L94.37 0.09ZM27.96 0.09L27.96 2.62L26.5 2.62L26.5 1.55L23.16 1.55L23.16 4.15L25.7 4.15L25.7 5.62L23.16 5.62L23.16 8.22L26.5 8.22L26.5 7.15L27.96 7.15L27.96 9.69L20.63 9.69L20.63 8.22L21.7 8.22L21.7 1.55L20.63 1.55L20.63 0.09L27.96 0.09ZM70.9 9.69L63.57 9.69L63.57 8.22L64.64 8.22L64.64 1.55L63.57 1.55L63.57 0.09L67.17 0.09L67.17 1.55L66.1 1.55L66.1 8.22L69.44 8.22L69.44 7.15L70.9 7.15L70.9 9.69ZM79.84 0.09L79.84 2.62L78.37 2.62L78.37 1.55L75.04 1.55L75.04 4.15L77.84 4.15L77.84 5.62L75.04 5.62L75.04 8.22L78.37 8.22L78.37 7.15L79.84 7.15L79.84 9.69L72.5 9.69L72.5 8.22L73.57 8.22L73.57 1.55L72.5 1.55L72.5 0.09L79.84 0.09ZM102.52 0.09L102.52 2.65L101.05 2.65L101.05 1.54L98.72 1.54C98.01 1.54 97.44 2.11 97.44 2.82L97.44 6.02C97.44 7.24 98.43 8.22 99.64 8.22L102.5 8.22L102.5 9.69L99.64 9.69C97.62 9.69 95.97 8.04 95.97 6.02L95.97 2.82C95.97 1.31 97.2 0.09 98.71 0.09L102.52 0.09Z" />
</svg>