<svg xmlns="http://www.w3.org/2000/svg" viewBox="0 0 74 18" width="74" height="18">
	<style>
		tspan { white-space:pre }
		.shp0 { fill: #ffffff } 
		.shp1 { fill: #ec2427 } 
	</style>
	<path id="Path 40 copy 5" class="shp0" d="M73.54 17.53L-0.13 17.53L-0.13 0.26L73.54 0.26L73.54 17.53Z" />
	<path id="Path 41 copy 2" class="shp1" d="M22.17 4.61L24.23 0.27L1.93 0.27L-0.13 4.61L22.17 4.61ZM10.16 6.75L16.27 6.75L11.1 17.53L4.99 17.53L10.16 6.75ZM19.22 17.53L21.31 13.11L36.99 13.11L38.29 10.61L28.85 10.61C27.57 10.61 24.69 10.7 23.99 9.28C23.54 8.34 24.44 6.75 24.44 6.75C24.44 6.75 40.86 6.75 41.98 6.75C43.1 6.75 44.04 6.99 44.56 7.65C45.06 8.28 45.02 9.17 44.28 10.61C43.85 11.43 42.73 13.95 42.47 14.48C42.2 15 41.65 15.93 40.25 16.59C38.84 17.25 37.7 17.53 35.85 17.53L19.22 17.53ZM24.7 4.61C24.7 4.61 25.57 2.26 27.55 1.22C29.44 0.23 33.27 0.27 33.62 0.27L48.18 0.27L46.12 4.61L24.7 4.61ZM51.13 4.61L53.08 0.27L66.84 0.27C66.84 0.27 72.41 -0.04 73.42 4.61C73.87 6.7 72.87 8.47 72.84 8.54C72.81 8.6 68.57 17.53 68.57 17.53L62.42 17.53L67.18 7.71C67.18 7.71 67.9 6.54 67.41 5.53C66.92 4.53 65.46 4.6 65.34 4.61C65.22 4.62 51.13 4.61 51.13 4.61ZM50.14 6.75L56.26 6.75L51.09 17.53L44.98 17.53L50.14 6.75Z" />
	<path id="Path 40 copy 6" class="shp0" d="M73.54 17.53L-0.13 17.53L-0.13 0.26L73.54 0.26L73.54 17.53Z" />
	<path id="Path 41 copy 3" class="shp1" d="M22.17 4.61L24.23 0.27L1.93 0.27L-0.13 4.61L22.17 4.61ZM10.16 6.75L16.27 6.75L11.1 17.53L4.99 17.53L10.16 6.75ZM19.22 17.53L21.31 13.11L36.99 13.11L38.29 10.61L28.85 10.61C27.57 10.61 24.69 10.7 23.99 9.28C23.54 8.34 24.44 6.75 24.44 6.75C24.44 6.75 40.86 6.75 41.98 6.75C43.1 6.75 44.04 6.99 44.56 7.65C45.06 8.28 45.02 9.17 44.28 10.61C43.85 11.43 42.73 13.95 42.47 14.48C42.2 15 41.65 15.93 40.25 16.59C38.84 17.25 37.7 17.53 35.85 17.53L19.22 17.53ZM24.7 4.61C24.7 4.61 25.57 2.26 27.55 1.22C29.44 0.23 33.27 0.27 33.62 0.27L48.18 0.27L46.12 4.61L24.7 4.61ZM51.13 4.61L53.08 0.27L66.84 0.27C66.84 0.27 72.41 -0.04 73.42 4.61C73.87 6.7 72.87 8.47 72.84 8.54C72.81 8.6 68.57 17.53 68.57 17.53L62.42 17.53L67.18 7.71C67.18 7.71 67.9 6.54 67.41 5.53C66.92 4.53 65.46 4.6 65.34 4.61C65.22 4.62 51.13 4.61 51.13 4.61ZM50.14 6.75L56.26 6.75L51.09 17.53L44.98 17.53L50.14 6.75Z" />
</svg>