<svg xmlns="http://www.w3.org/2000/svg" viewBox="0 0 76 67" width="76" height="67">
	<style>
		tspan { white-space:pre }
		.shp0 { fill: #231f20 } 
		.shp1 { fill: #f16224 } 
		.shp2 { fill: #3c8e43 } 
		.shp3 { fill: #ce2433 } 
		.shp4 { fill: #f5eb1f } 
		.shp5 { fill: #e79424 } 
		.shp6 { fill: #ffffff } 
		.shp7 { fill: #1b9e49 } 
		.shp8 { fill: #253d80 } 
	</style>
	<path id="Path 77 copy" class="shp0" d="M3.9 38.59C3.9 38.59 -1.66 37.64 1.7 32.35C5.05 27.06 7.03 25.26 6.16 22.2C6.16 22.2 4.7 20.35 10.82 15.44C16.93 10.53 20.14 8.37 20.14 8.37C20.14 8.37 18.33 3.66 24.07 1.38C24.07 1.38 26.45 0.71 30.59 1.23C30.59 1.23 31.56 1.63 36.93 0.78C36.93 0.78 42.71 0.38 47.3 4.97L50.51 7.75L57.07 7.64L57.07 11.03L60.35 8.87L62.08 14.49L58.77 15.34C58.77 15.34 65.84 21.1 68.17 23.88C70.5 26.66 73.76 31.17 74.61 34.36C75.46 37.54 76.04 38.69 75.69 43.28C75.69 43.28 75.64 44.98 76.01 45.98C76.01 45.98 70.88 46.73 67.95 43.55C65.01 40.37 64.59 39.94 64.59 39.94C64.59 39.94 65.39 43.1 64.09 47.81C62.78 52.52 60.88 54.08 59.18 55.03C59.18 55.03 58.65 52.67 57.2 50.17C55.74 47.66 54.57 45.56 54.57 45.56C54.57 45.56 54.94 50.39 53.41 55.05C51.88 59.71 50.08 61.39 50.08 61.39C50.08 61.39 49.45 61.59 47.73 60.57C47.73 60.57 46.85 60.19 42.36 60.34C42.36 60.34 39.48 60.31 37.5 59.49C37.5 59.49 31.56 63.15 25.6 64.98C25.6 64.98 22.32 66.28 21.39 66.28C20.46 66.28 19.66 66.6 18.71 63.85C17.76 61.09 17.38 61.44 16.86 59.97C16.33 58.49 16.03 56.98 16.03 56.61L16.03 55.98C16.03 55.98 10.37 56.71 8.24 56.13C6.11 55.55 5.38 55.5 4.23 53.22C3.07 50.94 4.53 49.04 4.53 49.04C4.53 49.04 5.03 47.99 4.25 46.81C3.47 45.63 3.54 44.59 4.35 43.78C4.35 43.78 3.68 43.13 4 40.37L4.33 39.04C4.33 39.04 4.53 38.59 3.9 38.59Z" />
	<path id="Path 78 copy" class="shp1" d="M54.4 11.71L55.97 11.71L55.97 8.64L51.76 8.64L54.4 11.71Z" />
	<path id="Path 79 copy" class="shp2" d="M57.34 12.58C57.34 12.58 58.88 11.11 59.84 10.68L60.68 13.65L57.94 14.35L57.34 12.58ZM56.42 14.64C56.42 15.7 55.56 16.57 54.49 16.57C53.43 16.57 52.56 15.7 52.56 14.64C52.56 13.57 53.43 12.71 54.49 12.71C55.56 12.71 56.42 13.57 56.42 14.64ZM52.75 16.71L52.29 16.25C52.29 16.25 50.21 19.35 48.82 24.24C47.43 29.14 46.37 32.98 46.01 36.19C45.66 39.39 45.21 43.74 45.5 46.94C45.78 50.15 46.15 53.81 47.52 56.62C48.89 59.42 49.09 59.71 49.09 59.71C49.09 59.71 49.94 61.19 51.03 59.02C52.11 56.85 53.1 54.53 53.45 52.26C53.8 49.98 54.37 47.83 53.51 43.3C53.51 43.3 53.05 39.59 52.85 36.67C52.65 33.75 52.36 26.01 52.36 26.01C52.36 26.01 52.28 21.72 52.28 20.6C52.28 19.48 52.28 18.46 52.46 17.78C52.65 17.09 52.75 16.71 52.75 16.71Z" />
	<path id="Path 80 copy" class="shp1" d="M57.15 14.86C57.15 14.86 57.25 16.16 55.87 16.94C55.87 16.94 56.6 20.25 59.23 27.07C59.23 27.07 60.63 31.63 61.61 33.45C62.58 35.28 64.63 39.21 66.39 40.97C68.16 42.74 69.9 44.4 72.23 45.06C72.23 45.06 72.28 45.23 75.01 45.36L75.01 39.04C75.01 38.87 74.66 35.81 73.38 33.28C72.1 30.75 70.66 27.43 67.02 23.78C63.37 20.14 57.15 14.86 57.15 14.86Z" />
	<path id="Path 81 copy" class="shp3" d="M51.94 15.66C51.94 15.66 51.69 15.12 51.74 14.7C51.74 14.7 49.59 16.12 46.96 18.98C44.33 21.84 43.06 23.41 42.36 24.42C41.67 25.42 39.57 28.36 38.96 29.43C38.35 30.5 36.29 34.72 36.29 34.72L35.59 36.19C35.59 36.19 36.56 38.52 36.94 39.36C37.31 40.2 38.7 42.49 38.7 42.49C38.7 42.49 39 43.07 39.45 42.62C39.9 42.18 44.29 38.17 44.29 38.17C44.29 38.17 44.76 37.5 44.94 36.34C45.13 35.19 45.4 33.49 45.73 32.13C46.06 30.78 47.29 26.57 47.29 26.57L48.68 22L50.22 18.24C50.22 18.24 50.97 16.67 51.33 16.31C51.7 15.94 51.94 15.66 51.94 15.66Z" />
	<path id="Path 82 copy" class="shp4" d="M55.87 16.94C55.87 16.94 55.27 17.37 53.44 17.24C53.44 17.24 53.15 17.57 53.15 21.01C53.15 24.46 53.16 27.83 53.26 30.33C53.36 32.84 53.39 34.14 53.77 36.89C54.14 39.63 54.47 41.91 54.57 43.11L54.67 44.32C54.67 44.32 56.37 47.22 57.17 48.63C57.97 50.03 59.59 52.96 59.59 53.99C59.59 53.99 61.71 52.5 62.69 49.64C63.66 46.79 64 45.14 64 43.25C64 41.36 63.79 38.63 63.79 38.63C63.79 38.63 61.76 35.1 61.22 33.59C60.68 32.09 60.22 30.06 60.22 30.06C60.22 30.06 59.21 27.07 58.72 25.72C58.22 24.37 57.57 22.53 57.57 22.53C57.57 22.53 56.81 20.4 56.4 18.9C55.98 17.4 55.87 16.94 55.87 16.94Z" />
	<path id="Path 83 copy" class="shp5" d="M20.63 9.71C20.63 9.71 14.89 13.6 11.75 16.37C8.62 19.14 8.27 19.54 8.27 19.54C8.27 19.54 6.91 21.24 7.62 22.73C8.33 24.22 6.92 26.69 6.92 26.69L3.56 31.85L2.48 33.82C2.48 33.82 1.03 37.34 4.36 37.26L9.5 36.71L10.48 36.66C10.48 36.66 12.03 36.26 11.25 34.98C10.48 33.71 9.4 33.69 9.4 33.69C9.4 33.69 7.93 33.66 8.54 34.55C8.54 34.55 8.77 34.9 9.4 34.9C10.03 34.9 9.86 35.4 9.86 35.4C9.86 35.4 10 35.64 9.07 35.64C8.15 35.64 7.62 34.92 7.62 34.57C7.62 34.22 7.32 32.99 8.75 32.88C10.18 32.77 11.49 33.89 11.49 33.89C11.49 33.89 12.44 34.47 12.44 36.52C12.44 36.52 13.57 37.2 14.34 37.97C15.1 38.73 15.1 39.69 15.1 39.69C15.1 39.69 15.06 40.8 14.37 39.9C14.37 39.9 13.75 38.72 13.37 38.34C13 37.97 11.93 37.48 10.64 37.48C9.35 37.48 6.71 37.86 6.71 37.86C6.71 37.86 6 37.83 5.67 39.17C5.33 40.51 5.27 41.05 5.27 42.12C5.27 43.2 6.31 43.03 6.31 43.03C6.31 43.03 8.5 43.2 10.63 42.51C10.63 42.51 11.92 42.05 10.69 41.76L9.9 41.67C9.9 41.67 9.01 41.1 10.1 40.68L11.63 40.68C11.63 40.68 12.73 40.66 12.67 41.92C12.67 41.92 12.41 42.5 13.63 43.3C13.63 43.3 14.01 43.64 14.01 44.88C14.01 44.88 13.71 46.4 12.97 44.88C12.97 44.88 13.06 43.39 11.29 43.89C9.53 44.39 8.91 44.39 7.8 44.39C6.68 44.39 5.78 44.33 5.78 44.33C5.78 44.33 4.49 45.4 5.75 47.12C5.75 47.12 6.53 48.92 5.57 50.94C5.57 50.94 4.73 53.8 7.91 54.64C11.09 55.48 12.32 55.05 12.32 55.05C12.32 55.05 16.09 55.01 18.83 54.17C21.58 53.33 24.1 52.2 25.16 50.92C26.23 49.64 26.32 49.55 26.32 49.55C26.32 49.55 26.38 51.61 24 53.19C21.62 54.77 18.67 55.42 18.67 55.42L17.43 55.69C17.43 55.69 17.63 58.19 18.03 59.18C18.43 60.17 19.74 62.66 19.74 62.66C19.74 62.66 20.26 63.87 20.36 64.12C20.46 64.38 20.71 65.13 23.16 64.36C25.6 63.6 29.88 62.02 31.11 61.39C32.34 60.77 35.92 58.79 35.92 58.79L32.15 50.72C32.15 50.72 33.22 47.7 32.74 46.4C32.26 45.09 31.53 44.35 29.61 44.53C29.61 44.53 27.74 41.49 27.03 39.47C26.31 37.45 25.67 34.91 25.67 32.64C25.67 30.37 25.69 29.36 26.04 27.45C26.39 25.55 26.7 23.44 26.7 21.79C26.7 20.14 26.95 17.81 26.06 15.82C25.17 13.82 24.76 12.56 23.07 11.42C21.38 10.28 20.63 9.71 20.63 9.71Z" />
	<path id="Path 84 copy" class="shp4" d="M48.49 12.95C48.49 12.95 45.83 13.9 44.39 12.02C44.39 12.02 43.7 10.4 43.07 8.72C42.45 7.03 41.24 6.64 41.24 6.64C41.24 6.64 40.66 6.52 39.82 7.15C38.97 7.77 37.9 8.35 37.9 8.35C37.9 8.35 36.95 8.8 35.9 8.68C34.85 8.57 33.76 8.33 32.14 7.35C30.52 6.36 30.04 6.03 29.31 6.03C28.57 6.03 27.42 6.15 27.47 7.43C27.52 8.71 28.08 9.89 28.08 9.89L29.1 12.02L30.3 14.71C30.3 14.71 30.65 16.08 30.7 16.91C30.7 16.91 32.03 16.79 32.55 16.69C33.07 16.59 36.28 16.12 38.17 15.95C40.05 15.79 43.03 15.54 44.22 15.57C45.42 15.6 46.63 15.58 46.63 15.58C46.63 15.58 47.52 15.83 46.68 16.17C46.68 16.17 42.51 16.23 42.08 16.23C41.65 16.23 39.38 16.34 37.98 16.48C36.58 16.62 33.9 17 32.89 17.17C31.88 17.34 30.76 17.63 30.76 17.63C30.76 17.63 30.73 19.82 30.64 20.69C30.54 21.57 30.08 24.57 30.08 24.57L29.58 27.61L29.42 28.54L29.27 30.27C29.27 30.27 29.06 32.79 29.28 34.21C29.51 35.62 29.45 36.67 30.98 39.03C32.5 41.39 34.58 44.22 34.58 44.22C34.58 44.22 36.14 46.55 36.3 48.99C36.46 51.43 36.48 52.54 37.1 53.93C37.73 55.32 37.77 55.77 38.81 55.77C39.85 55.77 39.85 55.48 40.07 54.77C40.3 54.05 40.33 54.01 40.33 54.01C40.33 54.01 39.12 53.23 38.54 52.24C37.97 51.24 37.87 50.32 38.25 49.38C38.64 48.44 39.93 49.38 40.12 49.57C40.31 49.75 41.14 50.51 41.14 51.71L41.14 53.71C41.14 53.71 42.23 54.75 42.99 52.91C42.99 52.91 43.48 51.86 42.92 50.74C42.35 49.63 41.36 47.86 39.72 46.22C38.08 44.58 36.81 43.43 35.84 42.1C34.86 40.77 34.07 39.86 33.24 37.13C32.42 34.4 32.89 32.89 32.89 32.19C32.89 31.49 33.19 26.44 33.19 26.44C33.19 26.44 33.91 22.02 34.33 21.6C34.75 21.18 35.7 20.41 36.9 22.05L37.67 23.22C37.67 23.22 38.18 24.57 38.4 22.67C38.63 20.76 38.82 17.64 40.99 19L42.39 20.66C42.39 20.66 42.71 21.4 42.89 20.36C43.07 19.32 43.43 18.26 43.43 18.26C43.43 18.26 43.89 17.43 44.08 18.43L43.39 20.84C43.39 20.84 42.8 22.25 41.82 21.08C40.85 19.9 40.38 19.32 40.38 19.32C40.38 19.32 39.64 19.05 39.52 20.44C39.4 21.82 39.18 23.03 39.18 23.03C39.18 23.03 38.86 24.25 38.22 24.22C37.58 24.19 37.12 23.72 36.76 23.19C36.41 22.65 35.84 21.89 35.84 21.89C35.84 21.89 35.34 21.53 35.01 22.07C34.67 22.61 34.31 24.04 34.31 24.04C34.31 24.04 34.22 24.45 34.11 25.42C33.99 26.4 33.67 30.08 33.67 30.08C33.67 30.08 33.24 31.86 33.49 34.18C33.74 36.5 33.83 37.99 35.02 39.74C36.21 41.5 38.89 44.39 38.89 44.39L42.34 48.26C42.34 48.26 44.31 51.08 43.83 52.42C43.35 53.76 43.17 54.78 40.97 54.43C40.97 54.43 40.37 56.74 38.52 56.48C36.66 56.22 36.32 54.14 36.32 54.14C36.32 54.14 35.57 51.6 35.57 49.03C35.57 49.03 35.32 46.58 34.56 45.43C33.79 44.28 31.1 40.62 31.1 40.62C31.1 40.62 29.8 38.37 29.13 37.01C28.47 35.66 28.52 32.57 28.52 32.57C28.52 32.57 28.66 28.25 29.05 26.24C29.43 24.22 30.02 19.75 30.02 19.75C30.02 19.75 30.51 16.93 29.51 14.69C28.51 12.44 27.32 9.91 27.32 9.91C27.32 9.91 26.43 7.55 26.9 6.48C27.38 5.42 29.37 5.07 30.6 5.72C31.83 6.37 34.04 7.78 35.05 7.92C36.05 8.06 37.18 8.29 38.93 6.99C38.93 6.99 40.8 5.27 42.61 6.61C42.61 6.61 43.57 7.71 44.16 9.5C44.74 11.29 45.07 12.56 46.45 12.56C47.83 12.56 48.02 12.48 48.57 12.21C49.12 11.93 49.18 12.17 49.25 12.25C49.32 12.32 49.28 12.69 48.49 12.95Z" />
	<path id="Path 85 copy" class="shp3" d="M17.25 29.15C17.25 29.15 19.17 27.36 16.6 27.75C16.6 27.75 15.16 28.23 14.26 28.73C13.36 29.24 12.02 30.37 13.22 31.31L13.69 31.78C13.69 31.78 14.14 32.04 13.56 32.48C12.97 32.91 13.52 33.96 13.57 34.01C13.62 34.06 13.91 34.73 15.13 34.73C16.35 34.73 18.17 34.56 19.04 34.03C19.9 33.5 19.66 32.89 19.3 32.71C18.94 32.53 18.53 32.54 18.02 32.73C17.5 32.91 16.31 33.48 15.48 33.25C14.64 33.01 14.64 32.69 14.93 32.26C15.21 31.83 15.75 31.28 15.75 31.28C15.75 31.28 14.93 31.34 14.62 30.69C14.32 30.04 14.76 29.94 15.09 29.8C15.43 29.67 17.25 29.15 17.25 29.15ZM7.88 46.46C7.88 46.46 7.81 49.57 7.81 49.82C7.81 50.07 7.59 51.05 8.59 51.17C9.6 51.29 9.6 50.84 9.6 50.13C9.6 49.43 9.48 47.38 9.48 47.38L11.08 48.61C11.08 48.61 12.21 49.51 13 48.72C13.8 47.92 13.14 47.38 12.7 47.26C12.27 47.14 10.65 46.66 10.1 46.11C10.1 46.11 9.68 45.64 9.08 45.96C8.48 46.28 8.66 46.31 7.88 46.46ZM32.07 48.79C31.66 50.6 30.39 51.86 29.25 51.6C28.1 51.34 27.51 49.66 27.92 47.84C28.33 46.03 29.6 44.78 30.74 45.04C31.89 45.3 32.49 46.98 32.07 48.79Z" />
	<path id="Path 86 copy" class="shp0" d="M25.07 33.98C25.07 33.98 22.91 33.43 21.64 37.1C20.37 40.78 24.38 41.93 24.38 41.93C24.38 41.93 22.64 39.93 23.13 37.29C23.61 34.65 25.07 33.98 25.07 33.98ZM20.01 11.81L17.37 13.71C17.37 13.71 16.72 14.26 17.37 14.75C18.02 15.24 20.4 17.44 20.4 17.44C20.4 17.44 20.88 18 20.96 17.66C21.05 17.32 20.81 16.69 20.61 16.49C20.42 16.3 18.17 14.21 18.17 14.21L18.91 13.7C18.91 13.7 23.18 17.34 24.07 18.65C24.07 18.65 24.45 18.85 24.58 18.71C24.72 18.57 24.59 18.03 24.45 17.88C24.3 17.74 21.63 14.58 19.66 13.16L20.36 12.66C20.36 12.66 22.15 13.8 23.32 15.18C23.32 15.18 23.66 15.46 23.85 15.28C24.03 15.1 23.98 14.86 23.8 14.68C23.61 14.49 22.57 13.18 20.79 11.96C20.79 11.96 20.61 11.66 20.01 11.81ZM21.28 21.89C21.28 21.89 19.9 23.53 17.41 22.37C14.91 21.2 14.07 20.63 13.69 21.02L13.28 21.84C13.28 21.84 12.85 22.42 13.67 22.93C14.5 23.44 17.66 25.27 17.66 25.27C17.66 25.27 18.48 25.8 17.64 26.13C16.81 26.45 14.71 26.89 12.71 27.18C12.71 27.18 12.49 28.31 11.68 28.9C11.68 28.9 11.08 29.35 11.08 28.63L11.08 27.17L9.58 27.19C9.58 27.19 9.03 27.22 9.03 26.89C9.03 26.57 9.54 26.57 9.54 26.57L11.19 26.42C11.19 26.42 10.95 24.41 11.27 23.48C11.27 23.48 10.23 23.17 9.8 22.88C9.38 22.59 9.45 22.39 9.74 22.1C10.03 21.82 10.5 21.35 10.5 21.35C10.5 21.35 10.74 21 10.44 20.7C10.14 20.4 9.21 19.55 10.78 18.72C10.78 18.72 12.86 17.83 14.91 19.05C16.97 20.26 16.98 20.51 18.01 20.88C19.03 21.24 19.97 21.24 20.58 21.24C21.18 21.24 21.54 21.45 21.28 21.89Z" />
	<path id="Path 87 copy" class="shp6" d="M14.65 30.74C14.65 30.74 16.42 30.86 18.11 29.94C19.8 29.03 21 28.23 21.62 29.88C22.23 31.54 20.58 31.7 19.77 31.7C18.97 31.7 17.59 31.56 16.83 31.79C16.07 32.01 15.09 32.18 14.82 32.45C14.82 32.45 15.07 31.73 15.75 31.28C15.75 31.28 15.09 31.44 14.65 30.74ZM9.48 47.38L11.57 48.89C11.57 48.89 13.45 50.63 11.96 51.8C10.47 52.96 9.6 50.13 9.6 50.13L9.48 47.38Z" />
	<path id="Path 88 copy" class="shp7" d="M50.32 16.42C50.32 16.42 47 20 45.8 21.48C44.59 22.97 43.46 24.46 42.42 25.85C41.39 27.23 40.49 28.72 39.77 29.79C39.05 30.86 36.78 35.37 36.78 35.37C36.78 35.37 36.23 36.09 36.74 37.15C37.26 38.22 38.98 41.62 38.98 41.62C38.98 41.62 39.23 41.9 39.72 41.41C40.2 40.93 43.69 37.74 43.69 37.74C43.69 37.74 44.21 37.37 44.31 36.3C44.41 35.23 45.5 30.61 45.5 30.61L46.5 26.53L47.9 22.17L49.14 18.88L50.32 16.42Z" />
	<path id="Path 89 copy" class="shp4" d="M51.56 19.07C51.56 19.07 49.2 24.23 48.53 27.06C47.85 29.9 46.85 34.03 46.6 36.71C46.35 39.39 46.02 43.08 46.32 46.53C46.62 49.99 46.87 54.5 49.66 58.53C49.66 58.53 52.11 53.68 52.54 51.5C52.96 49.31 53.49 46.38 52.64 43.75C52.64 43.75 52.06 37.96 51.91 35.51C51.76 33.05 51.71 27.99 51.71 27.99L51.56 19.07Z" />
	<path id="Path 90 copy" class="shp8" d="M54.01 17.28C54.01 17.28 54.48 17.53 55.13 17.28C55.13 17.28 56.17 19.47 56.49 20.25C56.8 21.03 57.66 23.17 57.66 23.17C57.66 23.17 59.59 28.08 59.89 29.19C60.19 30.29 61.18 33.8 61.18 33.8C61.18 33.8 62.08 38.01 62.2 40.51C62.32 43.02 62.35 45.12 61.75 47.08C61.15 49.03 60.45 50.9 60.45 50.9C60.45 50.9 58.41 48.4 57.56 46.48C56.7 44.56 56.17 43.25 55.57 40.98C54.97 38.71 54.43 35.82 54.2 33.9C53.96 31.98 53.78 27.53 53.78 27.53L53.78 22.49L54 18.49L54.01 17.28Z" />
	<path id="Path 91 copy" class="shp6" d="M56.87 15.97C56.87 15.97 56.77 16.22 56.42 16.58C56.42 16.58 58.43 21.74 59.29 24.01C60.16 26.28 61.38 29.39 62.5 31.56C63.62 33.73 65.53 37.66 66.78 39.33C68.03 41 69.3 42.57 71.82 43.24L73.43 43.54C73.43 43.54 73.49 39.13 72.99 37.51C72.49 35.89 72.02 34.22 71.39 33.05C70.75 31.88 69.38 29.24 67.96 27.48C66.54 25.73 64.96 23.86 63.12 22.02C61.28 20.18 58.54 17.63 58.54 17.63L56.87 15.97Z" />
	<path id="Path 92 copy" class="shp3" d="M55.74 14.65C55.74 15.33 55.19 15.89 54.5 15.89C53.82 15.89 53.26 15.33 53.26 14.65C53.26 13.96 53.82 13.41 54.5 13.41C55.19 13.41 55.74 13.96 55.74 14.65Z" />
	<path id="Path 93 copy" class="shp0" d="M40.32 52.99C40.32 52.99 40.62 51.24 40.08 50.57C39.55 49.9 39.01 49.4 38.68 50.1C38.68 50.1 38.54 51.33 39.32 52.11C40.09 52.88 40.32 52.99 40.32 52.99Z" />
	<path id="Path 94 copy" class="shp6" d="M13.1 24.28L16.68 25.61C16.68 25.61 15.33 26.34 13 26.34C13 26.34 12.8 24.83 13.1 24.28Z" />
	<path id="Path 95 copy" class="shp5" d="M13.02 20.98L12.62 22C12.62 22 12.55 22.29 12.05 22.07C11.55 21.85 10.98 21.5 10.98 21.5C10.98 21.5 10.65 21.27 11.19 21.1C11.72 20.93 12.59 20.68 12.59 20.68C12.59 20.68 13.11 20.52 13.02 20.98ZM31.14 48.61C30.79 49.76 29.99 50.52 29.34 50.33C28.69 50.13 28.44 49.04 28.79 47.9C29.13 46.76 29.94 45.99 30.59 46.19C31.24 46.38 31.49 47.47 31.14 48.61Z" />
	<path id="Path 96 copy" class="shp3" d="M48.8 18.63C48.8 18.63 46.05 21.47 44.14 24.06C42.24 26.65 40.55 29.15 40.55 29.15C40.55 29.15 38.09 33.33 37.54 34.78L37.11 35.8C37.11 35.8 36.89 36.3 37.53 37.71C38.16 39.11 39.11 40.96 39.11 40.96C39.11 40.96 39.29 41.52 40.55 40.26C41.81 39 43.61 37.31 43.61 37.31C43.61 37.31 43.74 37.1 43.86 36.34C43.97 35.57 44.71 32.03 44.99 30.92C45.28 29.82 46.05 26.86 46.05 26.86C46.05 26.86 47.38 22.35 47.6 21.8C47.82 21.25 48.8 18.63 48.8 18.63Z" />
	<path id="Path 97 copy" class="shp2" d="M50.25 25.04C50.25 25.04 49.49 28.82 49.07 33.85L49.07 34.33C49.07 34.33 48.97 34.78 48.62 34.97L46.97 36.32C46.97 36.32 47.4 33.03 47.68 31.68C47.97 30.32 49.27 25.78 49.27 25.78L49.54 24.98C49.54 24.98 49.47 24.61 49.99 24.53C50.51 24.44 50.25 25.04 50.25 25.04ZM50.61 24.48C50.61 24.48 49.95 28.64 49.77 30.41C49.59 32.18 49.34 35.08 49.34 35.08C49.34 35.08 50.74 36.37 51.68 36.84L51.37 29.64L51.36 24.86C51.36 24.86 51.22 24.43 50.61 24.48ZM48.92 35.32L48.77 41.35C48.77 41.35 48.37 42.03 46.56 43.05C46.56 43.05 46.43 38.76 46.85 37.12L48.92 35.32ZM49.25 35.73L49.12 41.1C49.12 41.1 49.12 41.55 50.69 42.67C52.26 43.78 52.37 43.89 52.37 43.89C52.37 43.89 51.84 39.11 51.76 37.52L49.25 35.73ZM48.82 42.02L46.57 43.55C46.57 43.55 46.62 47.86 46.95 49.38C46.95 49.38 48.36 48.74 49.1 48L48.82 42.02ZM49.19 42.02C49.19 42.02 49.92 43 52.49 44.57C52.49 44.57 52.96 46.13 52.49 50.08C52.49 50.08 51.39 49.72 49.74 48.41C49.74 48.41 49.4 48.23 49.4 47.59C49.4 46.96 49.19 42.02 49.19 42.02ZM49.3 48.61L47.02 49.97C47.02 49.97 47.02 52.87 48.2 53.11C49.39 53.34 49.52 51.62 49.52 51.62C49.52 51.62 49.99 53.14 51.13 53.23C52.26 53.31 52.38 50.58 52.38 50.58L49.3 48.61Z" />
	<path id="Path 98 copy" class="shp4" d="M54.99 20.99C54.99 20.99 54.89 20.36 54.58 20.36C54.27 20.36 54.18 20.76 54.18 21.33C54.18 21.89 54.14 25.64 54.14 25.64C54.14 25.64 54.16 30.73 54.38 31.85L56.35 29.88C56.35 29.88 56.06 27.77 55.86 26.26C55.66 24.76 54.99 20.99 54.99 20.99ZM55.43 20.68C55.43 20.68 55.33 20.24 55.57 20.15C55.81 20.06 56.04 20.44 56.19 20.76C56.34 21.09 58.35 26.28 58.35 26.28L60.17 31.79L56.85 29.97L55.43 20.68ZM56.48 30.52L54.48 32.38C54.48 32.38 54.98 36.25 55.08 36.51L57.08 34.51L56.48 30.52ZM57.01 30.59L57.62 34.42L61.18 36.47L60.38 32.53L57.01 30.59ZM57.2 35.16L58 39.64L56.27 41.7L55.18 37.12L57.2 35.16ZM57.8 35.16L58.5 39.67L61.76 41.45L61.37 37.25L57.8 35.16ZM58.06 40.36L59.18 44.87L58.21 46.68L56.4 42.32L58.06 40.36ZM58.66 40.26C58.66 40.26 59.05 44.28 60.06 45.17C61.08 46.06 61.31 46.4 61.37 46.35C61.42 46.29 61.89 42.64 61.78 42.02L58.66 40.26ZM59.58 45.42L58.48 47.27L60.29 49.89L61.26 47L59.58 45.42Z" />
	<path id="Path 99 copy" class="shp1" d="M57.35 17.24C57.35 17.24 58.7 22.25 60.33 25.23L60.73 23.2L58.78 20.1C58.78 20.1 58.68 19.87 58.76 19.78C58.85 19.7 59.06 19.74 59.18 19.85C59.29 19.96 61.04 22.78 61.04 22.78L63.9 23.49C63.9 23.49 59.48 19.19 58.94 18.64C58.39 18.1 57.35 17.24 57.35 17.24ZM61.09 23.8C61.09 23.8 60.76 25.65 60.76 26.34C60.76 26.34 62.3 30.24 63.41 32.21C63.41 32.21 64.28 29.82 64.54 29.35L61.09 23.8ZM61.39 23.43L64.89 28.89L69.19 30.15C69.19 30.15 66.52 26.18 64.46 24.12C64.46 24.12 63.12 23.74 61.39 23.43ZM64.85 29.75C64.85 29.75 64.16 31.04 63.7 32.83C63.7 32.83 64.58 34.7 65.13 35.63C65.68 36.57 67.43 39.27 67.43 39.27L68.46 36.22C68.46 36.22 68.41 35.63 68.02 35.02C67.63 34.41 64.85 29.75 64.85 29.75ZM65.34 29.63L68.88 35.57L72.07 36.1C72.07 36.1 70.78 32.09 69.67 30.87L65.34 29.63ZM68.85 36.46L67.82 39.71C67.82 39.71 69.16 41.9 71.03 42.45C72.89 43 72.98 43 72.98 43C72.98 43 73.08 37.61 72.27 36.66L69.21 36.11L70.83 38.91C70.83 38.91 71.01 39.19 70.83 39.38C70.64 39.57 70.39 39.33 70.39 39.33L68.85 36.46Z" />
	<path id="Path 100 copy" class="shp6" d="M46.05 22.77C46.05 22.77 44.77 24.18 43.23 27.94L40.6 29.13L40.08 30L42.91 28.77C42.91 28.77 41.61 32.04 41.29 33.15C41.29 33.15 40.13 33.9 37.5 34.87L37.25 35.51C37.25 35.51 39.44 34.8 40.97 33.92L39.56 38.45L39.33 39.14C39.33 39.14 39.22 39.46 39.48 39.46C39.74 39.46 39.74 39.28 39.74 39.28L41.36 34.48C41.36 34.48 42.35 36.7 43.28 37.63L43.66 37.24C43.66 37.24 41.99 35.35 41.74 33.74L43.21 29.63L44.62 31.98L44.87 31.19L43.5 29.02C43.5 29.02 44.27 26.64 44.96 25.32C45.64 24.01 45.96 23.49 45.96 23.49C45.96 23.49 46.2 23.13 46.05 22.77Z" />
</svg>