<svg xmlns="http://www.w3.org/2000/svg" viewBox="0 0 58 68" width="58" height="68">
	<style>
		tspan { white-space:pre }
		.shp0 { fill: #ffffff } 
		.shp1 { fill: #003876 } 
	</style>
	<path id="Path 132 copy 2" fill-rule="evenodd" class="shp0" d="M-139.53 63.88L-139.1 64.8L-139.55 64.8L-139.95 63.92L-140.25 63.92L-140.25 64.8L-140.65 64.8L-140.65 62.64L-139.74 62.64C-139.39 62.64 -139.1 62.93 -139.1 63.28C-139.1 63.56 -139.28 63.8 -139.53 63.88ZM-139.5 63.28C-139.5 63.15 -139.61 63.04 -139.74 63.04L-140.25 63.04L-140.25 63.52L-139.74 63.52C-139.61 63.52 -139.5 63.41 -139.5 63.28ZM55.9 24.67C55.48 25.83 54.19 28.26 52.22 30.29C53.02 30.24 53.94 30.44 54.52 30.6C52.87 33.35 50.28 35.72 49.7 36.16C50.55 36.22 51.33 36.35 51.91 36.76C51.09 37.96 49.41 39.57 47.67 40.93C48.25 41.01 48.74 40.88 49.35 41.26C48.97 41.98 46.29 44.3 43.5 45.55C44.16 45.85 46.12 46.76 47.14 47.95C46.26 48.75 44.95 49.79 43.9 50.14C45.27 50.66 47.13 51.46 48.23 52.44C47.71 52.96 45.99 53.65 45.11 53.76C45.96 54 49.99 56.81 50.42 57.66C49.26 58.07 47.3 58.84 42.59 58.01C43.23 58.62 43.79 59.51 44.08 60.38C43.12 60.82 40.42 61.05 35.83 59.71C36.45 60.36 37.01 61.24 37.37 62.03C35.99 62.19 32.34 61.65 30.97 60.92C29.92 60.36 29.71 60.45 29.49 60.8C29.28 61.16 29.63 62.41 31.19 64.15L29.25 65.62C28.75 64.94 28.45 64.12 28.18 62.94C27.95 62 27.99 61.89 27.75 61.43C27.52 60.97 27.24 60.68 26.31 60.92C24.67 61.73 22.69 62.28 20.73 62.37C20.69 61.67 21.35 60.6 22.05 59.89C17.45 61.23 16.2 60.96 14.06 60.8C14.1 60.27 14.37 59.35 14.53 58.95C11.5 59.64 7.65 59.45 6.5 59.04C7.75 57.39 11 55.03 11.85 54.78C10.97 54.67 9.48 54.11 8.64 53.6C9.74 52.62 12.4 51.28 13.14 51.17C12.03 50.61 10.72 49.8 9.84 49C10.91 47.87 12.93 46.87 13.59 46.57C10.7 45.37 8.16 43.04 7.75 42.47C8.28 42.22 9 42.19 9.57 42.11C7.9 40.99 5.87 39.1 5.05 37.9C5.62 37.49 6.76 37.48 7.39 37.45C6.81 37.01 4.41 34.44 2.84 31.63C3.49 31.43 4.36 31.33 5.16 31.38C3.29 29.14 2.15 26.68 1.84 25.58C2.28 25.36 2.68 25.34 3.24 25.31C2.33 24.19 1.51 21.53 1.68 20.9C2.88 20.74 5.17 21.82 5.47 22.12C5.42 21.82 5.45 21.38 5.56 21.08C6.66 21.32 8.01 22.43 8.39 22.7C8.34 22.27 8.46 21.79 8.6 21.43C10.41 22.42 11.82 24.46 12.21 25C12.14 24.33 12.38 23.87 12.52 23.33C13.48 24.56 15.79 27.24 16.53 28.03C17.28 28.83 18.38 29.25 18.9 28.88C19.44 28.51 19.6 27.65 19.3 26.81C19 25.96 18.11 24.05 17.94 22.61C18.52 22.61 19.4 22.88 19.93 23.01C18.63 20.26 18.7 17.97 18.68 16.77C20.05 17.07 20.65 17.59 21.61 18.03C21.2 16.3 20.84 12.91 21.67 10.44C23.34 11.17 23.96 12.03 24.6 12.82C24.18 9.11 24.73 6.93 25.17 5.86C25.86 6.38 26.26 6.63 26.75 7.31L26.69 7.11C27.2 4.95 27.99 3.34 29.01 2.25C30.08 3.27 30.83 5.08 31.3 7.16C31.73 6.49 32.03 6.28 32.91 5.95C33.35 7.02 33.76 9.36 33.18 12.8C33.81 12.01 34.55 11.1 36.12 10.41C37.14 12.76 36.36 16.19 36.03 18C36.99 17.56 37.65 17.18 39.02 16.88C39.09 18.24 38.77 20.12 37.48 22.88C38 22.75 38.89 22.59 39.47 22.59C39.36 23.86 38.1 26.23 37.95 27.12C37.75 28.33 38.24 28.57 38.6 28.79C39.17 29.15 40 28.7 40.94 27.75C41.7 26.97 43.64 24.51 44.86 23.22C45 23.76 45.1 23.95 45.15 24.22C45.78 23.57 47.12 21.45 48.9 20.45C49.04 20.81 49.12 21.08 49.12 21.54C49.51 21.27 50.95 20.34 52.05 20.09C52.14 20.5 52 21.05 51.87 21.66C52.17 21.35 54.39 19.94 55.93 20.16C55.93 21.14 55.27 23.32 54.37 24.44C54.79 24.49 55.47 24.45 55.9 24.67ZM51.32 30.76C53.03 28.71 54.44 26.01 54.75 25.24C54.33 25.01 53.89 25.12 53.55 25.03C54.34 23.69 54.97 22.26 54.97 21.19C53.71 21.42 52.7 21.53 51.22 22.85C51.27 22.62 51.39 21.7 51.35 21.28C50.61 21.38 49.44 22.26 48.65 22.88C48.69 22.65 48.62 22.31 48.52 21.99C47.6 22.17 45.34 25.09 44.87 25.64C44.78 25.32 44.61 25.13 44.57 24.53C44.31 25.02 42.51 27.2 40.43 28.77C39.69 29.33 38.82 29.35 38.28 29.14C36.66 28.49 38 25.22 38.59 23.4C38.22 23.4 37.12 23.58 36.65 23.58C37.4 21.79 38.11 19.27 38.16 18.03C37.37 18.17 36.77 18.4 35.43 18.86C35.95 15.3 35.84 13.29 35.43 12.05C34.5 12.37 33.59 13 32.69 14.01C32.87 11.61 32.87 8.56 32.29 7.34C31.73 7.58 31.47 7.91 31.01 8.5C30.92 6.98 29.63 4.75 29.07 4.21C28.52 4.86 27.56 6.37 26.95 8.62C26.58 8.09 26.35 7.8 25.75 7.45C25.47 8.55 24.98 11.59 25.04 13.98C24.03 13.25 23.31 12.63 22.38 12.3C22.09 13.74 21.96 15.59 22.16 18.98C20.82 18.52 20.35 18.33 19.56 18.19C19.6 19.44 20.01 22.11 20.75 23.91C20.26 23.75 19.57 23.53 18.99 23.64C19 24.54 19.7 26.07 19.84 27.34C19.93 28.2 19.59 28.91 18.99 29.24C18.48 29.52 17.66 29.46 17.03 28.99C14.95 27.45 13.44 25.63 12.9 24.91C12.72 25.29 12.64 25.82 12.54 26.14C12.04 25.65 9.98 23.15 9.11 22.86C9.02 23.18 9 23.46 8.95 23.8C7.86 23.01 6.84 22.44 6.1 22.35C6.07 22.75 6.14 22.97 6.03 23.22C4.97 22.43 3.58 22.08 2.8 22.01C2.73 23.1 3.21 24.45 4 25.78C3.58 25.83 3.26 25.89 2.89 26.07C3.11 26.85 4.53 29.89 6.01 31.83C5.03 31.87 4.67 32.02 4.02 32.21C4.43 33.01 5.83 35.42 8.28 37.72C7.64 37.85 6.69 37.9 6.32 38.36C6.97 39.33 8.69 40.95 10.49 42.29C10.12 42.47 9.41 42.59 9.04 42.87C9.55 43.33 11.13 44.99 14.33 46.5C13.06 47.35 11.99 47.89 10.98 49.03C11.52 49.65 12.7 50.46 13.82 51.1C12.83 51.75 11.27 52.57 10.05 53.53C10.72 53.89 11.96 54.4 12.74 54.58C12.1 54.95 9.1 57.4 8.26 58.42C9.19 58.6 12.86 58.79 15.44 58.28C14.97 58.98 14.99 59.69 14.97 60.11C17.44 60.58 20.22 60.06 23.18 59.14C22.73 59.82 22 60.59 21.68 61.33C23.24 61.29 24.43 61.22 25.61 60.74C26.53 60.4 27.91 60.27 28.22 61.46C28.6 62.93 29 63.98 29.51 64.62L30.24 64.04C29.94 63.48 29.69 63.16 29.54 62.75C29.02 61.31 29.01 60.73 29.32 60.42C29.65 60.09 30.25 60.15 30.95 60.42C32.14 60.9 34 61.5 36.19 61.27C35.86 60.53 35.29 59.76 34.78 59.16C38.34 60.11 41.5 60.02 42.91 59.75C42.77 59.29 42.05 58.15 41.47 57.26C43.65 57.69 47.57 57.41 48.49 57.23C47.66 56.22 44.44 53.98 43.89 53.52C45.06 53.36 45.99 52.8 46.59 52.48C45.64 51.62 43.89 50.73 42.79 50.21C43.9 49.56 45.18 48.58 45.82 47.97C45.08 47.09 43.65 46.22 42.45 45.55C45.36 43.98 47.43 42.11 47.94 41.65C47.17 41.47 46.8 41.43 46.38 41.28C48.31 39.69 49.99 38.14 50.64 37.17C50.06 36.8 49.39 36.64 48.74 36.5C51.19 34.2 52.95 31.77 53.28 31.22C52.63 31.04 52.1 30.9 51.32 30.76ZM36.35 48.17L33.3 48.17L33.3 42.68L34.49 42.68L34.49 47.17L36.35 47.17L36.35 48.17ZM42.46 35.26L41.28 34.88L39.45 40.29L38.39 39.95L40.22 34.53L38.95 34.12L39.27 33.13L42.78 34.27L42.46 35.26ZM33.8 38.97L32.64 38.78L33.77 32.14L35.07 32.36L36.05 36.51L36.71 32.64L37.87 32.84L36.74 39.49L35.59 39.3L34.52 34.78L33.8 38.97ZM15.92 42.18L13.37 37.06L12.18 37.67L11.7 36.74L14.98 35.05L15.46 35.98L14.36 36.55L16.91 41.67L15.92 42.18ZM37.51 42.68L38.78 42.68L38.78 42.69L40.78 42.69L40.78 43.71L38.67 43.71L38.67 44.75L40.11 44.75L40.11 45.85L38.67 45.85L38.67 47.14L40.78 47.14L40.78 48.17L37.51 48.17L37.51 42.68ZM22.15 50.92L22.15 51.95L23.59 51.95L23.59 53.05L22.15 53.05L22.15 54.34L24.26 54.34L24.26 55.37L20.99 55.37L20.99 49.88L24.26 49.89L24.26 50.92L22.15 50.92ZM33.5 50.97L33.5 52.27L34.99 52.27L34.99 53.3L33.5 53.3L33.5 55.35L32.3 55.36L32.3 49.88L35.53 49.89L35.53 50.99L33.5 50.97ZM38.56 51.57L41.24 52.83L41.24 54.57L40.43 55.37L38.27 55.37L37.45 54.57L37.45 53.56L38.6 53.56L38.6 54.34L40.14 54.34L40.14 53.46L37.45 52.2L37.45 50.69L38.27 49.89L40.43 49.89L41.16 50.6L41.16 51.57L40.05 51.57L40.05 50.9L38.56 50.9L38.56 51.57Z" />
	<path id="Path 133 copy" fill-rule="evenodd" class="shp0" d="M31.6 38.05L30.89 38.81L28.23 38.8L27.52 38.04L27.54 32.79L28.25 32.04L30.91 32.05L31.62 32.81L31.6 38.05ZM30.56 33.16L28.59 33.15L28.58 37.69L30.55 37.7L30.56 33.16ZM23.32 39.47L22.12 32.68L24.91 32.19L25.79 32.8L26.32 35.77L25.64 36.73L25.6 36.74L26.68 38.86L25.5 39.07L24.39 36.89L24.05 36.95L24.46 39.27L23.32 39.47ZM23.45 33.58L23.86 35.86L25.19 35.63L24.78 33.34L23.45 33.58ZM18.18 40.16L16.65 35.14L17.12 34.21L19.66 33.44L20.56 33.95L22.08 38.97L21.62 39.9L19.08 40.67L18.18 40.16ZM17.77 35.17L19.08 39.51L20.97 38.94L19.65 34.6L17.77 35.17ZM25.9 47.58L23.96 47.58L23.78 48.17L22.58 48.17L24.26 42.74L25.62 42.74L27.3 48.17L26.1 48.17L25.9 47.58ZM25.6 46.58L24.89 44.19L24.24 46.58L25.6 46.58ZM27.12 55.37L25.91 55.37L27.6 49.89L28.95 49.89L30.63 55.37L29.43 55.37L29.24 54.73L27.29 54.73L27.12 55.37ZM27.57 53.72L28.93 53.72L28.22 51.33L27.57 53.72Z" />
	<path id="Path 134 copy" fill-rule="evenodd" class="shp0" d="M30.77 46.58L29.28 46.58L29.28 48.18L28.15 48.18L28.15 42.7L30.68 42.7L31.59 43.5L31.59 45.87L30.77 46.58ZM30.51 43.71L29.28 43.71L29.28 45.57L30.51 45.57L30.51 43.71ZM47.28 36.31L47.57 37.31L45.17 41.98L44.19 42.32L41.83 41.11L41.54 40.11L43.94 35.45L44.91 35.1L47.28 36.31ZM46.47 37.14L44.71 36.24L42.64 40.28L44.39 41.18L46.47 37.14ZM17.65 49.89L17.65 54.37L19.51 54.37L19.51 55.37L16.47 55.37L16.47 49.89L17.65 49.89ZM20.73 48.18L20.73 45.65L19.93 47.45L19.68 47.46L18.88 45.65L18.88 48.18L17.8 48.18L17.8 42.7L18.67 42.7L19.76 45.45L20.95 42.7L21.8 42.7L21.8 48.18L20.73 48.18ZM25.34 23.54C25.34 23.54 25.33 23.43 25.38 23.43C25.55 23.43 26.62 26.36 28.59 27.71L28.64 24.65C28.27 24.16 26.7 22.09 26.63 21.08C26.63 21.08 26.62 20.92 26.7 20.92C26.9 20.92 27.17 22.46 28.66 23.94L28.76 17.98L27.81 15.85L27.88 15.82L28.78 17.18L28.87 11.74L29.1 11.86L29.07 20.46L30.44 18.83L30.41 18.95L29.07 21.06L29.04 27.81C32.26 24.58 32.1 23.66 32.34 23.66C32.44 23.66 32.41 23.82 32.41 23.82C31.91 25.23 29.95 27.4 29.04 28.42L29.03 30.48L28.55 30L28.58 28.31C27.61 27.51 26.02 26.16 25.34 23.54ZM13.52 33.3L12.88 33.3L11.16 31.37C9.75 31.26 8.38 30.87 8.38 30.87L8.25 30.52C8.25 30.52 9.45 30.89 10.84 31.01L4.12 23.47L4.44 23.55L7.79 27.15C7.52 26.14 7.1 25.16 7.1 25.16L7.39 25.19C7.39 25.19 8 26.25 8.27 27.66L12.34 32.04C12.37 31.89 12.41 31.61 12.41 31.23C12.41 29.52 11.76 28.16 11.76 28.16L11.97 28.13C11.97 28.13 12.81 29.27 12.81 31.18C12.81 31.73 12.74 32.2 12.7 32.42L13.52 33.3L13.52 33.3ZM53.65 23.05C50.27 25.96 48.87 28.27 46.48 30.99C47.69 30.73 49.86 29.52 49.86 29.52L49.86 29.76C49.86 29.76 47.65 31.15 46.03 31.49C45.34 32.25 44.56 33.04 43.64 33.89L43.42 33.49C43.89 33.07 44.31 32.66 44.71 32.26C44.52 29.46 45.39 28 45.39 28L45.63 28.02C45.63 28.02 44.86 29.77 45.18 31.79C46.75 30.18 47.86 28.75 49.06 27.31C49.44 25.6 49.96 24.75 49.96 24.75L50.15 24.75C50.15 24.75 49.66 25.99 49.53 26.74C50.66 25.42 51.92 24.07 53.74 22.56L53.65 23.05ZM38.6 56.9C38.6 57.01 38.29 57.06 38.29 57.06C36.58 57.24 35.8 57.67 35.62 57.78C36.25 57.98 36.84 58.14 37.48 58.14C37.79 58.14 37.38 58.29 37.38 58.29C36.32 58.43 34.51 57.47 32.32 57.47C30.41 57.47 29.28 58.43 29.02 58.69C29.66 59.01 29.94 59.27 29.94 59.27L29.68 59.58C29.68 59.58 27.48 57.61 21.92 57.78C20.55 57.82 19.47 57.8 18.62 57.74C18.39 57.9 17.53 58.43 15.91 58.5C15.91 58.5 15.81 58.5 15.81 58.4C15.81 58.14 16.79 58.3 17.95 57.69C15.93 57.47 15.46 57.01 15.04 56.75C15.04 56.75 14.97 56.58 15.22 56.61C15.22 56.61 16.19 57.63 22.05 57.48C25.33 57.4 27.42 57.98 28.62 58.5C28.99 58.2 30.42 57.12 32.32 57.12C33.41 57.12 34.3 57.37 35.1 57.62C35.45 57.44 36.78 56.82 38.38 56.82C38.61 56.82 38.6 56.9 38.6 56.9Z" />
	<path id="Path 135 copy" fill-rule="evenodd" class="shp1" d="M56.85 29.69C56.85 29.69 54.88 33.25 52.65 35.45L53.99 36.4C53.99 36.4 52.68 38.69 50.69 40.31L51.34 40.7C51.34 40.7 50.91 42.8 46.62 45.53C46.62 45.53 48.04 46.45 49.24 48.09C49.24 48.09 47.71 49.55 47.12 49.93C47.12 49.93 48.94 50.69 50.42 52.37C50.42 52.37 49.4 53.58 48.48 54.06C48.48 54.06 51.6 55.74 52.52 58.5C52.52 58.5 48.68 60.24 45.44 59.83L45.94 61.16C45.94 61.16 43.41 62.95 38.97 61.95L39.6 63.3C39.6 63.3 35.69 64.05 32.13 62.89L33.4 64.37L28.91 67.76C28.91 67.76 26.89 65.36 26.53 62.48C26.53 62.48 23.91 63.93 19.31 63.93L19.22 62.12C19.22 62.12 16.65 62.8 12.42 62.17L12.55 60.76C12.55 60.76 7.91 61.49 4.04 59.78C4.04 59.78 6.02 56.81 8.38 55.21C8.38 55.21 6.71 54.25 6.12 53.83C6.12 53.83 7.6 52.17 9.86 50.96C9.86 50.96 8.29 49.7 7.71 49.07C7.71 49.07 9.12 47.34 10.43 46.61C10.43 46.61 7.06 44.61 5.47 41.88L6.32 41.47C6.32 41.47 4.58 40.12 2.97 37.53L4.42 36.52C4.42 36.52 1.84 33.4 0.63 30.74L2.42 30.17C2.42 30.17 0.61 27.58 0.02 24.78L0.97 24.32C0.97 24.32 -0.47 21.53 0.5 19.53C0.5 19.53 2.4 18.99 4.38 19.92L4.6 19.32C4.6 19.32 6.3 19.52 7.45 20.25L7.81 19.28C7.81 19.28 10.33 20.5 11.4 21.68L11.81 19.96C11.81 19.96 16.3 25.73 17.83 27.24C17.83 27.24 16.24 23.72 16.24 21.09L17.68 21.09C17.68 21.09 17.02 19.61 17.15 14.91C17.15 14.91 18.64 15.15 19.76 15.48C19.76 15.48 19.16 12.22 20.76 8.42C20.76 8.42 22.12 8.92 22.95 9.42C22.95 9.42 22.86 7.02 24.5 3.52C24.5 3.52 25.59 4.22 25.9 4.5C25.9 4.5 26.97 1.63 28.94 0.1C28.94 0.1 31.01 1.55 32.15 4.63L33.76 4.02C33.76 4.02 34.97 6.36 34.97 9.3C34.97 9.3 35.86 8.79 36.91 8.42C36.91 8.42 38.79 11.59 37.94 15.59C37.94 15.59 39.23 15.21 40.41 15.04C40.41 15.04 40.96 18.52 39.82 21.07L41.11 21.09C41.11 21.09 41.22 23.61 39.52 27C40.94 25.76 42.96 22.71 45.66 20.2L45.86 21.07C45.86 21.07 47.08 19.41 49.68 18.27L50.07 19.26C50.07 19.26 51.47 18.49 53.2 18.32L53.37 19.08C53.37 19.08 55.1 18.23 57.42 18.89C57.42 18.89 57.7 21.25 56.68 23.35L57.77 23.89C57.77 23.89 56.94 26.84 55.1 29.18L56.85 29.69ZM54.52 30.6C53.95 30.43 53.02 30.23 52.23 30.28C54.19 28.26 55.48 25.83 55.91 24.67C55.47 24.45 54.79 24.49 54.37 24.44C55.27 23.32 55.93 21.14 55.93 20.16C54.39 19.94 52.17 21.35 51.87 21.65C52 21.05 52.14 20.49 52.05 20.09C50.95 20.34 49.51 21.27 49.12 21.54C49.12 21.07 49.04 20.8 48.9 20.45C47.12 21.45 45.78 23.57 45.15 24.22C45.1 23.94 45 23.76 44.86 23.21C43.64 24.51 41.7 26.97 40.94 27.74C40 28.7 39.17 29.15 38.6 28.79C38.24 28.57 37.75 28.32 37.95 27.12C38.1 26.23 39.35 23.86 39.47 22.59C38.89 22.59 38 22.74 37.48 22.88C38.77 20.12 39.09 18.24 39.02 16.88C37.65 17.18 36.99 17.56 36.03 18C36.36 16.19 37.14 12.76 36.12 10.41C34.55 11.09 33.81 12.01 33.18 12.8C33.76 9.36 33.35 7.02 32.91 5.95C32.03 6.28 31.73 6.49 31.3 7.16C30.83 5.08 30.08 3.27 29 2.25C27.99 3.34 27.2 4.95 26.69 7.11L26.75 7.31C26.26 6.63 25.86 6.37 25.17 5.86C24.73 6.93 24.18 9.11 24.59 12.82C23.96 12.03 23.34 11.17 21.67 10.44C20.84 12.91 21.2 16.3 21.61 18.03C20.65 17.59 20.05 17.07 18.68 16.77C18.7 17.97 18.63 20.26 19.92 23.01C19.4 22.88 18.52 22.61 17.94 22.61C18.11 24.05 19 25.96 19.3 26.81C19.6 27.65 19.43 28.5 18.9 28.88C18.38 29.25 17.28 28.83 16.54 28.03C15.79 27.24 13.48 24.56 12.52 23.33C12.38 23.87 12.14 24.33 12.21 25C11.82 24.45 10.41 22.41 8.59 21.43C8.46 21.79 8.34 22.27 8.39 22.7C8.01 22.43 6.66 21.32 5.56 21.07C5.45 21.37 5.42 21.82 5.47 22.12C5.17 21.82 2.88 20.74 1.68 20.89C1.51 21.52 2.33 24.19 3.24 25.31C2.68 25.34 2.28 25.36 1.83 25.58C2.15 26.67 3.29 29.14 5.16 31.38C4.36 31.32 3.49 31.42 2.84 31.62C4.41 34.44 6.81 37.01 7.39 37.45C6.76 37.47 5.62 37.48 5.05 37.89C5.87 39.09 7.9 40.99 9.58 42.11C9 42.19 8.28 42.22 7.75 42.47C8.16 43.04 10.7 45.37 13.59 46.57C12.93 46.87 10.91 47.86 9.84 49C10.72 49.79 12.03 50.61 13.14 51.17C12.4 51.28 9.74 52.62 8.64 53.6C9.49 54.11 10.97 54.67 11.85 54.78C11 55.03 7.75 57.39 6.5 59.04C7.65 59.45 11.5 59.63 14.53 58.95C14.37 59.35 14.1 60.27 14.06 60.8C16.2 60.96 17.45 61.22 22.04 59.89C21.35 60.6 20.69 61.66 20.73 62.36C22.69 62.27 24.67 61.72 26.31 60.91C27.25 60.68 27.52 60.96 27.75 61.43C27.99 61.89 27.95 62 28.18 62.94C28.45 64.12 28.75 64.94 29.25 65.62L31.19 64.15C29.63 62.41 29.28 61.16 29.5 60.8C29.71 60.44 29.92 60.36 30.97 60.91C32.34 61.64 35.99 62.19 37.37 62.03C37.01 61.24 36.45 60.36 35.83 59.71C40.42 61.05 43.12 60.81 44.08 60.38C43.79 59.51 43.24 58.61 42.59 58.01C47.29 58.84 49.26 58.07 50.42 57.66C49.99 56.81 45.96 54 45.11 53.75C45.99 53.64 47.71 52.95 48.23 52.44C47.13 51.46 45.27 50.65 43.91 50.14C44.95 49.78 46.26 48.74 47.14 47.95C46.12 46.75 44.16 45.84 43.5 45.54C46.29 44.29 48.97 41.97 49.35 41.26C48.74 40.88 48.25 41.01 47.67 40.93C49.41 39.57 51.09 37.96 51.91 36.76C51.33 36.35 50.55 36.22 49.7 36.15C50.28 35.72 52.87 33.34 54.52 30.6ZM19.65 34.59L20.97 38.94L19.08 39.51L17.76 35.17L19.65 34.59ZM23.86 35.86L23.45 33.58L24.78 33.34L25.19 35.63L23.86 35.86ZM28.93 53.72L27.57 53.72L28.22 51.33L28.93 53.72ZM24.89 44.19L25.6 46.58L24.24 46.58L24.89 44.19ZM29.28 43.72L30.51 43.72L30.51 45.57L29.28 45.57L29.28 43.72ZM30.55 37.7L28.58 37.69L28.59 33.15L30.57 33.16L30.55 37.7Z" />
	<path id="Path 136 copy" fill-rule="evenodd" class="shp1" d="M51.31 30.76C52.1 30.9 52.63 31.04 53.27 31.22C52.95 31.77 51.19 34.2 48.73 36.5C49.38 36.64 50.05 36.8 50.64 37.17C49.99 38.14 48.31 39.69 46.37 41.28C46.8 41.43 47.17 41.47 47.94 41.65C47.43 42.11 45.36 43.98 42.45 45.55C43.64 46.22 45.08 47.09 45.82 47.97C45.18 48.58 43.9 49.56 42.78 50.21C43.89 50.73 45.64 51.62 46.59 52.47C45.99 52.8 45.06 53.37 43.89 53.52C44.44 53.98 47.66 56.22 48.49 57.23C47.56 57.41 43.64 57.69 41.47 57.26C42.05 58.15 42.77 59.29 42.91 59.74C41.5 60.02 38.34 60.11 34.78 59.16C35.29 59.76 35.86 60.54 36.19 61.27C34 61.49 32.14 60.9 30.94 60.42C30.25 60.15 29.65 60.09 29.32 60.42C29.01 60.73 29.02 61.31 29.54 62.75C29.68 63.16 29.94 63.48 30.24 64.04L29.51 64.62C29 63.98 28.6 62.93 28.22 61.46C27.91 60.27 26.53 60.4 25.61 60.73C24.43 61.22 23.24 61.29 21.68 61.33C22 60.59 22.72 59.82 23.18 59.14C20.22 60.06 17.44 60.58 14.97 60.11C14.98 59.69 14.97 58.98 15.44 58.28C12.86 58.79 9.19 58.6 8.26 58.42C9.09 57.4 12.1 54.95 12.74 54.58C11.95 54.39 10.71 53.89 10.04 53.53C11.27 52.57 12.83 51.75 13.81 51.1C12.7 50.46 11.52 49.65 10.98 49.03C11.98 47.89 13.06 47.35 14.33 46.5C11.13 44.99 9.55 43.33 9.04 42.87C9.41 42.59 10.12 42.47 10.49 42.29C8.68 40.95 6.97 39.33 6.32 38.36C6.69 37.9 7.63 37.85 8.28 37.72C5.83 35.41 4.42 33.01 4.02 32.21C4.67 32.02 5.03 31.87 6.01 31.83C4.52 29.89 3.11 26.85 2.88 26.07C3.26 25.89 3.58 25.83 4 25.78C3.21 24.45 2.73 23.11 2.79 22.01C3.58 22.08 4.96 22.43 6.03 23.22C6.14 22.97 6.07 22.75 6.1 22.35C6.84 22.44 7.86 23.01 8.95 23.8C9 23.46 9.01 23.18 9.11 22.86C9.98 23.15 12.03 25.65 12.54 26.14C12.64 25.82 12.72 25.29 12.9 24.91C13.43 25.63 14.95 27.45 17.03 28.99C17.66 29.46 18.48 29.52 18.99 29.24C19.59 28.9 19.93 28.2 19.84 27.34C19.7 26.07 18.99 24.54 18.99 23.64C19.57 23.53 20.26 23.75 20.75 23.91C20.01 22.11 19.6 19.44 19.56 18.19C20.34 18.33 20.81 18.52 22.16 18.98C21.96 15.59 22.09 13.73 22.38 12.3C23.31 12.63 24.03 13.25 25.03 13.98C24.98 11.59 25.47 8.55 25.75 7.45C26.35 7.8 26.57 8.09 26.94 8.62C27.55 6.38 28.51 4.86 29.07 4.21C29.63 4.75 30.92 6.97 31.01 8.49C31.47 7.91 31.73 7.58 32.28 7.33C32.87 8.56 32.87 11.61 32.68 14.01C33.59 13 34.5 12.37 35.43 12.05C35.84 13.29 35.95 15.3 35.43 18.86C36.77 18.4 37.37 18.17 38.15 18.03C38.11 19.27 37.39 21.79 36.65 23.58C37.12 23.58 38.21 23.4 38.59 23.4C37.99 25.22 36.66 28.49 38.28 29.14C38.82 29.35 39.68 29.32 40.43 28.77C42.51 27.2 44.31 25.02 44.57 24.54C44.61 25.13 44.78 25.32 44.87 25.64C45.34 25.09 47.6 22.17 48.52 21.99C48.61 22.31 48.69 22.65 48.65 22.88C49.44 22.26 50.6 21.38 51.34 21.28C51.39 21.7 51.27 22.62 51.22 22.85C52.69 21.53 53.71 21.42 54.96 21.19C54.96 22.26 54.34 23.69 53.55 25.03C53.89 25.12 54.33 25.01 54.75 25.24C54.44 26.01 53.03 28.71 51.31 30.76ZM47.57 37.31L47.28 36.31L44.92 35.1L43.94 35.45L41.54 40.11L41.83 41.11L44.19 42.32L45.17 41.98L47.57 37.31ZM42.46 35.26L42.78 34.27L39.27 33.13L38.94 34.12L40.22 34.53L38.39 39.95L39.45 40.29L41.28 34.88L42.46 35.26ZM41.24 52.83L38.56 51.57L38.56 50.9L40.05 50.9L40.05 51.57L41.16 51.57L41.16 50.6L40.43 49.89L38.27 49.89L37.45 50.69L37.45 52.2L40.14 53.46L40.14 54.34L38.6 54.34L38.6 53.56L37.45 53.56L37.45 54.57L38.27 55.37L40.43 55.37L41.24 54.57L41.24 52.83ZM38.38 56.82C36.78 56.82 35.45 57.44 35.11 57.62C34.3 57.37 33.41 57.12 32.32 57.12C30.42 57.12 28.99 58.2 28.62 58.5C27.42 57.98 25.33 57.4 22.06 57.48C16.19 57.63 15.22 56.62 15.22 56.62C14.97 56.58 15.04 56.75 15.04 56.75C15.46 57.02 15.93 57.47 17.95 57.69C16.79 58.3 15.81 58.14 15.81 58.4C15.81 58.5 15.91 58.5 15.91 58.5C17.53 58.43 18.39 57.9 18.62 57.74C19.47 57.8 20.55 57.82 21.92 57.78C27.48 57.62 29.68 59.58 29.68 59.58L29.94 59.27C29.94 59.27 29.66 59.01 29.02 58.69C29.28 58.44 30.41 57.47 32.32 57.47C34.52 57.47 36.32 58.44 37.38 58.29C37.38 58.29 37.79 58.14 37.48 58.14C36.85 58.14 36.25 57.98 35.62 57.79C35.8 57.68 36.58 57.24 38.3 57.06C38.3 57.06 38.6 57.01 38.6 56.9C38.6 56.9 38.61 56.82 38.38 56.82ZM15.92 42.18L16.91 41.67L14.36 36.55L15.46 35.98L14.98 35.05L11.7 36.74L12.18 37.67L13.37 37.06L15.92 42.18ZM11.16 31.37L12.88 33.3L13.52 33.3L12.7 32.42C12.74 32.2 12.81 31.72 12.81 31.17C12.81 29.27 11.97 28.13 11.97 28.13L11.76 28.16C11.76 28.16 12.41 29.52 12.41 31.23C12.41 31.61 12.37 31.89 12.35 32.04L8.27 27.66C8 26.25 7.39 25.19 7.39 25.19L7.1 25.16C7.1 25.16 7.52 26.14 7.79 27.15L4.44 23.55L4.12 23.47L10.84 31.01C9.45 30.89 8.25 30.52 8.25 30.52L8.38 30.87C8.38 30.87 9.75 31.26 11.16 31.37ZM16.65 35.14L18.18 40.16L19.08 40.67L21.62 39.9L22.08 38.97L20.56 33.95L19.66 33.44L17.12 34.21L16.65 35.14ZM22.11 32.68L23.32 39.47L24.46 39.27L24.05 36.95L24.39 36.89L25.5 39.07L26.68 38.86L25.6 36.74L25.64 36.73L26.32 35.77L25.79 32.8L24.91 32.19L22.11 32.68ZM31.61 38.05L31.62 32.81L30.91 32.05L28.25 32.04L27.54 32.79L27.52 38.04L28.23 38.8L30.89 38.8L31.61 38.05ZM30.77 46.58L31.59 45.87L31.59 43.5L30.68 42.7L28.15 42.7L28.15 48.18L29.28 48.18L29.28 46.58L30.77 46.58ZM25.91 55.37L27.12 55.37L27.29 54.73L29.24 54.73L29.43 55.37L30.63 55.37L28.95 49.89L27.6 49.89L25.91 55.37ZM25.9 47.58L26.1 48.17L27.3 48.17L25.62 42.74L24.26 42.74L22.58 48.17L23.78 48.17L23.96 47.58L25.9 47.58ZM17.65 54.37L17.65 49.89L16.47 49.89L16.47 55.37L19.51 55.37L19.51 54.37L17.65 54.37ZM20.73 45.65L20.73 48.18L21.8 48.18L21.8 42.7L20.95 42.7L19.76 45.45L18.67 42.7L17.81 42.7L17.81 48.18L18.88 48.18L18.88 45.65L19.68 47.46L19.93 47.45L20.73 45.65ZM22.15 51.95L22.15 50.91L24.26 50.91L24.26 49.89L20.99 49.89L20.99 55.37L24.26 55.37L24.26 54.34L22.15 54.34L22.15 53.05L23.59 53.05L23.59 51.95L22.15 51.95ZM25.35 23.54C26.02 26.16 27.61 27.51 28.58 28.31L28.55 30L29.03 30.48L29.04 28.42C29.95 27.4 31.91 25.23 32.41 23.82C32.41 23.82 32.44 23.66 32.34 23.66C32.1 23.66 32.26 24.58 29.04 27.81L29.07 21.06L30.41 18.96L30.44 18.83L29.07 20.46L29.1 11.86L28.87 11.74L28.78 17.18L27.88 15.82L27.82 15.85L28.76 17.98L28.66 23.94C27.17 22.47 26.9 20.92 26.7 20.92C26.62 20.92 26.63 21.08 26.63 21.08C26.7 22.09 28.27 24.16 28.64 24.65L28.59 27.71C26.62 26.36 25.55 23.43 25.38 23.43C25.33 23.43 25.34 23.54 25.35 23.54ZM36.35 48.17L36.35 47.17L34.49 47.17L34.49 42.68L33.31 42.68L33.31 48.17L36.35 48.17ZM33.5 52.27L33.5 50.97L35.53 50.99L35.53 49.89L32.3 49.89L32.3 55.37L33.5 55.35L33.5 53.3L34.99 53.3L34.99 52.27L33.5 52.27ZM32.64 38.78L33.8 38.97L34.52 34.78L35.59 39.3L36.74 39.49L37.87 32.84L36.71 32.64L36.05 36.51L35.07 32.36L33.77 32.14L32.64 38.78ZM37.51 42.68L37.51 48.17L40.78 48.17L40.78 47.14L38.67 47.14L38.67 45.85L40.11 45.85L40.11 44.75L38.67 44.75L38.67 43.72L40.78 43.72L40.78 42.69L38.78 42.69L38.78 42.68L37.51 42.68ZM49.86 29.52C49.86 29.52 47.69 30.73 46.48 30.99C48.87 28.27 50.27 25.96 53.65 23.05L53.74 22.55C51.93 24.07 50.66 25.42 49.53 26.74C49.66 25.99 50.15 24.75 50.15 24.75L49.97 24.75C49.97 24.75 49.44 25.6 49.06 27.3C47.86 28.74 46.75 30.18 45.18 31.79C44.86 29.77 45.63 28.02 45.63 28.02L45.39 28C45.39 28 44.52 29.46 44.71 32.26C44.32 32.66 43.89 33.07 43.42 33.49L43.64 33.89C44.57 33.04 45.34 32.25 46.03 31.49C47.65 31.15 49.86 29.76 49.86 29.76L49.86 29.52ZM44.4 41.18L42.64 40.28L44.72 36.24L46.47 37.14L44.4 41.18Z" />
	<path id="Path 124 copy 3" class="shp0" d="M386.59 263.81C386.59 263.81 385.32 265.23 383.78 268.99L381.14 270.18L380.63 271.04L383.46 269.81C383.46 269.81 382.16 273.08 381.83 274.2C381.83 274.2 380.68 274.95 378.05 275.91L377.8 276.55C377.8 276.55 379.99 275.84 381.52 274.96L380.1 279.5L379.88 280.19C379.88 280.19 379.77 280.5 380.03 280.5C380.29 280.5 380.29 280.32 380.29 280.32L381.91 275.52C381.91 275.52 382.9 277.74 383.82 278.67L384.21 278.29C384.21 278.29 382.54 276.39 382.28 274.78L383.76 270.68L385.17 273.02L385.42 272.23L384.05 270.06C384.05 270.06 384.81 267.68 385.5 266.37C386.19 265.05 386.51 264.54 386.51 264.54C386.51 264.54 386.74 264.17 386.59 263.81ZM-118.29 26.63C-118.4 26.8 -118.6 27.09 -118.78 27.36C-118.29 27.52 -117.79 27.72 -117.29 27.92C-116.77 28.14 -115.96 28.42 -115.09 28.73C-115.1 28.34 -115.12 27.9 -115.12 27.68C-115.61 27.52 -117.77 26.81 -118.29 26.63ZM-108.92 28.71C-109.29 29.58 -110.39 30.39 -110.63 30.57C-110.63 30.77 -110.67 31.01 -110.76 31.28C-110.96 31.85 -111.82 32.72 -113.55 32.42C-115.27 32.14 -115.95 31.85 -115.95 31.85C-115.95 31.85 -116.81 33.96 -118.72 33.19C-118.72 33.19 -119.01 35.78 -120.45 36.55C-121.89 37.31 -131.76 40.76 -131.76 40.76C-131.76 40.76 -131.86 40.97 -132.11 41.2L-134.25 44.91L-133.96 46.51C-133.96 46.51 -132.24 48.52 -132.24 49.96L-133.49 50.53L-133.75 50.53C-133.63 50.9 -133.49 51.34 -133.42 51.57L-131.72 51.57L-131.72 52.98L-138.89 52.98L-147.4 67.76L-156.74 51.9C-157.66 52.68 -158.61 53.16 -159.33 53.16L-161.07 53.17L-178.13 53.17L-175.2 47.9L-159.43 47.9C-159.32 47.9 -159.21 47.89 -159.11 47.89L-180.92 10.86L-169.72 10.86C-168.88 10.02 -168.29 9.43 -168.29 9.43C-168.29 9.43 -167.04 8.18 -166.57 6.84C-166.09 5.5 -165.61 4.26 -163.69 3.01C-161.77 1.77 -160.53 1.1 -159.28 0.52C-158.03 -0.05 -156.3 -0.25 -154.87 1.29C-153.43 2.82 -152.66 3.49 -152.18 3.97C-151.7 4.45 -150.75 6.65 -147.96 5.5C-145.19 4.36 -141.06 2.15 -138.47 2.25C-135.89 2.34 -131.57 4.64 -130.13 6.27C-130.13 6.27 -128.99 5.26 -127.74 5.41C-126.68 5.53 -126.2 6.65 -125.24 8.57C-125.24 8.57 -123.04 9.14 -123.04 10.39C-123.04 10.39 -122.99 10.38 -122.91 10.38C-122.87 10.34 -122.83 10.3 -122.78 10.25C-122.3 9.77 -122.01 9.48 -121.68 9.26C-121.61 9.21 -121.53 9.18 -121.45 9.15C-121.51 8.97 -121.61 8.61 -121.35 8.42C-121.01 8.15 -120.19 7.84 -119.32 8.59C-118.58 9.24 -118.56 9.5 -118.56 9.5C-118.56 9.5 -117.93 10.25 -118.29 10.86L-114.66 10.86L-126.78 31.92C-126.75 32.06 -126.71 32.19 -126.68 32.33C-126.68 32.33 -125.15 32.9 -124.67 33.48C-124.67 33.48 -123.33 33.48 -122.65 33.38C-121.98 33.29 -121.89 33.29 -121.79 32.9C-121.69 32.52 -121.69 32.14 -121.89 31.47C-122.08 30.8 -122.37 27.44 -121.5 27.06C-121.25 26.95 -120.91 26.92 -120.52 26.95C-120.52 26.56 -120.51 26.06 -120.51 25.82C-120.91 25.68 -122.12 25.28 -122.12 25.28L-121.68 23.94L-108.72 28.23L-108.92 28.71ZM-137.49 50.53L-138.04 51.49L-135.78 51.49C-135.72 51.28 -135.61 50.87 -135.51 50.53L-137.49 50.53ZM-112.76 28.46C-112.89 28.65 -113.15 29 -113.37 29.31C-112.81 29.49 -112.29 29.67 -111.87 29.8C-111.95 29.35 -112.05 28.87 -112.09 28.68C-112.31 28.61 -112.5 28.55 -112.76 28.46ZM-135 50.53L-135.42 51.98L-139.45 51.98L-139.98 50.53L-140.79 50.53L-141.25 51.98L-142.6 51.98L-143.42 50.53L-143.96 50.53C-144.19 50.86 -144.78 51.78 -144.84 52.5L-132.2 52.5L-132.2 52.05L-133.77 52.05L-134.25 50.53L-135 50.53ZM-120.04 27.02C-119.79 27.07 -119.54 27.13 -119.27 27.21L-118.48 26.06L-114.65 27.32L-114.6 28.89C-114.35 28.98 -114.1 29.06 -113.85 29.15L-112.94 27.89L-111.66 28.31L-111.34 29.97C-111.08 30.06 -110.91 30.11 -110.86 30.13C-110.86 30.13 -110.86 30.13 -110.85 30.13C-110.56 29.91 -109.66 29.21 -109.37 28.52L-121.37 24.55L-121.51 24.98L-120.02 25.47L-120.04 27.02ZM-148.44 32.52C-147.34 33.22 -146.25 33.87 -145.18 34.44C-142.96 32.12 -138.13 27.04 -134.33 23.05C-135.49 21.51 -136.89 19.87 -138.57 18.15C-148.25 8.18 -154.94 13.89 -156.11 15.75C-158.9 20.16 -156.88 27.15 -148.44 32.52ZM-142.17 35.94C-136.44 38.55 -131.82 39.11 -130.32 37.41C-128.84 35.71 -128.76 31.48 -132.69 25.38C-135.98 29.06 -139.96 33.49 -142.17 35.94ZM-171.84 13.84C-172.6 14.7 -172.7 17.19 -172.7 17.19L-166.47 11.82L-168.96 16.42C-168.96 16.42 -164.74 14.51 -164.36 13.55C-164.36 13.55 -165.22 11.44 -167.14 9.53C-167.14 9.53 -171.07 12.98 -171.84 13.84ZM-112.99 30.71C-113.45 30.83 -113.78 31.13 -113.71 31.38C-113.66 31.64 -113.23 31.76 -112.77 31.65C-112.3 31.54 -111.98 31.24 -112.04 30.98C-112.1 30.72 -112.53 30.6 -112.99 30.71ZM-143.66 49.63C-143.5 49.83 -143.06 49.76 -142.69 49.47C-142.31 49.18 -142.14 48.77 -142.3 48.57C-142.46 48.35 -142.9 48.42 -143.28 48.72C-143.65 49.01 -143.83 49.42 -143.66 49.63ZM-163.26 6.73C-163.32 6.04 -162.54 5.56 -162.18 4.96C-162.54 4.49 -163.17 4.28 -163.67 4.55C-163.77 5.95 -164.19 7.24 -164.51 8.52C-163.8 9.06 -163.98 7.69 -163.2 7.66C-162.75 7.51 -162.51 7.93 -162.24 8.19C-162.09 8.58 -162.18 9.09 -162.48 9.42L-161.76 9.36C-161.46 9 -161.37 8.46 -161.52 8.02C-161.73 7.21 -162.69 7.15 -163.26 6.73ZM-126.58 7.6C-126.74 7.09 -126.99 6.62 -127.28 6.12C-127.47 5.99 -127.87 6.02 -127.81 6.37C-127.43 6.75 -127.28 7.69 -126.58 7.6ZM-126.61 9.17C-127.34 8.2 -128 7.19 -128.79 6.21C-129.07 6.21 -129.39 6.37 -129.45 6.69C-128.69 7.5 -127.81 8.32 -127.15 9.14C-127.02 9.26 -126.77 9.49 -126.61 9.17ZM-127.91 10.53C-127.72 10.65 -127.24 10.65 -127.3 10.28L-129.89 7.32C-130.24 7.09 -130.65 7.32 -130.83 7.66C-129.86 8.64 -128.72 9.39 -127.91 10.53ZM-128.28 10.78L-130.87 8.57C-131.27 8.16 -131.87 8.23 -132.06 8.86C-130.9 9.74 -129.61 10.3 -128.53 11.37C-128.22 11.41 -128.12 11 -128.28 10.78ZM-125.07 11.97C-124.63 11.31 -123.52 11.37 -123.81 10.4C-123.87 9.96 -124.47 9.64 -125.01 9.77C-126.96 11.06 -128.35 13.04 -128.6 15.09C-128.32 15.41 -127.94 15.44 -127.53 15.44C-126.67 14.36 -126.24 12.98 -125.07 11.97ZM-129.17 12.57C-128.95 12.54 -128.63 12.19 -128.85 11.91C-130.11 11.19 -131.28 10.21 -132.63 9.71C-132.85 9.93 -132.92 10.24 -132.88 10.56L-129.17 12.57ZM-129.76 13.71C-129.54 13.64 -129.29 13.36 -129.51 13.17C-130.68 12.57 -131.81 11.82 -133.07 11.37C-133.23 11.56 -133.45 11.91 -133.26 12.07C-132 12.45 -130.96 13.2 -129.76 13.71ZM-126.7 15.47C-126.52 15.91 -126.17 15.91 -125.73 15.78C-124.47 15.09 -123.59 13.74 -123.33 12.32C-123.37 12.1 -123.65 11.97 -123.84 11.91C-125.16 12.79 -125.98 14.17 -126.7 15.47ZM-122.36 12.45L-120.94 14.93C-121 13.9 -121.45 13.03 -122.05 12.23C-122.12 12.24 -122.19 12.25 -122.26 12.25L-122.36 12.45ZM-121.13 16.03C-121.1 14.93 -122.14 14.05 -122.71 13.07L-123.08 13.83L-121.57 16.09C-121.44 16.07 -121.22 16.16 -121.13 16.03ZM-130.58 14.11C-131.62 13.64 -132.63 13.11 -133.73 12.79L-133.83 13.07C-133.01 13.99 -131.84 14.15 -130.58 14.11ZM-123.9 15.25C-123.34 15.9 -123.34 17.1 -122.45 17.26C-122.23 16.35 -122.89 15.5 -123.43 14.84C-123.65 14.84 -123.87 15.02 -123.9 15.25ZM-124.98 16.19C-125 17.13 -124.31 17.98 -123.87 18.8L-123.34 18.9C-123.21 17.86 -124 17.13 -124.37 16.32L-124.98 16.19ZM-129.1 16.76C-129.05 16.96 -129.02 17.23 -128.93 17.42C-128.68 17.25 -128.36 17.18 -128.04 17.21C-128.19 16.8 -128.45 16.25 -129.01 16.38L-129.1 16.76ZM-124.53 20.31L-124.5 19.33C-124.82 18.39 -125.13 17.51 -125.92 16.76C-126.3 16.79 -127.05 16.66 -127.21 17.1C-126.83 18.36 -126.04 20.22 -124.53 20.31ZM-151.3 34.88C-151.43 34.22 -151.24 33.43 -151.68 32.9C-151.84 32.74 -152.12 32.83 -152.15 33.06C-152.37 33.65 -152.18 34.34 -151.84 34.85C-151.68 35.01 -151.49 35.01 -151.3 34.88ZM-149.7 36.17C-149.95 35.13 -149.25 33.43 -150.39 32.87C-150.77 33.59 -150.45 34.78 -150.48 35.76C-150.48 36.14 -150.01 36.33 -149.7 36.17ZM-152.54 35.79C-153.2 34.94 -152.24 32.52 -154.04 33.06C-155.21 34.13 -153.38 34.82 -153.16 35.89C-153 35.95 -152.63 36.05 -152.54 35.79ZM-149.16 33.28C-149.22 34.25 -149.16 35.13 -149 36.01C-148.75 36.07 -148.38 36.24 -148.15 35.95C-148.38 35.04 -147.74 33.24 -149.16 33.28ZM-147.39 34.19C-147.43 35.01 -147.55 35.89 -147.11 36.52C-146.57 36.39 -146.89 35.6 -146.76 35.13C-147.05 34.82 -146.73 34.06 -147.39 34.19ZM-155.37 34.28C-155.59 34.6 -155.74 34.94 -155.78 35.32C-155.81 36.27 -155.08 36.89 -154.61 37.62C-154.23 37.52 -153.79 37.65 -153.51 37.27C-153.89 36.2 -154.33 34.98 -155.37 34.28ZM-150.67 38.03L-150.64 37.56L-150.92 37.08C-152.24 36.93 -153.38 37.65 -154.11 38.72C-154.26 39.04 -154.14 39.38 -154.04 39.63C-153 38.85 -152.06 37.81 -150.67 38.03ZM-147.68 37.81C-147.77 37.18 -148.46 37.27 -148.97 37.21C-149.41 37.3 -149.91 37.56 -149.82 38.09C-149.66 38.66 -149.38 39.16 -148.81 39.35C-148.24 38.98 -147.49 38.57 -147.68 37.81ZM-146.73 38.22C-147.27 38.34 -147.3 39.04 -147.3 39.54C-147.24 39.79 -146.98 39.98 -146.73 39.95C-146.39 39.7 -146.39 39.19 -146.35 38.75C-146.48 38.57 -146.39 38.16 -146.73 38.22ZM-144.69 39.79C-144.78 39.51 -144.91 38.91 -145.41 39C-146.13 39.7 -145.38 40.96 -145.88 41.71C-145.66 42.02 -145.82 42.59 -145.31 42.65C-144.3 42.18 -144.88 40.74 -144.69 39.79ZM-150.48 39.16C-151.02 39 -151.59 38.91 -151.99 39.22C-151.68 41.02 -149.95 45.8 -149.25 45.83C-148.81 44.41 -149.03 43.28 -148.91 41.71C-149.22 40.7 -149.54 39.73 -150.48 39.16ZM-144.12 39.38L-144.21 40.26L-143.62 40.36L-143.46 39.86C-143.67 39.66 -143.8 39.29 -144.12 39.38ZM-152.91 39.73C-153.2 40.04 -153.44 40.42 -153.57 40.77C-153.5 41.67 -153.29 42.56 -152.95 43.39C-152.56 44.34 -151.99 45.2 -151.25 45.91C-151.15 46 -151.05 46.1 -150.96 46.18C-150.74 46.09 -150.39 46.09 -150.55 45.8C-151.4 44.7 -152.59 40.42 -152.91 39.73ZM-148.02 40.77C-148.02 42.25 -147.83 43.85 -148.43 45.11C-148.52 45.39 -148.65 46.15 -148.09 46.05L-148.06 45.8C-147.17 45.08 -146.83 43.82 -146.73 42.59C-146.95 41.81 -146.64 39.79 -148.02 40.77ZM-156.66 47.55C-157.24 48.07 -157.92 48.54 -159.44 48.54L-161.23 52.52L-159.33 52.52C-158.6 52.52 -157.29 51.74 -156.19 50.43C-155.09 49.12 -152.19 45.96 -152.19 45.96L-153.37 44.28C-153.37 44.28 -156.08 47.03 -156.66 47.55ZM-177.04 52.52L-174.47 52.52L-172.26 48.54L-174.82 48.54L-177.04 52.52ZM-128.62 18C-128.99 18.37 -146.36 36.59 -146.36 36.59C-146.46 36.73 -146.49 36.86 -146.45 37C-146.36 37.39 -145.79 37.76 -145.33 37.87C-145.1 37.92 -144.89 37.91 -144.79 37.81C-144.43 37.45 -128.62 19.91 -127.8 18.91C-126.98 17.91 -128.25 17.64 -128.62 18ZM-120.59 10.62C-119.86 9.89 -121.05 9.61 -121.32 9.8C-121.6 9.98 -121.87 10.25 -122.33 10.71C-123.46 11.85 -122.01 12.03 -120.59 10.62Z" />
	<path id="Path 132 copy 3" fill-rule="evenodd" class="shp0" d="M-139.53 63.88L-139.1 64.8L-139.55 64.8L-139.95 63.92L-140.25 63.92L-140.25 64.8L-140.65 64.8L-140.65 62.64L-139.74 62.64C-139.39 62.64 -139.1 62.93 -139.1 63.28C-139.1 63.56 -139.28 63.8 -139.53 63.88ZM-139.5 63.28C-139.5 63.15 -139.61 63.04 -139.74 63.04L-140.25 63.04L-140.25 63.52L-139.74 63.52C-139.61 63.52 -139.5 63.41 -139.5 63.28ZM55.9 24.67C55.48 25.83 54.19 28.26 52.22 30.29C53.02 30.24 53.94 30.44 54.52 30.6C52.87 33.35 50.28 35.72 49.7 36.16C50.55 36.22 51.33 36.35 51.91 36.76C51.09 37.96 49.41 39.57 47.67 40.93C48.25 41.01 48.74 40.88 49.35 41.26C48.97 41.98 46.29 44.3 43.5 45.55C44.16 45.85 46.12 46.76 47.14 47.95C46.26 48.75 44.95 49.79 43.9 50.14C45.27 50.66 47.13 51.46 48.23 52.44C47.71 52.96 45.99 53.65 45.11 53.76C45.96 54 49.99 56.81 50.42 57.66C49.26 58.07 47.3 58.84 42.59 58.01C43.23 58.62 43.79 59.51 44.08 60.38C43.12 60.82 40.42 61.05 35.83 59.71C36.45 60.36 37.01 61.24 37.37 62.03C35.99 62.19 32.34 61.65 30.97 60.92C29.92 60.36 29.71 60.45 29.49 60.8C29.28 61.16 29.63 62.41 31.19 64.15L29.25 65.62C28.75 64.94 28.45 64.12 28.18 62.94C27.95 62 27.99 61.89 27.75 61.43C27.52 60.97 27.24 60.68 26.31 60.92C24.67 61.73 22.69 62.28 20.73 62.37C20.69 61.67 21.35 60.6 22.05 59.89C17.45 61.23 16.2 60.96 14.06 60.8C14.1 60.27 14.37 59.35 14.53 58.95C11.5 59.64 7.65 59.45 6.5 59.04C7.75 57.39 11 55.03 11.85 54.78C10.97 54.67 9.48 54.11 8.64 53.6C9.74 52.62 12.4 51.28 13.14 51.17C12.03 50.61 10.72 49.8 9.84 49C10.91 47.87 12.93 46.87 13.59 46.57C10.7 45.37 8.16 43.04 7.75 42.47C8.28 42.22 9 42.19 9.57 42.11C7.9 40.99 5.87 39.1 5.05 37.9C5.62 37.49 6.76 37.48 7.39 37.45C6.81 37.01 4.41 34.44 2.84 31.63C3.49 31.43 4.36 31.33 5.16 31.38C3.29 29.14 2.15 26.68 1.84 25.58C2.28 25.36 2.68 25.34 3.24 25.31C2.33 24.19 1.51 21.53 1.68 20.9C2.88 20.74 5.17 21.82 5.47 22.12C5.42 21.82 5.45 21.38 5.56 21.08C6.66 21.32 8.01 22.43 8.39 22.7C8.34 22.27 8.46 21.79 8.6 21.43C10.41 22.42 11.82 24.46 12.21 25C12.14 24.33 12.38 23.87 12.52 23.33C13.48 24.56 15.79 27.24 16.53 28.03C17.28 28.83 18.38 29.25 18.9 28.88C19.44 28.51 19.6 27.65 19.3 26.81C19 25.96 18.11 24.05 17.94 22.61C18.52 22.61 19.4 22.88 19.93 23.01C18.63 20.26 18.7 17.97 18.68 16.77C20.05 17.07 20.65 17.59 21.61 18.03C21.2 16.3 20.84 12.91 21.67 10.44C23.34 11.17 23.96 12.03 24.6 12.82C24.18 9.11 24.73 6.93 25.17 5.86C25.86 6.38 26.26 6.63 26.75 7.31L26.69 7.11C27.2 4.95 27.99 3.34 29.01 2.25C30.08 3.27 30.83 5.08 31.3 7.16C31.73 6.49 32.03 6.28 32.91 5.95C33.35 7.02 33.76 9.36 33.18 12.8C33.81 12.01 34.55 11.1 36.12 10.41C37.14 12.76 36.36 16.19 36.03 18C36.99 17.56 37.65 17.18 39.02 16.88C39.09 18.24 38.77 20.12 37.48 22.88C38 22.75 38.89 22.59 39.47 22.59C39.36 23.86 38.1 26.23 37.95 27.12C37.75 28.33 38.24 28.57 38.6 28.79C39.17 29.15 40 28.7 40.94 27.75C41.7 26.97 43.64 24.51 44.86 23.22C45 23.76 45.1 23.95 45.15 24.22C45.78 23.57 47.12 21.45 48.9 20.45C49.04 20.81 49.12 21.08 49.12 21.54C49.51 21.27 50.95 20.34 52.05 20.09C52.14 20.5 52 21.05 51.87 21.66C52.17 21.35 54.39 19.94 55.93 20.16C55.93 21.14 55.27 23.32 54.37 24.44C54.79 24.49 55.47 24.45 55.9 24.67ZM51.32 30.76C53.03 28.71 54.44 26.01 54.75 25.24C54.33 25.01 53.89 25.12 53.55 25.03C54.34 23.69 54.97 22.26 54.97 21.19C53.71 21.42 52.7 21.53 51.22 22.85C51.27 22.62 51.39 21.7 51.35 21.28C50.61 21.38 49.44 22.26 48.65 22.88C48.69 22.65 48.62 22.31 48.52 21.99C47.6 22.17 45.34 25.09 44.87 25.64C44.78 25.32 44.61 25.13 44.57 24.53C44.31 25.02 42.51 27.2 40.43 28.77C39.69 29.33 38.82 29.35 38.28 29.14C36.66 28.49 38 25.22 38.59 23.4C38.22 23.4 37.12 23.58 36.65 23.58C37.4 21.79 38.11 19.27 38.16 18.03C37.37 18.17 36.77 18.4 35.43 18.86C35.95 15.3 35.84 13.29 35.43 12.05C34.5 12.37 33.59 13 32.69 14.01C32.87 11.61 32.87 8.56 32.29 7.34C31.73 7.58 31.47 7.91 31.01 8.5C30.92 6.98 29.63 4.75 29.07 4.21C28.52 4.86 27.56 6.37 26.95 8.62C26.58 8.09 26.35 7.8 25.75 7.45C25.47 8.55 24.98 11.59 25.04 13.98C24.03 13.25 23.31 12.63 22.38 12.3C22.09 13.74 21.96 15.59 22.16 18.98C20.82 18.52 20.35 18.33 19.56 18.19C19.6 19.44 20.01 22.11 20.75 23.91C20.26 23.75 19.57 23.53 18.99 23.64C19 24.54 19.7 26.07 19.84 27.34C19.93 28.2 19.59 28.91 18.99 29.24C18.48 29.52 17.66 29.46 17.03 28.99C14.95 27.45 13.44 25.63 12.9 24.91C12.72 25.29 12.64 25.82 12.54 26.14C12.04 25.65 9.98 23.15 9.11 22.86C9.02 23.18 9 23.46 8.95 23.8C7.86 23.01 6.84 22.44 6.1 22.35C6.07 22.75 6.14 22.97 6.03 23.22C4.97 22.43 3.58 22.08 2.8 22.01C2.73 23.1 3.21 24.45 4 25.78C3.58 25.83 3.26 25.89 2.89 26.07C3.11 26.85 4.53 29.89 6.01 31.83C5.03 31.87 4.67 32.02 4.02 32.21C4.43 33.01 5.83 35.42 8.28 37.72C7.64 37.85 6.69 37.9 6.32 38.36C6.97 39.33 8.69 40.95 10.49 42.29C10.12 42.47 9.41 42.59 9.04 42.87C9.55 43.33 11.13 44.99 14.33 46.5C13.06 47.35 11.99 47.89 10.98 49.03C11.52 49.65 12.7 50.46 13.82 51.1C12.83 51.75 11.27 52.57 10.05 53.53C10.72 53.89 11.96 54.4 12.74 54.58C12.1 54.95 9.1 57.4 8.26 58.42C9.19 58.6 12.86 58.79 15.44 58.28C14.97 58.98 14.99 59.69 14.97 60.11C17.44 60.58 20.22 60.06 23.18 59.14C22.73 59.82 22 60.59 21.68 61.33C23.24 61.29 24.43 61.22 25.61 60.74C26.53 60.4 27.91 60.27 28.22 61.46C28.6 62.93 29 63.98 29.51 64.62L30.24 64.04C29.94 63.48 29.69 63.16 29.54 62.75C29.02 61.31 29.01 60.73 29.32 60.42C29.65 60.09 30.25 60.15 30.95 60.42C32.14 60.9 34 61.5 36.19 61.27C35.86 60.53 35.29 59.76 34.78 59.16C38.34 60.11 41.5 60.02 42.91 59.75C42.77 59.29 42.05 58.15 41.47 57.26C43.65 57.69 47.57 57.41 48.49 57.23C47.66 56.22 44.44 53.98 43.89 53.52C45.06 53.36 45.99 52.8 46.59 52.48C45.64 51.62 43.89 50.73 42.79 50.21C43.9 49.56 45.18 48.58 45.82 47.97C45.08 47.09 43.65 46.22 42.45 45.55C45.36 43.98 47.43 42.11 47.94 41.65C47.17 41.47 46.8 41.43 46.38 41.28C48.31 39.69 49.99 38.14 50.64 37.17C50.06 36.8 49.39 36.64 48.74 36.5C51.19 34.2 52.95 31.77 53.28 31.22C52.63 31.04 52.1 30.9 51.32 30.76ZM36.35 48.17L33.3 48.17L33.3 42.68L34.49 42.68L34.49 47.17L36.35 47.17L36.35 48.17ZM42.46 35.26L41.28 34.88L39.45 40.29L38.39 39.95L40.22 34.53L38.95 34.12L39.27 33.13L42.78 34.27L42.46 35.26ZM33.8 38.97L32.64 38.78L33.77 32.14L35.07 32.36L36.05 36.51L36.71 32.64L37.87 32.84L36.74 39.49L35.59 39.3L34.52 34.78L33.8 38.97ZM15.92 42.18L13.37 37.06L12.18 37.67L11.7 36.74L14.98 35.05L15.46 35.98L14.36 36.55L16.91 41.67L15.92 42.18ZM37.51 42.68L38.78 42.68L38.78 42.69L40.78 42.69L40.78 43.71L38.67 43.71L38.67 44.75L40.11 44.75L40.11 45.85L38.67 45.85L38.67 47.14L40.78 47.14L40.78 48.17L37.51 48.17L37.51 42.68ZM22.15 50.92L22.15 51.95L23.59 51.95L23.59 53.05L22.15 53.05L22.15 54.34L24.26 54.34L24.26 55.37L20.99 55.37L20.99 49.88L24.26 49.89L24.26 50.92L22.15 50.92ZM33.5 50.97L33.5 52.27L34.99 52.27L34.99 53.3L33.5 53.3L33.5 55.35L32.3 55.36L32.3 49.88L35.53 49.89L35.53 50.99L33.5 50.97ZM38.56 51.57L41.24 52.83L41.24 54.57L40.43 55.37L38.27 55.37L37.45 54.57L37.45 53.56L38.6 53.56L38.6 54.34L40.14 54.34L40.14 53.46L37.45 52.2L37.45 50.69L38.27 49.89L40.43 49.89L41.16 50.6L41.16 51.57L40.05 51.57L40.05 50.9L38.56 50.9L38.56 51.57Z" />
</svg>