<svg xmlns="http://www.w3.org/2000/svg" viewBox="0 0 91 70" width="91" height="70">
	<style>
		tspan { white-space:pre }
		.shp0 { fill: #ffffff } 
		.shp1 { fill: #ea2227 } 
	</style>
	<path id="Path 124 copy 5" class="shp0" d="M228.59 262.81C228.59 262.81 227.32 264.23 225.78 267.99L223.14 269.18L222.63 270.04L225.46 268.81C225.46 268.81 224.16 272.08 223.83 273.2C223.83 273.2 222.68 273.95 220.05 274.91L219.8 275.55C219.8 275.55 221.99 274.84 223.52 273.96L222.1 278.5L221.88 279.19C221.88 279.19 221.77 279.5 222.03 279.5C222.29 279.5 222.29 279.32 222.29 279.32L223.91 274.52C223.91 274.52 224.9 276.74 225.82 277.67L226.21 277.29C226.21 277.29 224.54 275.39 224.28 273.78L225.76 269.68L227.17 272.02L227.42 271.23L226.05 269.06C226.05 269.06 226.81 266.68 227.5 265.37C228.19 264.05 228.51 263.54 228.51 263.54C228.51 263.54 228.74 263.17 228.59 262.81ZM-276.29 25.63C-276.4 25.8 -276.6 26.09 -276.78 26.36C-276.29 26.52 -275.79 26.72 -275.29 26.92C-274.77 27.14 -273.96 27.42 -273.09 27.73C-273.1 27.34 -273.12 26.9 -273.12 26.68C-273.61 26.52 -275.77 25.81 -276.29 25.63ZM-266.92 27.71C-267.29 28.58 -268.39 29.39 -268.63 29.57C-268.63 29.77 -268.67 30.01 -268.76 30.28C-268.96 30.85 -269.82 31.72 -271.55 31.42C-273.27 31.14 -273.95 30.85 -273.95 30.85C-273.95 30.85 -274.81 32.96 -276.72 32.19C-276.72 32.19 -277.01 34.78 -278.45 35.55C-279.89 36.31 -289.76 39.76 -289.76 39.76C-289.76 39.76 -289.86 39.97 -290.11 40.2L-292.25 43.91L-291.96 45.51C-291.96 45.51 -290.24 47.52 -290.24 48.96L-291.49 49.53L-291.75 49.53C-291.63 49.9 -291.49 50.34 -291.42 50.57L-289.72 50.57L-289.72 51.98L-296.89 51.98L-305.4 66.76L-314.74 50.9C-315.66 51.68 -316.61 52.16 -317.33 52.16L-319.07 52.17L-336.13 52.17L-333.2 46.9L-317.43 46.9C-317.32 46.9 -317.21 46.89 -317.11 46.89L-338.92 9.86L-327.72 9.86C-326.88 9.02 -326.29 8.43 -326.29 8.43C-326.29 8.43 -325.04 7.18 -324.57 5.84C-324.09 4.5 -323.61 3.26 -321.69 2.01C-319.77 0.77 -318.53 0.1 -317.28 -0.48C-316.03 -1.05 -314.3 -1.25 -312.87 0.29C-311.43 1.82 -310.66 2.49 -310.18 2.97C-309.7 3.45 -308.75 5.65 -305.96 4.5C-303.19 3.36 -299.06 1.15 -296.47 1.25C-293.89 1.34 -289.57 3.64 -288.13 5.27C-288.13 5.27 -286.99 4.26 -285.74 4.41C-284.68 4.53 -284.2 5.65 -283.24 7.57C-283.24 7.57 -281.04 8.14 -281.04 9.39C-281.04 9.39 -280.99 9.38 -280.91 9.38C-280.87 9.34 -280.83 9.3 -280.78 9.25C-280.3 8.77 -280.01 8.48 -279.68 8.26C-279.61 8.21 -279.53 8.18 -279.45 8.15C-279.51 7.97 -279.61 7.61 -279.35 7.42C-279.01 7.15 -278.19 6.84 -277.32 7.59C-276.58 8.24 -276.56 8.5 -276.56 8.5C-276.56 8.5 -275.93 9.25 -276.29 9.86L-272.66 9.86L-284.78 30.92C-284.75 31.06 -284.71 31.19 -284.68 31.33C-284.68 31.33 -283.15 31.9 -282.67 32.48C-282.67 32.48 -281.33 32.48 -280.65 32.38C-279.98 32.29 -279.89 32.29 -279.79 31.9C-279.69 31.52 -279.69 31.14 -279.89 30.47C-280.08 29.8 -280.37 26.44 -279.5 26.06C-279.25 25.95 -278.91 25.92 -278.52 25.95C-278.52 25.56 -278.51 25.06 -278.51 24.82C-278.91 24.68 -280.12 24.28 -280.12 24.28L-279.68 22.94L-266.72 27.23L-266.92 27.71ZM-295.49 49.53L-296.04 50.49L-293.78 50.49C-293.72 50.28 -293.61 49.87 -293.51 49.53L-295.49 49.53ZM-270.76 27.46C-270.89 27.65 -271.15 28 -271.37 28.31C-270.81 28.49 -270.29 28.67 -269.87 28.8C-269.95 28.35 -270.05 27.87 -270.09 27.68C-270.31 27.61 -270.5 27.55 -270.76 27.46ZM-293 49.53L-293.42 50.98L-297.45 50.98L-297.98 49.53L-298.79 49.53L-299.25 50.98L-300.6 50.98L-301.42 49.53L-301.96 49.53C-302.19 49.86 -302.78 50.78 -302.84 51.5L-290.2 51.5L-290.2 51.05L-291.77 51.05L-292.25 49.53L-293 49.53ZM-278.04 26.02C-277.79 26.07 -277.54 26.13 -277.27 26.21L-276.48 25.06L-272.65 26.32L-272.6 27.89C-272.35 27.98 -272.1 28.06 -271.85 28.15L-270.94 26.89L-269.66 27.31L-269.34 28.97C-269.08 29.06 -268.91 29.11 -268.86 29.13C-268.86 29.13 -268.86 29.13 -268.85 29.13C-268.56 28.91 -267.66 28.21 -267.37 27.52L-279.37 23.55L-279.51 23.98L-278.02 24.47L-278.04 26.02ZM-306.44 31.52C-305.34 32.22 -304.25 32.87 -303.18 33.44C-300.96 31.12 -296.13 26.04 -292.33 22.05C-293.49 20.51 -294.89 18.87 -296.57 17.15C-306.25 7.18 -312.94 12.89 -314.11 14.75C-316.9 19.16 -314.88 26.15 -306.44 31.52ZM-300.17 34.94C-294.44 37.55 -289.82 38.11 -288.32 36.41C-286.84 34.71 -286.76 30.48 -290.69 24.38C-293.98 28.06 -297.96 32.49 -300.17 34.94ZM-329.84 12.84C-330.6 13.7 -330.7 16.19 -330.7 16.19L-324.47 10.82L-326.96 15.42C-326.96 15.42 -322.74 13.51 -322.36 12.55C-322.36 12.55 -323.22 10.44 -325.14 8.53C-325.14 8.53 -329.07 11.98 -329.84 12.84ZM-270.99 29.71C-271.45 29.83 -271.78 30.13 -271.71 30.38C-271.66 30.64 -271.23 30.76 -270.77 30.65C-270.3 30.54 -269.98 30.24 -270.04 29.98C-270.1 29.72 -270.53 29.6 -270.99 29.71ZM-301.66 48.63C-301.5 48.83 -301.06 48.76 -300.69 48.47C-300.31 48.18 -300.14 47.77 -300.3 47.57C-300.46 47.35 -300.9 47.42 -301.28 47.72C-301.65 48.01 -301.83 48.42 -301.66 48.63ZM-321.26 5.73C-321.32 5.04 -320.54 4.56 -320.18 3.96C-320.54 3.49 -321.17 3.28 -321.67 3.55C-321.77 4.95 -322.19 6.24 -322.51 7.52C-321.8 8.06 -321.98 6.69 -321.2 6.66C-320.75 6.51 -320.51 6.93 -320.24 7.19C-320.09 7.58 -320.18 8.09 -320.48 8.42L-319.76 8.36C-319.46 8 -319.37 7.46 -319.52 7.02C-319.73 6.21 -320.69 6.15 -321.26 5.73ZM-284.58 6.6C-284.74 6.09 -284.99 5.62 -285.28 5.12C-285.47 4.99 -285.87 5.02 -285.81 5.37C-285.43 5.75 -285.28 6.69 -284.58 6.6ZM-284.61 8.17C-285.34 7.2 -286 6.19 -286.79 5.21C-287.07 5.21 -287.39 5.37 -287.45 5.69C-286.69 6.5 -285.81 7.32 -285.15 8.14C-285.02 8.26 -284.77 8.49 -284.61 8.17ZM-285.91 9.53C-285.72 9.65 -285.24 9.65 -285.3 9.28L-287.89 6.32C-288.24 6.09 -288.65 6.32 -288.83 6.66C-287.86 7.64 -286.72 8.39 -285.91 9.53ZM-286.28 9.78L-288.87 7.57C-289.27 7.16 -289.87 7.23 -290.06 7.86C-288.9 8.74 -287.61 9.3 -286.53 10.37C-286.22 10.41 -286.12 10 -286.28 9.78ZM-283.07 10.97C-282.63 10.31 -281.52 10.37 -281.81 9.4C-281.87 8.96 -282.47 8.64 -283.01 8.77C-284.96 10.06 -286.35 12.04 -286.6 14.09C-286.32 14.41 -285.94 14.44 -285.53 14.44C-284.67 13.36 -284.24 11.98 -283.07 10.97ZM-287.17 11.57C-286.95 11.54 -286.63 11.19 -286.85 10.91C-288.11 10.19 -289.28 9.21 -290.63 8.71C-290.85 8.93 -290.92 9.24 -290.88 9.56L-287.17 11.57ZM-287.76 12.71C-287.54 12.64 -287.29 12.36 -287.51 12.17C-288.68 11.57 -289.81 10.82 -291.07 10.37C-291.23 10.56 -291.45 10.91 -291.26 11.07C-290 11.45 -288.96 12.2 -287.76 12.71ZM-284.7 14.47C-284.52 14.91 -284.17 14.91 -283.73 14.78C-282.47 14.09 -281.59 12.74 -281.33 11.32C-281.37 11.1 -281.65 10.97 -281.84 10.91C-283.16 11.79 -283.98 13.17 -284.7 14.47ZM-280.36 11.45L-278.94 13.93C-279 12.9 -279.45 12.03 -280.05 11.23C-280.12 11.24 -280.19 11.25 -280.26 11.25L-280.36 11.45ZM-279.13 15.03C-279.1 13.93 -280.14 13.05 -280.71 12.07L-281.08 12.83L-279.57 15.09C-279.44 15.07 -279.22 15.16 -279.13 15.03ZM-288.58 13.11C-289.62 12.64 -290.63 12.11 -291.73 11.79L-291.83 12.07C-291.01 12.99 -289.84 13.15 -288.58 13.11ZM-281.9 14.25C-281.34 14.9 -281.34 16.1 -280.45 16.26C-280.23 15.35 -280.89 14.5 -281.43 13.84C-281.65 13.84 -281.87 14.02 -281.9 14.25ZM-282.98 15.19C-283 16.13 -282.31 16.98 -281.87 17.8L-281.34 17.9C-281.21 16.86 -282 16.13 -282.37 15.32L-282.98 15.19ZM-287.1 15.76C-287.05 15.96 -287.02 16.23 -286.93 16.42C-286.68 16.25 -286.36 16.18 -286.04 16.21C-286.19 15.8 -286.45 15.25 -287.01 15.38L-287.1 15.76ZM-282.53 19.31L-282.5 18.33C-282.82 17.39 -283.13 16.51 -283.92 15.76C-284.3 15.79 -285.05 15.66 -285.21 16.1C-284.83 17.36 -284.04 19.22 -282.53 19.31ZM-309.3 33.88C-309.43 33.22 -309.24 32.43 -309.68 31.9C-309.84 31.74 -310.12 31.83 -310.15 32.06C-310.37 32.65 -310.18 33.34 -309.84 33.85C-309.68 34.01 -309.49 34.01 -309.3 33.88ZM-307.7 35.17C-307.95 34.13 -307.25 32.43 -308.39 31.87C-308.77 32.59 -308.45 33.78 -308.48 34.76C-308.48 35.14 -308.01 35.33 -307.7 35.17ZM-310.54 34.79C-311.2 33.94 -310.24 31.52 -312.04 32.06C-313.21 33.13 -311.38 33.82 -311.16 34.89C-311 34.95 -310.63 35.05 -310.54 34.79ZM-307.16 32.28C-307.22 33.25 -307.16 34.13 -307 35.01C-306.75 35.07 -306.38 35.24 -306.15 34.95C-306.38 34.04 -305.74 32.24 -307.16 32.28ZM-305.39 33.19C-305.43 34.01 -305.55 34.89 -305.11 35.52C-304.57 35.39 -304.89 34.6 -304.76 34.13C-305.05 33.82 -304.73 33.06 -305.39 33.19ZM-313.37 33.28C-313.59 33.6 -313.74 33.94 -313.78 34.32C-313.81 35.27 -313.08 35.89 -312.61 36.62C-312.23 36.52 -311.79 36.65 -311.51 36.27C-311.89 35.2 -312.33 33.98 -313.37 33.28ZM-308.67 37.03L-308.64 36.56L-308.92 36.08C-310.24 35.93 -311.38 36.65 -312.11 37.72C-312.26 38.04 -312.14 38.38 -312.04 38.63C-311 37.85 -310.06 36.81 -308.67 37.03ZM-305.68 36.81C-305.77 36.18 -306.46 36.27 -306.97 36.21C-307.41 36.3 -307.91 36.56 -307.82 37.09C-307.66 37.66 -307.38 38.16 -306.81 38.35C-306.24 37.98 -305.49 37.57 -305.68 36.81ZM-304.73 37.22C-305.27 37.34 -305.3 38.04 -305.3 38.54C-305.24 38.79 -304.98 38.98 -304.73 38.95C-304.39 38.7 -304.39 38.19 -304.35 37.75C-304.48 37.57 -304.39 37.16 -304.73 37.22ZM-302.69 38.79C-302.78 38.51 -302.91 37.91 -303.41 38C-304.13 38.7 -303.38 39.96 -303.88 40.71C-303.66 41.02 -303.82 41.59 -303.31 41.65C-302.3 41.18 -302.88 39.74 -302.69 38.79ZM-308.48 38.16C-309.02 38 -309.59 37.91 -309.99 38.22C-309.68 40.02 -307.95 44.8 -307.25 44.83C-306.81 43.41 -307.03 42.28 -306.91 40.71C-307.22 39.7 -307.54 38.73 -308.48 38.16ZM-302.12 38.38L-302.21 39.26L-301.62 39.36L-301.46 38.86C-301.67 38.66 -301.8 38.29 -302.12 38.38ZM-310.91 38.73C-311.2 39.04 -311.44 39.42 -311.57 39.77C-311.5 40.67 -311.29 41.56 -310.95 42.39C-310.56 43.34 -309.99 44.2 -309.25 44.91C-309.15 45 -309.05 45.1 -308.96 45.18C-308.74 45.09 -308.39 45.09 -308.55 44.8C-309.4 43.7 -310.59 39.42 -310.91 38.73ZM-306.02 39.77C-306.02 41.25 -305.83 42.85 -306.43 44.11C-306.52 44.39 -306.65 45.15 -306.09 45.05L-306.06 44.8C-305.17 44.08 -304.83 42.82 -304.73 41.59C-304.95 40.81 -304.64 38.79 -306.02 39.77ZM-314.66 46.55C-315.24 47.07 -315.92 47.54 -317.44 47.54L-319.23 51.52L-317.33 51.52C-316.6 51.52 -315.29 50.74 -314.19 49.43C-313.09 48.12 -310.19 44.96 -310.19 44.96L-311.37 43.28C-311.37 43.28 -314.08 46.03 -314.66 46.55ZM-335.04 51.52L-332.47 51.52L-330.26 47.54L-332.82 47.54L-335.04 51.52ZM-286.62 17C-286.99 17.37 -304.36 35.59 -304.36 35.59C-304.46 35.73 -304.49 35.86 -304.45 36C-304.36 36.39 -303.79 36.76 -303.33 36.87C-303.1 36.92 -302.89 36.91 -302.79 36.81C-302.43 36.45 -286.62 18.91 -285.8 17.91C-284.98 16.91 -286.25 16.64 -286.62 17ZM-278.59 9.62C-277.86 8.89 -279.05 8.61 -279.32 8.8C-279.6 8.98 -279.87 9.25 -280.33 9.71C-281.46 10.85 -280.01 11.03 -278.59 9.62Z" />
	<path id="Path 124 copy 6" class="shp0" d="M228.59 262.81C228.59 262.81 227.32 264.23 225.78 267.99L223.14 269.18L222.63 270.04L225.46 268.81C225.46 268.81 224.16 272.08 223.83 273.2C223.83 273.2 222.68 273.95 220.05 274.91L219.8 275.55C219.8 275.55 221.99 274.84 223.52 273.96L222.1 278.5L221.88 279.19C221.88 279.19 221.77 279.5 222.03 279.5C222.29 279.5 222.29 279.32 222.29 279.32L223.91 274.52C223.91 274.52 224.9 276.74 225.82 277.67L226.21 277.29C226.21 277.29 224.54 275.39 224.28 273.78L225.76 269.68L227.17 272.02L227.42 271.23L226.05 269.06C226.05 269.06 226.81 266.68 227.5 265.37C228.19 264.05 228.51 263.54 228.51 263.54C228.51 263.54 228.74 263.17 228.59 262.81ZM-276.29 25.63C-276.4 25.8 -276.6 26.09 -276.78 26.36C-276.29 26.52 -275.79 26.72 -275.29 26.92C-274.77 27.14 -273.96 27.42 -273.09 27.73C-273.1 27.34 -273.12 26.9 -273.12 26.68C-273.61 26.52 -275.77 25.81 -276.29 25.63ZM-266.92 27.71C-267.29 28.58 -268.39 29.39 -268.63 29.57C-268.63 29.77 -268.67 30.01 -268.76 30.28C-268.96 30.85 -269.82 31.72 -271.55 31.42C-273.27 31.14 -273.95 30.85 -273.95 30.85C-273.95 30.85 -274.81 32.96 -276.72 32.19C-276.72 32.19 -277.01 34.78 -278.45 35.55C-279.89 36.31 -289.76 39.76 -289.76 39.76C-289.76 39.76 -289.86 39.97 -290.11 40.2L-292.25 43.91L-291.96 45.51C-291.96 45.51 -290.24 47.52 -290.24 48.96L-291.49 49.53L-291.75 49.53C-291.63 49.9 -291.49 50.34 -291.42 50.57L-289.72 50.57L-289.72 51.98L-296.89 51.98L-305.4 66.76L-314.74 50.9C-315.66 51.68 -316.61 52.16 -317.33 52.16L-319.07 52.17L-336.13 52.17L-333.2 46.9L-317.43 46.9C-317.32 46.9 -317.21 46.89 -317.11 46.89L-338.92 9.86L-327.72 9.86C-326.88 9.02 -326.29 8.43 -326.29 8.43C-326.29 8.43 -325.04 7.18 -324.57 5.84C-324.09 4.5 -323.61 3.26 -321.69 2.01C-319.77 0.77 -318.53 0.1 -317.28 -0.48C-316.03 -1.05 -314.3 -1.25 -312.87 0.29C-311.43 1.82 -310.66 2.49 -310.18 2.97C-309.7 3.45 -308.75 5.65 -305.96 4.5C-303.19 3.36 -299.06 1.15 -296.47 1.25C-293.89 1.34 -289.57 3.64 -288.13 5.27C-288.13 5.27 -286.99 4.26 -285.74 4.41C-284.68 4.53 -284.2 5.65 -283.24 7.57C-283.24 7.57 -281.04 8.14 -281.04 9.39C-281.04 9.39 -280.99 9.38 -280.91 9.38C-280.87 9.34 -280.83 9.3 -280.78 9.25C-280.3 8.77 -280.01 8.48 -279.68 8.26C-279.61 8.21 -279.53 8.18 -279.45 8.15C-279.51 7.97 -279.61 7.61 -279.35 7.42C-279.01 7.15 -278.19 6.84 -277.32 7.59C-276.58 8.24 -276.56 8.5 -276.56 8.5C-276.56 8.5 -275.93 9.25 -276.29 9.86L-272.66 9.86L-284.78 30.92C-284.75 31.06 -284.71 31.19 -284.68 31.33C-284.68 31.33 -283.15 31.9 -282.67 32.48C-282.67 32.48 -281.33 32.48 -280.65 32.38C-279.98 32.29 -279.89 32.29 -279.79 31.9C-279.69 31.52 -279.69 31.14 -279.89 30.47C-280.08 29.8 -280.37 26.44 -279.5 26.06C-279.25 25.95 -278.91 25.92 -278.52 25.95C-278.52 25.56 -278.51 25.06 -278.51 24.82C-278.91 24.68 -280.12 24.28 -280.12 24.28L-279.68 22.94L-266.72 27.23L-266.92 27.71ZM-295.49 49.53L-296.04 50.49L-293.78 50.49C-293.72 50.28 -293.61 49.87 -293.51 49.53L-295.49 49.53ZM-270.76 27.46C-270.89 27.65 -271.15 28 -271.37 28.31C-270.81 28.49 -270.29 28.67 -269.87 28.8C-269.95 28.35 -270.05 27.87 -270.09 27.68C-270.31 27.61 -270.5 27.55 -270.76 27.46ZM-293 49.53L-293.42 50.98L-297.45 50.98L-297.98 49.53L-298.79 49.53L-299.25 50.98L-300.6 50.98L-301.42 49.53L-301.96 49.53C-302.19 49.86 -302.78 50.78 -302.84 51.5L-290.2 51.5L-290.2 51.05L-291.77 51.05L-292.25 49.53L-293 49.53ZM-278.04 26.02C-277.79 26.07 -277.54 26.13 -277.27 26.21L-276.48 25.06L-272.65 26.32L-272.6 27.89C-272.35 27.98 -272.1 28.06 -271.85 28.15L-270.94 26.89L-269.66 27.31L-269.34 28.97C-269.08 29.06 -268.91 29.11 -268.86 29.13C-268.86 29.13 -268.86 29.13 -268.85 29.13C-268.56 28.91 -267.66 28.21 -267.37 27.52L-279.37 23.55L-279.51 23.98L-278.02 24.47L-278.04 26.02ZM-306.44 31.52C-305.34 32.22 -304.25 32.87 -303.18 33.44C-300.96 31.12 -296.13 26.04 -292.33 22.05C-293.49 20.51 -294.89 18.87 -296.57 17.15C-306.25 7.18 -312.94 12.89 -314.11 14.75C-316.9 19.16 -314.88 26.15 -306.44 31.52ZM-300.17 34.94C-294.44 37.55 -289.82 38.11 -288.32 36.41C-286.84 34.71 -286.76 30.48 -290.69 24.38C-293.98 28.06 -297.96 32.49 -300.17 34.94ZM-329.84 12.84C-330.6 13.7 -330.7 16.19 -330.7 16.19L-324.47 10.82L-326.96 15.42C-326.96 15.42 -322.74 13.51 -322.36 12.55C-322.36 12.55 -323.22 10.44 -325.14 8.53C-325.14 8.53 -329.07 11.98 -329.84 12.84ZM-270.99 29.71C-271.45 29.83 -271.78 30.13 -271.71 30.38C-271.66 30.64 -271.23 30.76 -270.77 30.65C-270.3 30.54 -269.98 30.24 -270.04 29.98C-270.1 29.72 -270.53 29.6 -270.99 29.71ZM-301.66 48.63C-301.5 48.83 -301.06 48.76 -300.69 48.47C-300.31 48.18 -300.14 47.77 -300.3 47.57C-300.46 47.35 -300.9 47.42 -301.28 47.72C-301.65 48.01 -301.83 48.42 -301.66 48.63ZM-321.26 5.73C-321.32 5.04 -320.54 4.56 -320.18 3.96C-320.54 3.49 -321.17 3.28 -321.67 3.55C-321.77 4.95 -322.19 6.24 -322.51 7.52C-321.8 8.06 -321.98 6.69 -321.2 6.66C-320.75 6.51 -320.51 6.93 -320.24 7.19C-320.09 7.58 -320.18 8.09 -320.48 8.42L-319.76 8.36C-319.46 8 -319.37 7.46 -319.52 7.02C-319.73 6.21 -320.69 6.15 -321.26 5.73ZM-284.58 6.6C-284.74 6.09 -284.99 5.62 -285.28 5.12C-285.47 4.99 -285.87 5.02 -285.81 5.37C-285.43 5.75 -285.28 6.69 -284.58 6.6ZM-284.61 8.17C-285.34 7.2 -286 6.19 -286.79 5.21C-287.07 5.21 -287.39 5.37 -287.45 5.69C-286.69 6.5 -285.81 7.32 -285.15 8.14C-285.02 8.26 -284.77 8.49 -284.61 8.17ZM-285.91 9.53C-285.72 9.65 -285.24 9.65 -285.3 9.28L-287.89 6.32C-288.24 6.09 -288.65 6.32 -288.83 6.66C-287.86 7.64 -286.72 8.39 -285.91 9.53ZM-286.28 9.78L-288.87 7.57C-289.27 7.16 -289.87 7.23 -290.06 7.86C-288.9 8.74 -287.61 9.3 -286.53 10.37C-286.22 10.41 -286.12 10 -286.28 9.78ZM-283.07 10.97C-282.63 10.31 -281.52 10.37 -281.81 9.4C-281.87 8.96 -282.47 8.64 -283.01 8.77C-284.96 10.06 -286.35 12.04 -286.6 14.09C-286.32 14.41 -285.94 14.44 -285.53 14.44C-284.67 13.36 -284.24 11.98 -283.07 10.97ZM-287.17 11.57C-286.95 11.54 -286.63 11.19 -286.85 10.91C-288.11 10.19 -289.28 9.21 -290.63 8.71C-290.85 8.93 -290.92 9.24 -290.88 9.56L-287.17 11.57ZM-287.76 12.71C-287.54 12.64 -287.29 12.36 -287.51 12.17C-288.68 11.57 -289.81 10.82 -291.07 10.37C-291.23 10.56 -291.45 10.91 -291.26 11.07C-290 11.45 -288.96 12.2 -287.76 12.71ZM-284.7 14.47C-284.52 14.91 -284.17 14.91 -283.73 14.78C-282.47 14.09 -281.59 12.74 -281.33 11.32C-281.37 11.1 -281.65 10.97 -281.84 10.91C-283.16 11.79 -283.98 13.17 -284.7 14.47ZM-280.36 11.45L-278.94 13.93C-279 12.9 -279.45 12.03 -280.05 11.23C-280.12 11.24 -280.19 11.25 -280.26 11.25L-280.36 11.45ZM-279.13 15.03C-279.1 13.93 -280.14 13.05 -280.71 12.07L-281.08 12.83L-279.57 15.09C-279.44 15.07 -279.22 15.16 -279.13 15.03ZM-288.58 13.11C-289.62 12.64 -290.63 12.11 -291.73 11.79L-291.83 12.07C-291.01 12.99 -289.84 13.15 -288.58 13.11ZM-281.9 14.25C-281.34 14.9 -281.34 16.1 -280.45 16.26C-280.23 15.35 -280.89 14.5 -281.43 13.84C-281.65 13.84 -281.87 14.02 -281.9 14.25ZM-282.98 15.19C-283 16.13 -282.31 16.98 -281.87 17.8L-281.34 17.9C-281.21 16.86 -282 16.13 -282.37 15.32L-282.98 15.19ZM-287.1 15.76C-287.05 15.96 -287.02 16.23 -286.93 16.42C-286.68 16.25 -286.36 16.18 -286.04 16.21C-286.19 15.8 -286.45 15.25 -287.01 15.38L-287.1 15.76ZM-282.53 19.31L-282.5 18.33C-282.82 17.39 -283.13 16.51 -283.92 15.76C-284.3 15.79 -285.05 15.66 -285.21 16.1C-284.83 17.36 -284.04 19.22 -282.53 19.31ZM-309.3 33.88C-309.43 33.22 -309.24 32.43 -309.68 31.9C-309.84 31.74 -310.12 31.83 -310.15 32.06C-310.37 32.65 -310.18 33.34 -309.84 33.85C-309.68 34.01 -309.49 34.01 -309.3 33.88ZM-307.7 35.17C-307.95 34.13 -307.25 32.43 -308.39 31.87C-308.77 32.59 -308.45 33.78 -308.48 34.76C-308.48 35.14 -308.01 35.33 -307.7 35.17ZM-310.54 34.79C-311.2 33.94 -310.24 31.52 -312.04 32.06C-313.21 33.13 -311.38 33.82 -311.16 34.89C-311 34.95 -310.63 35.05 -310.54 34.79ZM-307.16 32.28C-307.22 33.25 -307.16 34.13 -307 35.01C-306.75 35.07 -306.38 35.24 -306.15 34.95C-306.38 34.04 -305.74 32.24 -307.16 32.28ZM-305.39 33.19C-305.43 34.01 -305.55 34.89 -305.11 35.52C-304.57 35.39 -304.89 34.6 -304.76 34.13C-305.05 33.82 -304.73 33.06 -305.39 33.19ZM-313.37 33.28C-313.59 33.6 -313.74 33.94 -313.78 34.32C-313.81 35.27 -313.08 35.89 -312.61 36.62C-312.23 36.52 -311.79 36.65 -311.51 36.27C-311.89 35.2 -312.33 33.98 -313.37 33.28ZM-308.67 37.03L-308.64 36.56L-308.92 36.08C-310.24 35.93 -311.38 36.65 -312.11 37.72C-312.26 38.04 -312.14 38.38 -312.04 38.63C-311 37.85 -310.06 36.81 -308.67 37.03ZM-305.68 36.81C-305.77 36.18 -306.46 36.27 -306.97 36.21C-307.41 36.3 -307.91 36.56 -307.82 37.09C-307.66 37.66 -307.38 38.16 -306.81 38.35C-306.24 37.98 -305.49 37.57 -305.68 36.81ZM-304.73 37.22C-305.27 37.34 -305.3 38.04 -305.3 38.54C-305.24 38.79 -304.98 38.98 -304.73 38.95C-304.39 38.7 -304.39 38.19 -304.35 37.75C-304.48 37.57 -304.39 37.16 -304.73 37.22ZM-302.69 38.79C-302.78 38.51 -302.91 37.91 -303.41 38C-304.13 38.7 -303.38 39.96 -303.88 40.71C-303.66 41.02 -303.82 41.59 -303.31 41.65C-302.3 41.18 -302.88 39.74 -302.69 38.79ZM-308.48 38.16C-309.02 38 -309.59 37.91 -309.99 38.22C-309.68 40.02 -307.95 44.8 -307.25 44.83C-306.81 43.41 -307.03 42.28 -306.91 40.71C-307.22 39.7 -307.54 38.73 -308.48 38.16ZM-302.12 38.38L-302.21 39.26L-301.62 39.36L-301.46 38.86C-301.67 38.66 -301.8 38.29 -302.12 38.38ZM-310.91 38.73C-311.2 39.04 -311.44 39.42 -311.57 39.77C-311.5 40.67 -311.29 41.56 -310.95 42.39C-310.56 43.34 -309.99 44.2 -309.25 44.91C-309.15 45 -309.05 45.1 -308.96 45.18C-308.74 45.09 -308.39 45.09 -308.55 44.8C-309.4 43.7 -310.59 39.42 -310.91 38.73ZM-306.02 39.77C-306.02 41.25 -305.83 42.85 -306.43 44.11C-306.52 44.39 -306.65 45.15 -306.09 45.05L-306.06 44.8C-305.17 44.08 -304.83 42.82 -304.73 41.59C-304.95 40.81 -304.64 38.79 -306.02 39.77ZM-314.66 46.55C-315.24 47.07 -315.92 47.54 -317.44 47.54L-319.23 51.52L-317.33 51.52C-316.6 51.52 -315.29 50.74 -314.19 49.43C-313.09 48.12 -310.19 44.96 -310.19 44.96L-311.37 43.28C-311.37 43.28 -314.08 46.03 -314.66 46.55ZM-335.04 51.52L-332.47 51.52L-330.26 47.54L-332.82 47.54L-335.04 51.52ZM-286.62 17C-286.99 17.37 -304.36 35.59 -304.36 35.59C-304.46 35.73 -304.49 35.86 -304.45 36C-304.36 36.39 -303.79 36.76 -303.33 36.87C-303.1 36.92 -302.89 36.91 -302.79 36.81C-302.43 36.45 -286.62 18.91 -285.8 17.91C-284.98 16.91 -286.25 16.64 -286.62 17ZM-278.59 9.62C-277.86 8.89 -279.05 8.61 -279.32 8.8C-279.6 8.98 -279.87 9.25 -280.33 9.71C-281.46 10.85 -280.01 11.03 -278.59 9.62Z" />
	<path id="Path 124 copy 7" class="shp0" d="M228.59 262.81C228.59 262.81 227.32 264.23 225.78 267.99L223.14 269.18L222.63 270.04L225.46 268.81C225.46 268.81 224.16 272.08 223.83 273.2C223.83 273.2 222.68 273.95 220.05 274.91L219.8 275.55C219.8 275.55 221.99 274.84 223.52 273.96L222.1 278.5L221.88 279.19C221.88 279.19 221.77 279.5 222.03 279.5C222.29 279.5 222.29 279.32 222.29 279.32L223.91 274.52C223.91 274.52 224.9 276.74 225.82 277.67L226.21 277.29C226.21 277.29 224.54 275.39 224.28 273.78L225.76 269.68L227.17 272.02L227.42 271.23L226.05 269.06C226.05 269.06 226.81 266.68 227.5 265.37C228.19 264.05 228.51 263.54 228.51 263.54C228.51 263.54 228.74 263.17 228.59 262.81ZM-276.29 25.63C-276.4 25.8 -276.6 26.09 -276.78 26.36C-276.29 26.52 -275.79 26.72 -275.29 26.92C-274.77 27.14 -273.96 27.42 -273.09 27.73C-273.1 27.34 -273.12 26.9 -273.12 26.68C-273.61 26.52 -275.77 25.81 -276.29 25.63ZM-266.92 27.71C-267.29 28.58 -268.39 29.39 -268.63 29.57C-268.63 29.77 -268.67 30.01 -268.76 30.28C-268.96 30.85 -269.82 31.72 -271.55 31.42C-273.27 31.14 -273.95 30.85 -273.95 30.85C-273.95 30.85 -274.81 32.96 -276.72 32.19C-276.72 32.19 -277.01 34.78 -278.45 35.55C-279.89 36.31 -289.76 39.76 -289.76 39.76C-289.76 39.76 -289.86 39.97 -290.11 40.2L-292.25 43.91L-291.96 45.51C-291.96 45.51 -290.24 47.52 -290.24 48.96L-291.49 49.53L-291.75 49.53C-291.63 49.9 -291.49 50.34 -291.42 50.57L-289.72 50.57L-289.72 51.98L-296.89 51.98L-305.4 66.76L-314.74 50.9C-315.66 51.68 -316.61 52.16 -317.33 52.16L-319.07 52.17L-336.13 52.17L-333.2 46.9L-317.43 46.9C-317.32 46.9 -317.21 46.89 -317.11 46.89L-338.92 9.86L-327.72 9.86C-326.88 9.02 -326.29 8.43 -326.29 8.43C-326.29 8.43 -325.04 7.18 -324.57 5.84C-324.09 4.5 -323.61 3.26 -321.69 2.01C-319.77 0.77 -318.53 0.1 -317.28 -0.48C-316.03 -1.05 -314.3 -1.25 -312.87 0.29C-311.43 1.82 -310.66 2.49 -310.18 2.97C-309.7 3.45 -308.75 5.65 -305.96 4.5C-303.19 3.36 -299.06 1.15 -296.47 1.25C-293.89 1.34 -289.57 3.64 -288.13 5.27C-288.13 5.27 -286.99 4.26 -285.74 4.41C-284.68 4.53 -284.2 5.65 -283.24 7.57C-283.24 7.57 -281.04 8.14 -281.04 9.39C-281.04 9.39 -280.99 9.38 -280.91 9.38C-280.87 9.34 -280.83 9.3 -280.78 9.25C-280.3 8.77 -280.01 8.48 -279.68 8.26C-279.61 8.21 -279.53 8.18 -279.45 8.15C-279.51 7.97 -279.61 7.61 -279.35 7.42C-279.01 7.15 -278.19 6.84 -277.32 7.59C-276.58 8.24 -276.56 8.5 -276.56 8.5C-276.56 8.5 -275.93 9.25 -276.29 9.86L-272.66 9.86L-284.78 30.92C-284.75 31.06 -284.71 31.19 -284.68 31.33C-284.68 31.33 -283.15 31.9 -282.67 32.48C-282.67 32.48 -281.33 32.48 -280.65 32.38C-279.98 32.29 -279.89 32.29 -279.79 31.9C-279.69 31.52 -279.69 31.14 -279.89 30.47C-280.08 29.8 -280.37 26.44 -279.5 26.06C-279.25 25.95 -278.91 25.92 -278.52 25.95C-278.52 25.56 -278.51 25.06 -278.51 24.82C-278.91 24.68 -280.12 24.28 -280.12 24.28L-279.68 22.94L-266.72 27.23L-266.92 27.71ZM-295.49 49.53L-296.04 50.49L-293.78 50.49C-293.72 50.28 -293.61 49.87 -293.51 49.53L-295.49 49.53ZM-270.76 27.46C-270.89 27.65 -271.15 28 -271.37 28.31C-270.81 28.49 -270.29 28.67 -269.87 28.8C-269.95 28.35 -270.05 27.87 -270.09 27.68C-270.31 27.61 -270.5 27.55 -270.76 27.46ZM-293 49.53L-293.42 50.98L-297.45 50.98L-297.98 49.53L-298.79 49.53L-299.25 50.98L-300.6 50.98L-301.42 49.53L-301.96 49.53C-302.19 49.86 -302.78 50.78 -302.84 51.5L-290.2 51.5L-290.2 51.05L-291.77 51.05L-292.25 49.53L-293 49.53ZM-278.04 26.02C-277.79 26.07 -277.54 26.13 -277.27 26.21L-276.48 25.06L-272.65 26.32L-272.6 27.89C-272.35 27.98 -272.1 28.06 -271.85 28.15L-270.94 26.89L-269.66 27.31L-269.34 28.97C-269.08 29.06 -268.91 29.11 -268.86 29.13C-268.86 29.13 -268.86 29.13 -268.85 29.13C-268.56 28.91 -267.66 28.21 -267.37 27.52L-279.37 23.55L-279.51 23.98L-278.02 24.47L-278.04 26.02ZM-306.44 31.52C-305.34 32.22 -304.25 32.87 -303.18 33.44C-300.96 31.12 -296.13 26.04 -292.33 22.05C-293.49 20.51 -294.89 18.87 -296.57 17.15C-306.25 7.18 -312.94 12.89 -314.11 14.75C-316.9 19.16 -314.88 26.15 -306.44 31.52ZM-300.17 34.94C-294.44 37.55 -289.82 38.11 -288.32 36.41C-286.84 34.71 -286.76 30.48 -290.69 24.38C-293.98 28.06 -297.96 32.49 -300.17 34.94ZM-329.84 12.84C-330.6 13.7 -330.7 16.19 -330.7 16.19L-324.47 10.82L-326.96 15.42C-326.96 15.42 -322.74 13.51 -322.36 12.55C-322.36 12.55 -323.22 10.44 -325.14 8.53C-325.14 8.53 -329.07 11.98 -329.84 12.84ZM-270.99 29.71C-271.45 29.83 -271.78 30.13 -271.71 30.38C-271.66 30.64 -271.23 30.76 -270.77 30.65C-270.3 30.54 -269.98 30.24 -270.04 29.98C-270.1 29.72 -270.53 29.6 -270.99 29.71ZM-301.66 48.63C-301.5 48.83 -301.06 48.76 -300.69 48.47C-300.31 48.18 -300.14 47.77 -300.3 47.57C-300.46 47.35 -300.9 47.42 -301.28 47.72C-301.65 48.01 -301.83 48.42 -301.66 48.63ZM-321.26 5.73C-321.32 5.04 -320.54 4.56 -320.18 3.96C-320.54 3.49 -321.17 3.28 -321.67 3.55C-321.77 4.95 -322.19 6.24 -322.51 7.52C-321.8 8.06 -321.98 6.69 -321.2 6.66C-320.75 6.51 -320.51 6.93 -320.24 7.19C-320.09 7.58 -320.18 8.09 -320.48 8.42L-319.76 8.36C-319.46 8 -319.37 7.46 -319.52 7.02C-319.73 6.21 -320.69 6.15 -321.26 5.73ZM-284.58 6.6C-284.74 6.09 -284.99 5.62 -285.28 5.12C-285.47 4.99 -285.87 5.02 -285.81 5.37C-285.43 5.75 -285.28 6.69 -284.58 6.6ZM-284.61 8.17C-285.34 7.2 -286 6.19 -286.79 5.21C-287.07 5.21 -287.39 5.37 -287.45 5.69C-286.69 6.5 -285.81 7.32 -285.15 8.14C-285.02 8.26 -284.77 8.49 -284.61 8.17ZM-285.91 9.53C-285.72 9.65 -285.24 9.65 -285.3 9.28L-287.89 6.32C-288.24 6.09 -288.65 6.32 -288.83 6.66C-287.86 7.64 -286.72 8.39 -285.91 9.53ZM-286.28 9.78L-288.87 7.57C-289.27 7.16 -289.87 7.23 -290.06 7.86C-288.9 8.74 -287.61 9.3 -286.53 10.37C-286.22 10.41 -286.12 10 -286.28 9.78ZM-283.07 10.97C-282.63 10.31 -281.52 10.37 -281.81 9.4C-281.87 8.96 -282.47 8.64 -283.01 8.77C-284.96 10.06 -286.35 12.04 -286.6 14.09C-286.32 14.41 -285.94 14.44 -285.53 14.44C-284.67 13.36 -284.24 11.98 -283.07 10.97ZM-287.17 11.57C-286.95 11.54 -286.63 11.19 -286.85 10.91C-288.11 10.19 -289.28 9.21 -290.63 8.71C-290.85 8.93 -290.92 9.24 -290.88 9.56L-287.17 11.57ZM-287.76 12.71C-287.54 12.64 -287.29 12.36 -287.51 12.17C-288.68 11.57 -289.81 10.82 -291.07 10.37C-291.23 10.56 -291.45 10.91 -291.26 11.07C-290 11.45 -288.96 12.2 -287.76 12.71ZM-284.7 14.47C-284.52 14.91 -284.17 14.91 -283.73 14.78C-282.47 14.09 -281.59 12.74 -281.33 11.32C-281.37 11.1 -281.65 10.97 -281.84 10.91C-283.16 11.79 -283.98 13.17 -284.7 14.47ZM-280.36 11.45L-278.94 13.93C-279 12.9 -279.45 12.03 -280.05 11.23C-280.12 11.24 -280.19 11.25 -280.26 11.25L-280.36 11.45ZM-279.13 15.03C-279.1 13.93 -280.14 13.05 -280.71 12.07L-281.08 12.83L-279.57 15.09C-279.44 15.07 -279.22 15.16 -279.13 15.03ZM-288.58 13.11C-289.62 12.64 -290.63 12.11 -291.73 11.79L-291.83 12.07C-291.01 12.99 -289.84 13.15 -288.58 13.11ZM-281.9 14.25C-281.34 14.9 -281.34 16.1 -280.45 16.26C-280.23 15.35 -280.89 14.5 -281.43 13.84C-281.65 13.84 -281.87 14.02 -281.9 14.25ZM-282.98 15.19C-283 16.13 -282.31 16.98 -281.87 17.8L-281.34 17.9C-281.21 16.86 -282 16.13 -282.37 15.32L-282.98 15.19ZM-287.1 15.76C-287.05 15.96 -287.02 16.23 -286.93 16.42C-286.68 16.25 -286.36 16.18 -286.04 16.21C-286.19 15.8 -286.45 15.25 -287.01 15.38L-287.1 15.76ZM-282.53 19.31L-282.5 18.33C-282.82 17.39 -283.13 16.51 -283.92 15.76C-284.3 15.79 -285.05 15.66 -285.21 16.1C-284.83 17.36 -284.04 19.22 -282.53 19.31ZM-309.3 33.88C-309.43 33.22 -309.24 32.43 -309.68 31.9C-309.84 31.74 -310.12 31.83 -310.15 32.06C-310.37 32.65 -310.18 33.34 -309.84 33.85C-309.68 34.01 -309.49 34.01 -309.3 33.88ZM-307.7 35.17C-307.95 34.13 -307.25 32.43 -308.39 31.87C-308.77 32.59 -308.45 33.78 -308.48 34.76C-308.48 35.14 -308.01 35.33 -307.7 35.17ZM-310.54 34.79C-311.2 33.94 -310.24 31.52 -312.04 32.06C-313.21 33.13 -311.38 33.82 -311.16 34.89C-311 34.95 -310.63 35.05 -310.54 34.79ZM-307.16 32.28C-307.22 33.25 -307.16 34.13 -307 35.01C-306.75 35.07 -306.38 35.24 -306.15 34.95C-306.38 34.04 -305.74 32.24 -307.16 32.28ZM-305.39 33.19C-305.43 34.01 -305.55 34.89 -305.11 35.52C-304.57 35.39 -304.89 34.6 -304.76 34.13C-305.05 33.82 -304.73 33.06 -305.39 33.19ZM-313.37 33.28C-313.59 33.6 -313.74 33.94 -313.78 34.32C-313.81 35.27 -313.08 35.89 -312.61 36.62C-312.23 36.52 -311.79 36.65 -311.51 36.27C-311.89 35.2 -312.33 33.98 -313.37 33.28ZM-308.67 37.03L-308.64 36.56L-308.92 36.08C-310.24 35.93 -311.38 36.65 -312.11 37.72C-312.26 38.04 -312.14 38.38 -312.04 38.63C-311 37.85 -310.06 36.81 -308.67 37.03ZM-305.68 36.81C-305.77 36.18 -306.46 36.27 -306.97 36.21C-307.41 36.3 -307.91 36.56 -307.82 37.09C-307.66 37.66 -307.38 38.16 -306.81 38.35C-306.24 37.98 -305.49 37.57 -305.68 36.81ZM-304.73 37.22C-305.27 37.34 -305.3 38.04 -305.3 38.54C-305.24 38.79 -304.98 38.98 -304.73 38.95C-304.39 38.7 -304.39 38.19 -304.35 37.75C-304.48 37.57 -304.39 37.16 -304.73 37.22ZM-302.69 38.79C-302.78 38.51 -302.91 37.91 -303.41 38C-304.13 38.7 -303.38 39.96 -303.88 40.71C-303.66 41.02 -303.82 41.59 -303.31 41.65C-302.3 41.18 -302.88 39.74 -302.69 38.79ZM-308.48 38.16C-309.02 38 -309.59 37.91 -309.99 38.22C-309.68 40.02 -307.95 44.8 -307.25 44.83C-306.81 43.41 -307.03 42.28 -306.91 40.71C-307.22 39.7 -307.54 38.73 -308.48 38.16ZM-302.12 38.38L-302.21 39.26L-301.62 39.36L-301.46 38.86C-301.67 38.66 -301.8 38.29 -302.12 38.38ZM-310.91 38.73C-311.2 39.04 -311.44 39.42 -311.57 39.77C-311.5 40.67 -311.29 41.56 -310.95 42.39C-310.56 43.34 -309.99 44.2 -309.25 44.91C-309.15 45 -309.05 45.1 -308.96 45.18C-308.74 45.09 -308.39 45.09 -308.55 44.8C-309.4 43.7 -310.59 39.42 -310.91 38.73ZM-306.02 39.77C-306.02 41.25 -305.83 42.85 -306.43 44.11C-306.52 44.39 -306.65 45.15 -306.09 45.05L-306.06 44.8C-305.17 44.08 -304.83 42.82 -304.73 41.59C-304.95 40.81 -304.64 38.79 -306.02 39.77ZM-314.66 46.55C-315.24 47.07 -315.92 47.54 -317.44 47.54L-319.23 51.52L-317.33 51.52C-316.6 51.52 -315.29 50.74 -314.19 49.43C-313.09 48.12 -310.19 44.96 -310.19 44.96L-311.37 43.28C-311.37 43.28 -314.08 46.03 -314.66 46.55ZM-335.04 51.52L-332.47 51.52L-330.26 47.54L-332.82 47.54L-335.04 51.52ZM-286.62 17C-286.99 17.37 -304.36 35.59 -304.36 35.59C-304.46 35.73 -304.49 35.86 -304.45 36C-304.36 36.39 -303.79 36.76 -303.33 36.87C-303.1 36.92 -302.89 36.91 -302.79 36.81C-302.43 36.45 -286.62 18.91 -285.8 17.91C-284.98 16.91 -286.25 16.64 -286.62 17ZM-278.59 9.62C-277.86 8.89 -279.05 8.61 -279.32 8.8C-279.6 8.98 -279.87 9.25 -280.33 9.71C-281.46 10.85 -280.01 11.03 -278.59 9.62Z" />
	<path id="Path 147 copy" class="shp0" d="M399.69 304.7L400.23 304.7L400.23 306.11L400.44 306.11L400.44 304.7L400.98 304.7L400.98 304.51L399.69 304.51L399.69 304.7ZM401.94 305.86L401.48 304.51L401.17 304.51L401.17 306.11L401.38 306.11L401.38 304.77L401.83 306.11L402.04 306.11L402.49 304.77L402.49 306.11L402.7 306.11L402.7 304.51L402.39 304.51L401.94 305.86ZM3.74 37.95C5.11 34.83 6.61 31.43 9.47 28.5C10.71 27.22 15.9 21.89 21.97 22.24C23.57 22.34 25.32 22.83 27.29 21.85C28.69 21.15 29.23 20.2 30.49 18.79C30.49 18.79 31.84 17.26 36.08 14.13C39.96 11.25 45.09 12.16 54.84 11.87C64.32 11.58 69.06 11.44 73.6 9.47C79.2 7.04 85.97 2.02 85.97 2.02C85.97 2.02 85.3 4.79 86.37 6.01C87.23 7 88.61 6.26 89.43 7.21C90.21 8.11 89.77 9.7 89.56 10.4C87.57 17.22 86.57 20.63 85.84 21.98C83.64 26.03 81.37 30.22 76.92 35.02C73.62 38.57 67.95 44.69 59.63 47.92C59.63 47.92 51.38 51.12 46.45 55.24C45.91 55.7 45.39 56.17 45.39 56.17C42.37 58.95 40.74 61.57 40.33 62.16C38.03 65.53 30.71 68.44 23.7 68.01C12.65 67.34 6.65 58.6 6.01 57.64C2.98 53.06 0.87 46.21 2.68 40.61C2.97 39.69 3.41 38.71 3.74 37.95Z" />
	<path id="Path 148 copy" fill-rule="evenodd" class="shp1" d="M90.39 13.03C90.1 14.21 88.53 17.77 87.68 19.05C88.2 19.11 88.73 19.39 89.07 19.81C89.31 20.1 89.42 20.41 89.42 20.75C89.42 20.81 89.42 20.88 89.41 20.94C88.98 23.41 87.17 25.08 85.04 26.84C85 26.88 84.97 26.94 84.97 27.01C84.97 27.14 85.01 27.3 85.05 27.46C85.09 27.64 85.12 27.79 85.12 27.95L85.12 28C85.12 28.65 84.74 29.26 84.32 29.79C82.58 32.07 80.36 33.46 78.01 34.93C78.01 34.93 77.81 35.06 77.78 35.07C77.81 35.32 77.83 35.55 77.83 35.83C77.83 36.48 77.68 37.16 77.14 37.74C75.67 39.31 73.65 40.35 71.87 41.29C71.87 41.29 70.98 41.74 70.93 41.77C71.07 42.07 71.13 42.4 71.13 42.72C71.13 43.18 71.01 43.63 70.74 44.08C69.49 46.19 65.62 47.76 60.88 48.09L60.88 48.26C60.88 51.35 57.1 52.07 53.37 52.37C53.31 53.09 52.93 54.05 52.25 54.51C50.94 55.38 49.32 55.77 47.39 55.66L47.36 55.66C45.35 59.66 42.28 63.05 38.48 65.45C34.58 67.91 30.06 69.21 25.41 69.21C11.89 69.21 0.87 58.22 0.87 44.68C0.87 31.17 11.89 20.17 25.41 20.17C26.28 20.17 27.17 20.21 28.04 20.3C28.07 20.25 28.2 19.9 28.2 19.9C31.8 13.94 38.76 10.3 46.35 10.4C47.84 10.41 49.33 10.47 50.79 10.51C55.58 10.67 60.55 10.83 65.58 9.96L66.67 9.77C68.61 9.45 70.43 9.14 72.27 8.49C73.84 7.91 75.32 7.32 76.78 6.7C79.2 5.66 81.19 4.16 83.31 2.6C84.13 1.99 84.99 1.36 85.88 0.74C86.36 0.41 86.94 0.28 87.41 0.38C87.74 0.44 88.02 0.62 88.21 0.92C88.71 1.73 88.84 2.73 88.84 3.6C88.84 4.23 88.77 4.77 88.73 5.14C88.91 5.18 89.92 5.41 90.32 6.03C90.53 6.35 90.7 6.74 90.83 7.27C90.97 7.86 91.03 8.44 91.03 9.03C91.03 10.31 90.75 11.62 90.39 13.03ZM70.36 36.64C70.32 36.59 70.33 36.39 70.36 36.38C73.98 34.99 77.55 33.42 80.17 30.32C80.28 30.18 80.12 29.99 79.98 29.97C78.92 29.76 77.93 29.71 76.89 29.73C76.89 29.59 76.85 29.39 76.91 29.35C79.63 27.77 82.02 26.13 84.06 23.74C84.12 23.67 84.17 23.4 83.98 23.38C82.85 23.29 81.73 23.41 80.6 23.33C80.42 23.31 80.45 23.03 80.52 22.97C85.01 19.41 88.34 14.63 88.4 8.96C88.4 8.88 88.28 8.79 88.23 8.87C85.12 12.95 81.44 16.7 76.27 17.34C76.02 17.36 76.01 16.93 76.2 16.8C80.91 13.74 84.37 9.64 85.51 4.12C85.52 4.06 85.41 3.97 85.34 4.03C81.97 7.55 77.93 10.01 73.27 11.39C64.91 13.83 56.36 13 47.88 13.03C44.52 13.04 41.13 13.33 38.04 14.78C34.22 16.58 30.92 19.46 29.16 23.35L29.11 23.46C27.91 23.25 26.69 23.14 25.44 23.14C13.52 23.14 3.85 32.8 3.85 44.72C3.85 56.64 13.52 66.3 25.44 66.3C34.58 66.3 42.39 60.61 45.54 52.59L45.84 52.58C46.91 52.63 48.06 52.67 49.11 52.25C49.23 52.2 49.6 51.95 49.46 51.69C49.3 51.37 48.78 50.72 48.61 50.3C48.57 50.2 48.55 50.01 48.7 50.01C51.32 49.99 54.13 50.16 56.54 49.2C55.94 48.2 54.54 47.46 53.77 46.47C53.6 46.25 53.94 46.13 54.06 46.13C57.71 46.11 61.12 46.1 64.34 44.47C64.47 44.4 64.47 44.27 64.39 44.2C63.69 43.46 62.8 42.75 61.97 42.17C66.04 41.35 70.53 39.31 71.82 38.17C71.95 38.04 71.86 37.92 71.8 37.83C71.45 37.43 70.54 36.82 70.36 36.64ZM32.5 24.61L30.71 23.89L30.72 23.85C32.66 18.13 38.99 14.58 47.65 14.4C49.51 14.37 51.43 14.35 53.44 14.34C60.08 14.31 66.95 14.28 71.18 13.12C76.2 11.75 79.39 10.44 82.9 7.08C83.2 6.77 83.41 6.64 83.5 6.72C83.54 6.74 83.63 6.82 83.36 7.27C81.07 11.07 77.19 13.75 71.82 15.25C67.47 16.47 60.39 16.47 54.14 16.47C51.76 16.47 49.51 16.47 47.66 16.55C40.16 16.83 34.79 19.68 32.51 24.57L32.5 24.61ZM31.99 31.59L31.99 33.71L31.93 33.67C29.99 32.52 27.75 31.92 25.49 31.92C18.45 31.92 12.73 37.64 12.73 44.68C12.73 51.71 18.45 57.43 25.49 57.43C29.55 57.43 33.41 55.47 35.82 52.18L35.82 52.15L37.62 52.79L37.59 52.83C34.86 56.86 30.35 59.26 25.49 59.26C17.44 59.26 10.9 52.72 10.9 44.68C10.9 36.64 17.44 30.09 25.49 30.09C27.61 30.09 29.9 30.62 31.97 31.58L31.99 31.59ZM14.74 39.72L18.18 42.72L13.74 43.58L13.74 43.52C13.86 42.22 14.19 40.94 14.73 39.77L14.74 39.72ZM43.73 51.68L44.14 51.82L44.12 51.86C41.73 56.61 38.76 59.97 35.02 62.12C32.51 63.59 29.78 64.43 26.69 64.72C25.43 64.83 24.14 64.79 22.59 64.55C17.99 63.87 13.69 61.49 10.52 57.83C7.31 54.17 5.59 49.63 5.66 45.06L5.66 45.02L5.69 45C5.73 45 5.74 45.03 5.75 45.07C5.79 45.15 5.9 45.36 6.02 45.41C6.18 45.47 6.26 45.38 6.37 45.24L6.43 45.16C6.56 45 6.69 45.1 6.82 45.19C6.92 45.27 7.03 45.35 7.13 45.31C7.17 45.3 7.19 45.26 7.22 45.22C7.26 45.17 7.3 45.13 7.35 45.15C7.6 45.19 7.72 45.08 7.84 44.94C7.94 44.83 8.05 44.71 8.27 44.76C8.45 44.8 8.49 44.97 8.52 45.15C8.55 45.25 8.58 45.36 8.62 45.45C8.76 45.67 9.01 45.67 9.18 45.61C9.61 45.41 9.69 45.03 9.78 44.61C9.85 44.34 9.91 44.04 10.1 43.8L10.14 43.72L10.17 43.81C10.26 44.32 10.27 44.83 10.27 45.32C10.29 45.87 10.29 46.43 10.42 46.98C10.74 48.45 11.12 49.99 11.84 51.51C13.02 53.98 14.91 56.05 17.46 57.66C20.77 59.75 24.77 60.41 28.68 59.5C32.49 58.64 35.88 56.32 37.97 53.16L37.99 53.13L38.8 53.33C39.25 53.45 39.72 53.57 40.18 53.64C40.59 53.69 40.98 53.69 41.4 53.64C41.46 53.63 41.6 53.57 41.64 53.55C41.47 53.32 41.27 53.08 41.05 52.83C40.42 52.1 39.7 51.28 39.61 50.3L39.61 50.24L39.68 50.26C40.86 50.71 42.26 51.18 43.73 51.68ZM20.67 55.42L20.62 55.39L23.42 52.17L23.48 52.1L24.13 56.34L24.07 56.34C22.9 56.21 21.76 55.9 20.67 55.42ZM29.37 51.17L33.12 53.59L33.07 53.63C32.07 54.48 30.94 55.15 29.73 55.62L29.68 55.64L29.37 51.24L29.37 51.17ZM6.75 37.13C6.58 36.94 6.74 36.62 6.86 36.41C8.07 34.08 9.72 31.98 11.89 30C14.6 27.56 17.59 25.99 21.06 25.22C25.54 24.23 29.48 24.57 33.42 26.3C33.51 26.33 33.5 26.53 33.36 26.86C33.34 26.89 33.08 27.54 32.91 27.47C25.54 24.67 17.52 26.18 12.49 31.33L12.21 31.61C10.26 33.61 8.23 35.69 7.83 38.47L7.82 38.56L7.75 38.49C7.59 38.26 7.59 37.99 7.58 37.74C7.58 37.45 7.56 37.17 7.32 36.98C7.26 36.92 7.2 36.96 7.09 37.07C7 37.14 6.87 37.24 6.75 37.13ZM28.23 37.69L27.97 37.6L27.92 37.59L27.43 33.04L27.41 32.98L27.46 32.98C29 33.24 30.44 33.8 31.75 34.61L31.79 34.64L28.23 37.68L28.23 37.69ZM30.36 41.45L28.75 41.57L28.74 41.56C28.61 41.43 28.47 41.3 28.32 41.17L28.31 41.16L28.04 38.69L28.24 38.51L28.27 38.49L28.29 38.5C29.03 38.83 29.67 39.3 30.23 39.85L30.84 40.46L30.36 41.45ZM22.78 38.47L22.81 38.45C23.66 38.08 24.56 37.89 25.5 37.89C26.13 37.89 26.75 37.98 27.36 38.15L27.39 38.15L27.41 38.43L25.4 40.15L25.39 40.16L24.84 40.21L22.78 38.71L22.78 38.47ZM21.85 42.03L19.11 42.55L19.12 42.49C19.44 41.47 20 40.58 20.76 39.82C21.11 39.48 21.51 39.15 21.96 38.87L21.98 38.86L22.15 39L22.13 41.64L22.13 41.65L21.85 42.03ZM18.9 43.32L21.08 45.23L21.09 45.24L21.1 45.35L21.12 45.42L19.57 47.73L19.54 47.67C19.03 46.71 18.78 45.67 18.78 44.57C18.78 44.19 18.81 43.81 18.89 43.4L18.9 43.32ZM19.94 48.39L22.81 48.19L22.83 48.19L22.91 48.25L23.34 50.95L23.27 50.92C22.3 50.59 21.45 50.05 20.74 49.33C20.47 49.07 20.23 48.78 19.99 48.43L19.94 48.39ZM24.33 51.2L24.26 51.19L26.1 49.07L26.13 49.05L28.5 50.59L28.44 50.62C27.51 51.07 26.52 51.31 25.48 51.31C25.11 51.31 24.73 51.28 24.33 51.2ZM30.5 48.94L30.55 48.96L30.52 49C30.12 49.49 29.88 49.77 29.38 50.12L29.32 50.16L29.12 47.28L29.11 47.14L29.4 47.56C29.74 48.05 30.12 48.62 30.5 48.94ZM30.2 41.89L29.69 43.09L29.65 42.99C29.55 42.68 29.38 42.46 29.21 42.23L28.99 41.93L30.14 41.89L30.2 41.89ZM28.67 49.97L26.93 48.85L27.01 48.82C27.55 48.63 28.03 48.34 28.46 47.96L28.52 47.91L28.67 49.97ZM27.44 39.19L27.49 39.14L27.67 40.68L27.59 40.64C27.2 40.43 26.79 40.29 26.35 40.2L26.28 40.18L27.44 39.19ZM23.6 48.77L23.59 48.71L23.66 48.73C24.15 48.94 24.66 49.07 25.19 49.11L25.28 49.11L23.9 50.69L23.6 48.77ZM22.79 39.48L24.07 40.4L24 40.43C23.58 40.58 23.19 40.79 22.85 41.06L22.78 41.11L22.79 39.56L22.79 39.48ZM22.15 47.54L22.19 47.6L20.32 47.73L21.3 46.28L21.33 46.22L21.36 46.3C21.55 46.74 21.81 47.18 22.15 47.54ZM19.57 43.1L21.37 42.76L21.44 42.75L21.41 42.81C21.21 43.29 21.08 43.79 21.06 44.31L21.04 44.38L19.57 43.1ZM31.09 39.71L30.7 39.34C30.17 38.8 29.55 38.35 28.89 38L28.82 37.98L31.96 35.3L32.04 35.25L32.04 35.34C32.04 36.67 31.7 38.32 31.12 39.66L31.09 39.71ZM22.83 37.68L22.78 37.69L22.82 33.13L22.84 33.12C23.71 32.92 24.6 32.82 25.49 32.82C25.88 32.82 26.28 32.84 26.77 32.89L26.81 32.91L27.29 37.4L27.24 37.39C26.65 37.25 26.05 37.17 25.49 37.17C24.58 37.17 23.68 37.34 22.83 37.68ZM17.66 35.79L21.33 38.45L21.29 38.49C20 39.37 19.01 40.65 18.49 42.13L18.46 42.18L15.02 39.18L15.04 39.15C15.69 37.9 16.58 36.77 17.65 35.81L17.66 35.79ZM13.72 44.25L18.12 43.42L18.18 43.4L18.17 43.46C18.1 43.85 18.07 44.25 18.07 44.62C18.07 45.73 18.32 46.81 18.81 47.82L18.84 47.87L14.25 48.19L14.25 48.16C13.88 47.01 13.7 45.83 13.7 44.64L13.7 44.43L13.72 44.25ZM16.94 52.74L16.93 52.73L19.44 48.99L19.47 48.96L19.5 48.99C19.74 49.32 19.97 49.6 20.21 49.84C21.01 50.62 21.93 51.21 23.01 51.59L23.06 51.6L20.05 55.08L20.02 55.05C18.89 54.46 17.85 53.69 16.94 52.74ZM24.8 56.37L24.11 51.88L24.17 51.89C24.62 51.97 25.07 52.01 25.49 52.01C26.62 52.01 27.7 51.76 28.72 51.27L28.77 51.25L29.1 55.83L29.07 55.85C27.91 56.22 26.72 56.39 25.49 56.39L24.8 56.37ZM33.6 53.15L29.74 50.67L29.78 50.63C30.16 50.37 30.47 50.12 30.72 49.85L31.19 49.42L31.21 49.39L34.73 51.91L34.67 51.97C34.38 52.32 34.06 52.71 33.62 53.14L33.6 53.15ZM23.04 44.61C23.04 43.25 24.14 42.13 25.49 42.13C26.85 42.13 27.97 43.25 27.97 44.61C27.97 45.96 26.85 47.06 25.49 47.06C24.14 47.06 23.04 45.96 23.04 44.61ZM22.13 33.33L22.18 33.31L22.15 38L21.92 38.11L18.16 35.4L18.2 35.37C19.38 34.43 20.7 33.75 22.13 33.33ZM14.5 48.83L14.47 48.77L19.03 48.47L19.12 48.45L16.54 52.27L16.52 52.22C15.64 51.2 14.96 50.06 14.5 48.83ZM77.14 18.28C80.59 17.43 83.57 15.64 86.01 12.94L86.25 12.66C86.48 12.36 86.81 11.94 86.89 11.78C86.93 11.72 87.02 11.56 87.1 11.59C87.15 11.62 87.15 11.71 87.11 11.85C87.05 12.01 86.81 12.42 86.59 12.8L86.3 13.33C84.75 15.85 82.26 17.36 80.03 18.49C76.46 20.32 72.69 21.35 68.83 21.56C64.03 21.84 59.17 21.8 54.46 21.75C52.34 21.74 50.18 21.72 48.06 21.72C45.6 21.74 43.19 22.48 40.89 23.94C38.61 25.38 36.87 27.41 35.69 29.99C34.93 31.64 34.83 33.44 34.72 35.31L34.62 36.73C34.35 39.84 32.8 42.57 30.56 43.82L30.44 43.87L30.5 43.76C31.53 41.89 32.52 39.87 32.87 37.77C32.98 37.02 33.02 36.32 33.02 35.66C33.02 35.15 33 34.67 32.98 34.19C32.97 33.72 32.94 33.25 32.94 32.76C32.94 32.52 32.94 32.3 32.96 32.07C33.15 27.94 35.68 24.1 39.72 21.82C42.59 20.2 45.39 19.35 48.25 19.24C50.36 19.16 52.48 19.32 54.54 19.45L55.36 19.51C57.88 19.68 60.54 19.72 63.99 19.62L64.54 19.62L65.14 19.6C68.97 19.47 73.05 19.28 77.14 18.28ZM87.56 12.2C87.46 12.6 87.33 13 87.14 13.56C85.84 17.21 82.97 19.54 80.13 21.6C77.35 23.63 74.52 24.93 71.19 25.7C68.44 26.34 66.15 26.81 63.67 26.63C63.25 26.6 62.91 26.39 62.53 26.18L62.09 25.93C61.98 25.89 61.84 25.87 61.68 25.84C61.52 25.81 61.35 25.79 61.22 25.72C61.09 25.65 61.03 25.53 61.06 25.41C61.08 25.25 61.22 25.13 61.41 25.1C61.57 25.07 61.74 25.08 61.9 25.1C62.13 25.11 62.32 25.12 62.49 25.03C62.94 24.76 63.41 24.73 63.86 24.69C64.2 24.65 64.5 24.63 64.79 24.55C64.99 24.48 64.98 24.29 64.97 24.1C64.95 23.93 64.94 23.75 65.12 23.69C65.35 23.62 65.61 23.57 65.86 23.52L66.44 23.4C66.54 23.37 66.6 23.19 66.65 23.04C66.69 22.92 66.73 22.82 66.79 22.8C67.16 22.69 67.69 22.74 68.23 22.8C68.57 22.84 68.92 22.86 69.24 22.86C69.31 22.86 69.34 22.8 69.36 22.67C69.4 22.54 69.43 22.4 69.62 22.4L70.14 22.4C70.62 22.41 70.68 22.41 71.2 22.05C71.45 21.89 71.83 21.88 72.21 21.86C72.8 21.86 73.29 21.84 73.28 21.31L73.28 21.28L73.32 21.26C73.74 21.2 74.16 21.18 74.58 21.18C75.48 21.18 76.31 21.16 77.06 20.61C77.16 20.53 77.3 20.53 77.44 20.52C77.58 20.52 77.73 20.52 77.85 20.45C77.9 20.41 77.94 20.34 77.97 20.27C78.02 20.18 78.06 20.08 78.18 20.05C78.37 19.99 78.58 19.95 78.79 19.92C79.07 19.86 79.34 19.83 79.6 19.71C79.73 19.65 79.77 19.47 79.82 19.34C79.85 19.21 79.88 19.11 79.95 19.09C83.02 17.69 85.12 15.92 86.59 13.53C86.91 13 87.25 12.3 87.33 12.08C87.38 11.96 87.44 11.88 87.51 11.9C87.58 11.93 87.59 12.03 87.56 12.2ZM63.38 23.27C61.23 24.6 59.04 24.94 56.78 25.19C55.66 25.31 53.32 25.1 51.9 24.27C51.68 24.16 51.59 24.04 51.6 23.92C51.63 23.67 52.09 23.5 52.49 23.38L52.69 23.29C52.92 23.2 53.19 23.29 53.45 23.38C53.81 23.49 54.17 23.62 54.49 23.33C54.77 23.09 55.26 23.34 55.68 23.55L56.01 23.72C56.43 23.91 56.72 23.71 57.07 23.46L57.26 23.34C57.41 23.24 57.6 23.33 57.8 23.42C57.99 23.52 58.22 23.63 58.45 23.57C58.52 23.55 58.55 23.46 58.58 23.38C58.61 23.27 58.65 23.15 58.76 23.14C59.03 23.12 59.28 23.2 59.51 23.29C59.79 23.41 60.06 23.5 60.34 23.38C60.42 23.34 60.52 23.23 60.62 23.13C60.71 23.03 60.81 22.91 60.91 22.85C61.07 22.76 61.23 22.82 61.36 22.87C61.49 22.92 61.61 22.96 61.68 22.9C62.15 22.48 62.64 22.57 63.07 22.64L63.28 22.69C63.37 22.69 63.42 22.82 63.45 22.94C63.46 23 63.48 23.19 63.38 23.27ZM62.09 28.08C62.08 28.14 62.08 28.17 62.09 28.22L62.12 28.25L62.08 28.28C57.83 29.92 53.19 29.92 48.79 29.66C48.65 29.65 48.59 29.49 48.52 29.34L48.42 29.11C48.32 28.99 48.13 28.9 47.97 28.83C47.87 28.8 47.77 28.75 47.69 28.7C47.61 28.63 47.56 28.54 47.52 28.45C47.49 28.38 47.46 28.29 47.38 28.23C47.29 28.17 47.14 28.14 46.97 28.13C46.81 28.11 46.66 28.08 46.53 28.03C46.44 27.99 46.37 27.81 46.36 27.68C46.36 27.58 46.4 27.55 46.43 27.52C46.69 27.36 47.04 27.41 47.35 27.45C47.69 27.49 48.01 27.53 48.19 27.32C48.55 26.83 49 26.87 49.43 26.9C49.68 26.91 49.96 26.94 50.21 26.84C50.33 26.81 50.35 26.7 50.38 26.59C50.39 26.51 50.42 26.44 50.45 26.39C51.02 25.7 52.06 25.58 53.07 25.55C53.93 25.53 54.82 25.57 55.44 25.64C57.37 25.95 58.99 26.25 60.61 27.03L61.01 27.19C61.36 27.34 61.72 27.49 62.02 27.77C62.13 27.89 62.11 27.99 62.09 28.08ZM56.56 33.19C56 33.72 55.27 33.81 54.56 33.9L54.35 33.93C54.25 33.95 54.15 34 54.05 34.06C53.96 34.12 53.85 34.18 53.73 34.21C51.69 34.68 49.64 34.64 47.25 34.06C46.93 33.98 46.69 33.74 46.48 33.5L46.16 33.19C46.13 33.16 45.99 33.16 45.9 33.16C45.75 33.14 45.71 33.14 45.69 33.1C45.53 32.65 45.41 32.49 45.07 32.22C45.04 32.19 45.01 32.1 45.01 32.01C45.01 31.97 45.03 31.95 45.03 31.92C45.05 31.85 45.1 31.8 45.18 31.8L46.81 31.61C46.95 31.6 47.01 31.46 47.09 31.31C47.16 31.18 47.22 31.04 47.35 30.99C47.84 30.78 48.39 30.73 48.91 30.68L49.19 30.65L50.15 30.55C51.43 30.4 52.73 30.25 54.03 30.35C55.44 30.45 56.74 30.86 58.12 31.28L58.78 31.48C58.96 31.55 59.17 31.63 59.21 31.77C59.24 31.85 59.23 31.92 59.17 32.01C59.04 32.23 58.81 32.32 58.57 32.4C58.42 32.45 58.27 32.52 58.12 32.61C57.91 32.76 57.64 32.81 57.39 32.86C57.07 32.93 56.78 32.99 56.56 33.19ZM50.9 38.86C48.95 39.45 46.84 39.92 44.77 39.4L44.59 39.36C43.85 39.17 42.92 38.94 42.75 38.5L42.71 38.43L42.81 38.45C42.81 38.45 42.81 38.45 42.84 38.43C42.94 38.37 43.04 38.22 43.04 38.16C43.05 37.99 42.81 37.88 42.57 37.78C42.42 37.7 42.26 37.64 42.17 37.56C42.11 37.49 42.08 37.34 42.13 37.23C42.15 37.17 42.2 37.13 42.28 37.13C42.39 37.13 42.53 37.15 42.71 37.19C43.09 37.25 43.56 37.34 43.9 37.17C43.95 37.14 43.99 37.09 44.03 37.04C44.07 36.95 44.14 36.86 44.28 36.81C44.39 36.75 44.54 36.77 44.65 36.78C44.75 36.79 44.86 36.79 44.91 36.77L45.07 36.7C45.18 36.66 45.29 36.62 45.35 36.53C45.37 36.5 45.37 36.42 45.36 36.34C45.35 36.23 45.35 36.11 45.41 36.04C45.51 35.94 45.64 35.92 45.77 35.89C45.87 35.87 45.99 35.84 46.12 35.76C46.2 35.72 46.28 35.61 46.37 35.51C46.45 35.42 46.52 35.33 46.59 35.29C46.86 35.14 47.2 35.11 47.49 35.08L47.51 35.08C48.33 35.04 49.18 35.06 50.09 35.17L50.36 35.21C51.02 35.29 51.64 35.36 52.26 35.55L52.83 35.72C53.84 36 54.79 36.25 55.67 36.81L55.71 36.83L55.68 36.85C55.24 37.45 54.61 37.66 53.99 37.87C53.7 37.97 53.39 38.09 53.11 38.22C52.64 38.46 52.17 38.56 51.7 38.66C51.44 38.72 51.17 38.78 50.9 38.86ZM78.1 31.29C78.11 31.31 78.1 31.34 78.07 31.36C71.97 36.37 63.91 37.09 57.58 37.15L57.57 37.15L57.56 37.14C57.04 36.45 56.24 36.06 55.48 35.66L54.71 35.27C54.65 35.23 54.65 35.1 54.65 35.05C54.65 34.99 54.66 34.87 54.71 34.85C55.26 34.59 55.85 34.56 56.45 34.53C56.75 34.52 57.07 34.51 57.37 34.46C57.53 34.43 57.63 34.29 57.74 34.15C57.84 34.02 57.95 33.88 58.1 33.83L58.6 33.66C59.47 33.39 60.36 33.11 61.29 33.15L61.99 33.18C62.66 33.21 63.37 33.25 64.06 33.23C64.18 33.21 64.2 33.11 64.25 32.95C64.29 32.79 64.32 32.63 64.49 32.59C65 32.5 65.51 32.56 66 32.61C66.5 32.66 67.02 32.72 67.55 32.61C67.66 32.59 67.73 32.43 67.78 32.3C67.82 32.2 67.84 32.12 67.89 32.11C68.49 31.88 69.14 31.86 69.78 31.85C70.34 31.84 70.94 31.82 71.49 31.65C71.4 31.56 71.32 31.46 71.32 31.37L71.32 31.36C71.32 31.33 71.34 31.29 71.38 31.26C71.56 31.11 71.85 31.15 72.07 31.18L72.18 31.2L72.22 31.2C72.68 31.25 73.21 31.3 73.65 30.97C73.84 30.83 74.1 30.88 74.31 30.93C74.5 30.97 74.68 31.01 74.85 30.96L75.1 30.86C75.39 30.75 75.69 30.63 76.01 30.73C76.29 30.82 76.49 30.86 76.71 30.88L77.11 30.96L77.21 30.98C77.81 31.12 78.08 31.2 78.1 31.29ZM70.03 38.17L70.06 38.21L70.02 38.22C67.72 39.52 65.12 40.41 61.88 41.02C57.89 41.76 54.08 41.66 50.26 40.68C50.2 40.67 50.19 40.62 50.19 40.61C50.19 40.46 50.66 40.16 50.87 40.07C51.32 39.91 51.81 39.81 52.28 39.71C52.76 39.6 53.25 39.51 53.71 39.35C53.83 39.31 53.94 39.16 54.05 39.03L54.18 38.84C54.51 38.51 55.02 38.37 55.47 38.25L55.72 38.19C56.89 37.83 58.14 38.07 59.35 38.28L60.43 38.47L60.73 38.51C61.27 38.59 61.77 38.66 62.31 38.83C62.33 38.83 62.43 38.82 62.5 38.77C62.55 38.73 62.62 38.68 62.64 38.6L62.64 38.51C62.66 38.31 62.71 38.1 62.9 38.09C63.09 38.09 63.28 38.11 63.48 38.14C63.81 38.17 64.13 38.21 64.4 38.1C64.78 37.96 65.17 37.96 65.55 37.97C65.8 37.97 66.04 37.97 66.29 37.95C66.35 37.94 66.35 37.91 66.36 37.83C66.37 37.76 66.38 37.67 66.49 37.64C66.78 37.57 67.08 37.59 67.36 37.62C67.73 37.64 68.06 37.67 68.38 37.52C68.84 37.3 69.83 37.91 70.03 38.17ZM61.94 43.91C62.05 44.02 62.09 44.1 62.06 44.17C62.04 44.25 61.97 44.3 61.86 44.34C59.34 45.12 56.76 45.12 54.25 45.12L54.14 45.12C51.77 45.12 49.56 44.51 47.23 43.86L46.41 43.63C46.32 43.61 46.28 43.54 46.26 43.45C46.25 43.39 46.28 43.31 46.31 43.28C46.51 43.16 46.76 43.15 46.98 43.13C47.16 43.12 47.35 43.1 47.54 43.03C47.64 42.99 47.69 42.89 47.74 42.8C47.81 42.69 47.86 42.61 47.95 42.57C48.09 42.48 48.29 42.45 48.48 42.41C48.67 42.38 48.86 42.36 48.96 42.29C49.12 42.19 49.22 42.09 49.33 41.99C49.44 41.87 49.55 41.75 49.72 41.65C49.89 41.55 50.09 41.59 50.3 41.64C50.47 41.68 50.66 41.72 50.85 41.68C51.43 41.55 51.91 41.83 52.37 42.1C52.64 42.27 52.92 42.44 53.23 42.51C53.4 42.57 53.56 42.51 53.71 42.45C53.85 42.4 53.99 42.35 54.14 42.38C54.33 42.4 54.49 42.5 54.65 42.6C54.78 42.69 54.92 42.78 55.07 42.82C55.33 42.9 55.52 42.91 55.79 42.78C56 42.67 56.23 42.77 56.43 42.87C56.62 42.96 56.81 43.06 56.99 43.01C57.05 43 57.08 42.94 57.11 42.86C57.16 42.77 57.21 42.67 57.33 42.67C57.69 42.63 58.01 42.81 58.3 43C58.59 43.16 58.85 43.33 59.17 43.33C59.19 43.33 59.23 43.29 59.25 43.27L59.36 43.16C59.57 43.09 59.74 43.13 59.93 43.18C60.13 43.23 60.32 43.28 60.52 43.22C60.97 43.08 61.43 43.31 61.94 43.91ZM54.17 48.51C54.16 48.54 54.14 48.56 54.11 48.58C52.58 49.03 50.16 48.8 48.21 48.62L47.95 48.6C46.41 48.46 44.8 48.05 43.01 47.33L42.91 47.29C41.88 46.88 40.89 46.47 39.93 45.88L39.7 45.76C39.47 45.66 39.23 45.55 39.2 45.26C39.19 45.2 39.27 45.06 39.32 45.04C39.64 44.88 39.98 44.93 40.32 44.98C40.59 45.02 40.87 45.06 41.14 44.98C41.23 44.94 41.32 44.86 41.39 44.77C41.49 44.66 41.56 44.56 41.68 44.56L42.01 44.58C42.33 44.62 42.68 44.65 42.95 44.43C43.26 44.2 43.71 44.37 44.03 44.51C44.17 44.58 44.35 44.75 44.55 44.91C44.88 45.21 45.26 45.55 45.57 45.51C46.25 45.36 46.64 45.33 46.74 45.39L47.26 45.7C48.04 46.21 49.02 46.83 49.73 46.87C49.79 46.88 49.85 46.77 49.89 46.68C49.99 46.56 50.09 46.39 50.26 46.47C50.47 46.58 50.66 46.71 50.84 46.84C51.11 47.02 51.33 47.19 51.6 47.24C51.64 47.25 51.74 47.2 51.83 47.15C51.95 47.1 52.07 47.05 52.16 47.06C52.4 47.1 52.58 47.23 52.78 47.41L53.06 47.62C53.12 47.65 53.22 47.69 53.34 47.74C53.5 47.81 53.69 47.87 53.83 47.99C54.04 48.15 54.18 48.4 54.17 48.51ZM33.33 47.12C33.43 47.18 33.56 47.25 33.65 47.35C33.72 47.43 33.75 47.5 33.79 47.58C33.83 47.66 33.85 47.74 33.91 47.77C33.96 47.83 34.03 47.85 34.11 47.89C34.18 47.92 34.27 47.95 34.33 48.02C34.42 48.09 34.49 48.21 34.58 48.33C34.69 48.49 34.8 48.69 34.95 48.72C35 48.73 35.09 48.71 35.16 48.69C35.28 48.66 35.38 48.62 35.47 48.67C35.72 48.82 35.92 49.03 36.07 49.2L36.32 49.52L36.63 49.87L36.8 50.06C36.92 50.22 37.03 50.37 37.18 50.46C37.24 50.5 37.36 50.47 37.46 50.43C37.57 50.39 37.69 50.35 37.77 50.42C37.86 50.5 37.93 50.61 37.99 50.73C38.04 50.84 38.1 50.96 38.19 51C38.28 51.05 38.38 51.06 38.49 51.07C38.64 51.09 38.81 51.12 38.9 51.27L39.1 51.67C39.25 51.97 39.42 52.36 39.6 52.61L39.67 52.7L39.57 52.67C35.48 52.01 32.32 49.29 30.38 47.13C29.91 46.6 29.84 45.79 30.19 45.08C30.33 44.81 30.72 44.45 31.04 44.41C31.17 44.39 31.27 44.42 31.34 44.51C31.5 44.68 31.6 44.89 31.7 45.1C31.78 45.27 31.85 45.44 31.94 45.55C32.01 45.66 32.1 45.72 32.2 45.79C32.33 45.86 32.45 45.94 32.55 46.08L32.73 46.41C32.85 46.64 32.96 46.88 33.1 46.98L33.33 47.12ZM47.46 51.09C47.53 51.2 47.57 51.28 47.53 51.35C47.49 51.44 47.36 51.44 47.27 51.44L47.25 51.44C40.15 51.59 34.9 46.67 32.41 43.72C32.38 43.67 32.35 43.55 32.4 43.47C32.42 43.42 32.48 43.38 32.53 43.39C33 43.42 33.41 43.66 33.81 43.87L34.32 44.14C34.51 44.23 34.68 44.35 34.88 44.49C35.37 44.82 35.86 45.17 36.31 44.81C36.35 44.76 36.38 44.71 36.39 44.66C36.39 44.61 36.41 44.55 36.46 44.53L36.54 44.53C37.3 44.72 37.86 45.3 38.4 45.85L38.66 46.11C38.87 46.32 39.02 46.56 39.19 46.77C39.47 47.17 39.74 47.54 40.18 47.75C40.3 47.8 40.4 47.71 40.54 47.56C40.66 47.43 40.82 47.3 40.96 47.43L41.55 47.99C41.82 48.24 42.08 48.51 42.42 48.77C42.45 48.77 42.47 48.79 42.49 48.79C42.57 48.77 42.66 48.62 42.72 48.52C42.77 48.42 42.79 48.37 42.85 48.36C43.06 48.24 43.46 48.6 43.79 48.88L43.98 49.04L44.32 49.32C44.59 49.55 44.86 49.8 45.18 49.99C45.28 50.05 45.37 50 45.48 49.93C45.58 49.88 45.69 49.83 45.81 49.88L46.17 50.05C46.39 50.14 46.61 50.26 46.82 50.32C46.99 50.36 47.13 50.6 47.27 50.82L47.46 51.09ZM34.54 41.72C34.66 41.78 34.78 41.86 34.88 41.86C35.03 41.89 35.18 41.86 35.3 41.84C35.43 41.8 35.56 41.78 35.7 41.82L35.73 41.82C36.06 41.89 36.19 41.93 36.44 42.06C36.57 41.98 36.74 41.95 36.84 41.92L36.93 41.89C37.23 41.8 37.55 41.86 37.84 41.93C38.06 41.97 38.28 42.02 38.5 41.99C38.6 41.99 38.65 41.84 38.7 41.69C38.75 41.55 38.8 41.42 38.91 41.38C39.29 41.2 39.74 41.26 40.19 41.33C40.55 41.37 40.93 41.41 41.24 41.34C41.25 41.33 41.27 41.28 41.28 41.24C41.31 41.09 41.36 40.86 41.59 40.7C41.66 40.63 41.87 40.61 42.11 40.58C42.24 40.57 42.4 40.54 42.47 40.52L42.47 40.51C42.49 40.42 42.53 40.26 42.69 40.18C43.09 39.99 43.58 40.14 44.08 40.29C44.33 40.37 44.6 40.44 44.86 40.5C45.33 40.57 45.81 40.72 46.26 40.88L46.52 40.96C46.86 41.07 47.44 41.4 47.48 41.6C47.49 41.64 47.48 41.67 47.46 41.7C45.63 43.55 42.77 44.31 38.69 44.02L38.21 43.98C36.54 43.88 34.81 43.77 33.47 42.67C33.36 42.6 33.32 42.48 33.33 42.35C33.36 42.06 33.67 41.73 33.96 41.57C34.15 41.48 34.35 41.6 34.54 41.72ZM35.92 36.9C37.13 37.1 38.22 37.56 39.02 37.94L39.44 38.13C40.16 38.46 40.92 38.82 41.5 39.38L41.54 39.42L41.49 39.45C39.95 40.38 38.22 40.65 36.51 40.95C35.87 41.05 35.22 41.14 34.56 40.9L34.54 40.88L34.55 40.84C34.87 39.69 35.29 38.54 35.69 37.42L35.88 36.94L35.9 36.9L35.92 36.9ZM36.65 34.64C36.7 34.58 36.66 34.46 36.64 34.35C36.58 34.2 36.54 34.02 36.64 33.89L36.86 33.5C36.96 33.28 37.06 33.1 37.19 33.01C38.52 32.26 40.27 32.59 41.79 33.01L42.11 33.1C43.28 33.42 44.52 33.76 45.4 34.69C45.44 34.74 45.44 34.87 45.43 34.93C45.42 34.98 45.41 35.01 45.39 35.02C42.46 36.36 39.29 36.9 36.23 36.56C36.16 36.55 36.16 36.41 36.18 36.1C36.18 35.89 36.2 35.62 36.18 35.42C36.14 35.19 36.28 35.02 36.47 34.83L36.65 34.64ZM43.23 28.02L43.57 28.1C44.25 28.25 44.82 28.53 45.38 28.79C45.69 28.94 46 29.09 46.33 29.22C46.55 29.3 47.19 29.62 47.2 29.88C47.22 29.92 47.19 29.99 47.11 30.05C44.19 31.72 40.76 31.94 37.48 31.92L37.44 31.92L37.44 31.88C37.47 31.58 37.57 31.32 37.67 31.07C37.74 30.91 37.8 30.74 37.85 30.55C37.91 30.29 38.11 30.11 38.34 29.94C38.62 29.69 38.91 29.46 38.89 29C38.89 28.73 39.17 28.64 39.47 28.54C39.71 28.46 39.95 28.39 40.07 28.23L40.15 28.1C40.24 27.95 40.34 27.79 40.47 27.77C41.41 27.62 42.28 27.82 43.23 28.02ZM42.91 24.84C42.88 24.65 43.17 24.55 43.32 24.53L43.65 24.49C43.91 24.46 44.18 24.44 44.43 24.37C44.61 24.32 44.71 24.19 44.83 24.06C44.9 23.97 44.98 23.88 45.07 23.82C45.54 23.49 46.07 23.52 46.58 23.55C46.97 23.59 47.35 23.61 47.68 23.47C47.98 23.34 48.4 23.2 48.77 23.41C48.98 23.54 49.22 23.64 49.47 23.76C50.12 24.04 50.8 24.32 50.98 25.04L50.98 25.06L50.95 25.08C48.49 26.51 45.43 27.19 41.57 27.15L41.53 27.15L41.52 26.78C41.5 26.38 41.47 25.92 41.89 25.79L42.02 25.73C42.49 25.58 42.97 25.42 42.91 24.84ZM82.37 24.5C82.39 24.56 82.35 24.62 82.26 24.69C79.62 27 76.55 28.69 72.57 30C69.16 31.13 65.65 31.63 62.2 31.49C61.92 31.48 61.72 31.23 61.51 30.95C61.34 30.75 61.19 30.55 61 30.45C60.77 30.3 60.45 30.28 60.13 30.27L59.62 30.24C59.51 30.21 59.45 30.09 59.43 29.96C59.42 29.85 59.46 29.76 59.53 29.73C59.98 29.59 60.46 29.57 60.93 29.54C61.23 29.52 61.56 29.5 61.87 29.45C62.06 29.42 62.16 29.28 62.24 29.11C62.32 28.99 62.39 28.86 62.52 28.81C63.26 28.49 64.07 28.46 64.86 28.45C65.2 28.43 65.55 28.43 65.9 28.4C66 28.39 66.03 28.27 66.06 28.09C66.08 27.97 66.1 27.83 66.21 27.78C66.53 27.64 66.84 27.77 67.15 27.9L67.55 28.04C67.76 28.08 67.85 27.92 67.92 27.77C67.99 27.65 68.04 27.54 68.17 27.57C68.97 27.79 69.3 27.62 69.87 27.15C69.98 27.07 70.19 27.11 70.38 27.17L70.44 27.19L70.51 27.2C70.72 27.27 70.9 27.29 70.97 27.13C71.37 26.13 72.2 26.37 72.99 26.59C73.44 26.72 73.86 26.85 74.21 26.74L74.25 26.71C74.27 26.68 74.25 26.59 74.23 26.5C74.17 26.36 74.12 26.21 74.24 26.13C74.6 25.89 75.01 25.96 75.38 26.01C75.74 26.05 76.05 26.09 76.36 25.96C76.48 25.91 76.46 25.79 76.46 25.63C76.44 25.5 76.43 25.38 76.5 25.3C76.63 25.15 76.82 25.19 77.01 25.24C77.15 25.26 77.28 25.3 77.4 25.24C77.6 25.14 77.96 25.02 78.13 25.02C78.56 25.01 78.92 24.88 79.29 24.76C79.57 24.66 79.85 24.57 80.19 24.5C80.23 24.5 80.28 24.46 80.32 24.4C80.37 24.34 80.43 24.28 80.51 24.25C81.1 24.11 82.18 24.3 82.26 24.35C82.31 24.39 82.37 24.43 82.37 24.5Z" />
</svg>