<svg xmlns="http://www.w3.org/2000/svg" viewBox="0 0 69 68" width="69" height="68">
	<style>
		tspan { white-space:pre }
		.shp0 { fill: #ffffff } 
		.shp1 { fill: #fc4e14 } 
		.shp2 { fill: #000084 } 
	</style>
	<path id="Path 147 copy 8" class="shp0" d="M38.69 305.7L39.23 305.7L39.23 307.11L39.44 307.11L39.44 305.7L39.98 305.7L39.98 305.51L38.69 305.51L38.69 305.7ZM40.94 306.86L40.48 305.51L40.17 305.51L40.17 307.11L40.38 307.11L40.38 305.77L40.83 307.11L41.04 307.11L41.49 305.77L41.49 307.11L41.7 307.11L41.7 305.51L41.39 305.51L40.94 306.86ZM-357.26 38.95C-355.89 35.83 -354.39 32.43 -351.53 29.5C-350.29 28.22 -345.1 22.89 -339.03 23.24C-337.43 23.34 -335.68 23.83 -333.71 22.85C-332.31 22.15 -331.77 21.2 -330.51 19.79C-330.51 19.79 -329.16 18.26 -324.92 15.13C-321.04 12.25 -315.91 13.16 -306.16 12.87C-296.68 12.58 -291.94 12.44 -287.4 10.47C-281.8 8.04 -275.03 3.02 -275.03 3.02C-275.03 3.02 -275.7 5.79 -274.63 7.01C-273.77 8 -272.39 7.26 -271.57 8.21C-270.79 9.11 -271.23 10.7 -271.44 11.4C-273.43 18.22 -274.43 21.63 -275.16 22.98C-277.36 27.03 -279.63 31.22 -284.08 36.02C-287.38 39.57 -293.05 45.69 -301.37 48.92C-301.37 48.92 -309.62 52.12 -314.55 56.24C-315.09 56.7 -315.61 57.17 -315.61 57.17C-318.63 59.95 -320.26 62.57 -320.67 63.16C-322.97 66.53 -330.29 69.44 -337.3 69.01C-348.35 68.34 -354.35 59.6 -354.99 58.64C-358.02 54.06 -360.13 47.21 -358.32 41.61C-358.03 40.69 -357.59 39.71 -357.26 38.95Z" />
	<path id="Path 159 copy" class="shp1" d="M34.62 0.1C53.38 0.1 68.48 15.3 68.48 34.01C68.48 52.73 53.38 67.97 34.62 67.97C15.9 67.97 0.75 52.73 0.75 34.01C0.75 15.3 15.9 0.1 34.62 0.1Z" />
	<path id="Path 160 copy" class="shp2" d="M34.8 2.48C52.15 2.48 66.17 16.51 66.17 33.86C66.17 51.15 52.15 65.18 34.8 65.18C17.5 65.18 3.43 51.15 3.43 33.86C3.43 16.51 17.5 2.48 34.8 2.48Z" />
	<path id="Path 161 copy" class="shp1" d="M5.69 41.54C5.1 41.44 5.2 40.61 4.81 40.46C4.37 40.07 3.34 40.9 3.34 40.85C3.24 40.51 3 39.58 2.95 38.75C3.98 38.7 4.03 38.56 3.98 38.16C3.93 37.73 3.29 37.63 3.24 37.19C3.2 36.85 3.24 36.55 3.34 36.26C3.64 35.82 4.17 35.67 4.37 35.53C4.47 34.5 4.42 34.7 4.37 34.4C4.17 33.38 3.39 33.62 3.78 32.55C3.88 32.35 3.49 32.01 3.64 31.76C3.83 31.33 4.22 31.52 4.51 31.67C4.81 31.81 4.95 32.21 5.25 32.25C5.3 32.21 5.83 31.76 5.59 31.47C5.3 31.18 4.95 31.47 4.76 30.79C4.61 30.25 6.13 29.81 6.62 30.3C7.01 30.64 6.91 31.28 7.15 31.57C7.2 31.62 7.35 31.57 7.35 31.52C7.45 31.23 7.4 30.79 7.4 30.74C7.4 30.1 8.18 29.57 8.62 29.47C9.6 29.27 10.14 28.74 10.67 28.83C10.82 28.88 10.92 29.13 10.97 29.27C11.01 29.62 11.01 30.89 11.6 30.54C11.84 30.45 12.28 29.42 12.87 30.79C13.16 31.28 13.75 30.69 13.55 30.5C13.36 30.45 13.36 30.01 13.31 29.81C13.11 29.27 12.58 28.15 13.26 28.25C15.12 28.44 15.56 29.18 14.73 29.71C14.58 29.86 15.61 30.01 15.8 30.1C16.19 30.2 16.24 30.4 16.54 30.5C16.88 30.69 16.83 29.96 17.51 29.81C18.69 29.52 20.05 30.01 20.69 30.84C21.37 31.82 21.76 30.74 23.72 30.79C24.4 30.5 24.26 30.15 24.26 29.86C24.5 28.98 25.04 29.03 25.48 29.18C25.67 29.23 25.77 29.52 25.97 29.66C26.11 29.72 26.31 29.76 26.41 29.72C26.75 29.62 26.7 28.88 28.07 29.86C28.12 29.86 29.44 29.81 30.02 30.06C32.17 30.84 32.86 30.99 34.23 31.03C36.77 31.03 37.65 31.86 38.97 31.47C40.14 31.13 41.75 31.62 42.48 31.47C43.9 31.38 44.64 30.2 46.1 30.06C46.54 30.06 46.88 29.86 47.23 29.81C48.06 29.52 48.89 29.62 49.52 28.69C49.91 28 50.94 27.42 51.96 27.27C52.45 27.22 52.84 26.78 53.33 26.54C53.53 26.34 53.77 26.05 54.06 25.95C55.29 25.66 57.29 25.07 57.88 25.76C58.17 26.2 57.09 26.78 56.61 26.83C55.19 26.98 55.24 26.69 54.56 27.08C54.41 27.17 54.06 27.61 53.82 27.86C53.23 28.25 51.77 28.74 51.62 29.52C51.62 29.57 52.11 29.96 52.06 30.25C52.06 30.4 51.87 30.69 51.33 30.5C51.18 30.4 50.7 30.45 50.4 30.69C50.16 30.84 50.11 30.99 50.01 31.18C49.86 32.26 48.74 32.21 47.76 32.11C46.49 32.31 46.49 33.33 45.81 33.38C45.08 33.48 44.24 33.67 44.34 34.11C44.44 34.5 44.15 34.85 43.81 34.9C43.17 34.99 45.86 36.46 46.54 36.21C48.45 35.58 49.13 34.11 50.11 33.33C50.84 32.4 51.28 32.7 54.07 32.79C54.65 32.84 55.39 30.99 56.36 31.72C56.71 31.91 56.51 32.69 57.44 32.84C57.68 32.89 57.14 31.52 58.66 31.28C59.2 31.18 59.15 31.96 58.95 32.4C59.44 32.69 59.78 33.28 59.44 33.48C60.57 35.68 60.23 32.65 62.91 33.23C63.5 32.65 64.23 32.45 64.87 32.65C65.21 32.4 66.04 31.28 66.53 31.13C66.67 31.82 66.63 32.79 66.72 33.33C66.72 33.33 66.58 33.38 66.48 33.38C65.21 33.33 61.74 35.09 60.47 35.14C59.88 35.14 57.83 36.26 56.66 36.26C55.29 36.26 55.19 36.36 54.75 36.99C54.6 37.19 52.8 37.43 52.5 37.39C51.28 37.19 51.04 37.73 50.6 37.97C47.62 39.54 46.98 36.56 46 37.68C45.22 38.56 45.22 38.31 44.64 38.07C44.25 37.87 43.61 38.8 42.93 38.75C42.49 39.15 41.95 39.78 41.22 39.53L41.07 39.49L40.87 39.78L39.94 39.34L39.26 39.24C38.97 39.19 38.77 39.19 38.53 39.14C37.75 39.09 36.97 39.58 36.18 39.78C35.45 39.97 33.98 39.68 33.94 40.27C33.89 40.71 32.86 40.95 32.52 40.81C31.54 40.81 31.64 40.17 30.95 40.07C30.07 40.02 29.98 40.27 29.29 40.41C28.36 40.61 27.19 39.68 26.46 40.02C26.07 40.22 25.58 40.07 25.19 40.22C24.5 40.22 23.23 39.68 22.74 40.12C21.52 41.24 21.48 39.98 19.32 40.17C18.98 40.17 18.49 40.41 18.1 40.46C17.32 40.41 16.44 40.66 16.2 40.76C15.12 41.29 13.66 41.2 12.73 40.71C12.48 40.61 11.85 40.81 11.51 40.9C10.43 41 8.57 40.71 7.4 40.76C6.86 40.8 6.32 41.63 5.69 41.54Z" />
	<path id="Path 162 copy" class="shp0" d="M15.61 9.09C18.59 6.84 21.28 5.47 23.91 4.5L29 14.56L29 5.28L41.65 5.28L47.96 20.08L53.67 8.8C54.5 9.43 55.24 10.07 56.02 10.75L36.47 49.06C36.03 49.89 34.96 50.87 33.98 51.01L20.44 53.36C20.2 53.41 19.96 53.12 19.86 52.92C19.32 51.26 18.83 48.52 19.22 46.57C19.27 46.37 32.03 45.3 33.64 45.05C34.47 44.86 35.59 44.17 36.28 43.34C36.32 43.34 43.31 29.41 43.22 29.32L35.79 11.29L35.79 28.1L27.14 28.1L22.64 19.16L22.64 28.05L15.61 28.05L15.61 9.09Z" />
	<path id="Path 163 copy" class="shp2" d="M9.25 40.8L9.25 38.21L7.45 35.77L7.45 40.76C8.37 40.76 8.62 40.76 9.25 40.8Z" />
	<path id="Path 164 copy" class="shp1" d="M9.25 40.8L9.25 49.4L7.45 45.98L7.45 40.76C8.03 40.76 8.67 40.8 9.25 40.8ZM18.15 47.5L18.15 55.56L19.81 56.68L19.81 59.22C18.54 58.3 17.22 57.42 15.95 56.49L15.95 45.3L18.15 47.5ZM24.01 58.59L22.94 58.15L22.25 60.4L20.05 59.32L22.98 49.5L24.01 49.79L24.01 53.85L23.23 56.24L24.01 56.49L24.01 58.59ZM25.28 61.62L24.79 58.88L24.01 58.59L24.01 56.49L24.79 56.78L24.21 53.26L24.01 53.85L24.01 49.8L26.11 50.38L27.63 62.21L25.28 61.62ZM28.11 50.85L31.09 51.44L33.64 56.67L33.64 52.07L36.27 52.07L36.27 63.22L33.59 63.22L30.56 56.67L30.56 63.02L28.11 62.43L28.11 50.85ZM37.01 62.99L37.01 51.9L40.43 51.31L40.43 53.7L39.36 53.9L39.36 60.5C39.8 60.45 40.14 60.35 40.43 60.3L40.43 62.6C39.45 62.79 38.18 62.99 37.01 62.99ZM40.43 51.31L42.14 51.02C42.92 50.87 43.9 51.8 43.9 52.63L43.9 59.71C43.9 60.79 42.92 61.91 41.85 62.3C41.55 62.35 41.07 62.45 40.43 62.6L40.43 60.3C41.16 60.11 41.51 59.81 41.51 59.37L41.51 54.19C41.51 53.95 41.46 53.65 40.97 53.65L40.43 53.7L40.43 51.31ZM11.89 49.26C11.84 49.55 11.89 49.89 11.94 50.19C12.33 50.67 12.72 51.31 13.02 51.31C13.36 51.31 13.21 50.82 12.97 49.94L10.38 46.72C9.99 46.52 10.03 45.79 10.03 45.45L10.03 42.02C10.03 41.1 10.77 40.9 11.5 41.39L14.34 44.22C15.26 45.3 15.26 46.86 15.21 48.18L13.21 46.47L13.07 45.25C11.75 43.64 11.5 44.81 12.62 46.23C13.75 47.79 15.36 49.26 15.31 50.62L15.31 54.29C15.31 54.73 14.53 54.97 13.55 54.24L10.62 51.31C10.08 50.72 10.03 49.79 10.08 49.11L10.08 47.3L11.89 49.26ZM44.58 61.57L48.93 59.67L48.93 57.71L46.83 58.64L46.83 55.85L49.03 54.93L49.03 53.17L46.88 53.95L46.88 51.7L49.23 50.77L49.23 48.43L44.58 50.48L44.58 61.57ZM49.86 48.18C50.84 47.5 51.82 46.91 52.79 46.28L52.79 48.57C52.55 48.72 52.31 48.97 52.01 49.21L52.01 51.31C52.26 51.21 52.55 51.02 52.79 50.82L52.79 54.29L51.91 53.17L51.91 57.96L49.86 59.37L49.86 48.18ZM52.79 46.28L53.23 45.98C56.17 43.98 55.48 48.52 55.43 49.74C55.33 50.67 54.5 51.55 53.97 52.24L55.87 54.73L54.31 56.2L52.79 54.29L52.79 50.82C53.23 50.48 53.57 50.04 53.57 49.5C53.57 48.28 53.28 48.23 52.79 48.57L52.79 46.28ZM57.68 48.82C57.58 50.23 58.51 50.04 58.75 48.82C59 47.79 57.68 48.03 56.99 47.84C55.48 47.35 56.31 43.73 56.51 43.39C56.9 42.66 58.41 41.29 59.44 40.51C59.93 40.17 60.47 40.27 60.71 40.75C60.86 41.68 60.81 42.66 60.76 43.29C60.27 43.93 59.78 44.47 59.24 44.96C59.49 42.32 58.02 43.93 58.46 45.35C58.85 46.13 60.56 45.4 60.56 46.67C60.81 48.28 60.32 49.7 59.14 51.06C59 51.16 58.36 52.28 57.53 52.87C55.77 54.04 56.12 50.23 56.16 50.04C56.26 50.04 57.53 48.96 57.68 48.82Z" />
	<path id="Path 165 copy" fill-rule="evenodd" class="shp0" d="M62.42 41.78C62.18 41.68 61.98 41.44 61.83 41.24C61.74 41 61.69 40.75 61.69 40.46C61.69 40.22 61.74 39.97 61.83 39.73C61.98 39.48 62.18 39.29 62.42 39.14C62.66 39.04 62.86 38.99 63.05 38.99C63.3 38.99 63.59 39.04 63.79 39.14C64.03 39.29 64.23 39.48 64.33 39.73C64.47 39.97 64.57 40.22 64.57 40.46C64.57 40.75 64.47 41 64.33 41.24C64.23 41.44 64.03 41.68 63.79 41.78C63.59 41.93 63.3 41.98 63.05 41.98C62.86 41.98 62.66 41.93 62.42 41.78ZM62.52 39.39C62.37 39.48 62.18 39.63 62.08 39.83C61.98 40.07 61.88 40.27 61.88 40.46C61.88 40.71 61.98 40.9 62.08 41.1C62.18 41.29 62.32 41.44 62.52 41.58C62.71 41.68 62.91 41.73 63.05 41.73C63.3 41.73 63.5 41.68 63.69 41.58C63.89 41.44 64.03 41.29 64.13 41.1C64.23 40.9 64.28 40.71 64.28 40.46C64.28 40.27 64.23 40.07 64.13 39.83C64.03 39.63 63.89 39.48 63.64 39.39C63.5 39.29 63.3 39.19 63.05 39.19C62.91 39.19 62.71 39.29 62.52 39.39ZM62.71 39.92L62.71 40.41L63.05 40.41L63.05 40.71L63.01 40.71C62.96 40.66 62.96 40.61 62.91 40.61L62.71 40.61L62.71 41.34L62.47 41.34L62.47 39.68L63.05 39.68L63.05 39.92L62.71 39.92ZM63.3 41.05L63.45 41.34L63.74 41.34L63.59 41C63.5 40.85 63.4 40.75 63.3 40.71C63.3 40.66 63.25 40.61 63.2 40.61C63.3 40.56 63.45 40.51 63.54 40.41C63.64 40.36 63.64 40.27 63.64 40.12C63.64 40.07 63.64 39.97 63.59 39.87C63.54 39.78 63.45 39.78 63.35 39.73C63.3 39.73 63.2 39.68 63.05 39.68L63.05 39.92L63.25 39.92C63.3 39.97 63.3 39.97 63.35 40.02L63.35 40.12C63.35 40.22 63.35 40.27 63.3 40.36C63.25 40.36 63.2 40.36 63.05 40.41L63.05 40.71C63.15 40.75 63.2 40.9 63.3 41.05Z" />
	<path id="Path 166 copy" class="shp1" d="M38.41 39.09L38.61 38.75L41.1 39.97L40.91 40.36L38.41 39.09ZM40.46 41.26L37.97 39.99L38.17 39.65L40.66 40.92L40.46 41.26ZM37.52 40.89L37.72 40.5L40.18 41.77L40.03 42.11L37.52 40.89Z" />
	<path id="Path 167 copy" class="shp0" d="M49.57 43.64C49.28 45.98 40.67 45.45 40.72 43.35C40.72 43.25 40.67 43.15 40.87 42.9C41.94 41.19 46.93 41 48.93 42.71C49.32 43.1 49.57 43.35 49.57 43.64Z" />
	<path id="Path 168 copy" class="shp1" d="M49.57 43.64C49.28 45.98 40.67 45.45 40.72 43.35L40.72 45.74C41.16 46.52 46.1 48.77 49.57 45.98L49.57 43.64ZM41.38 39.44L38.89 38.17L39.08 37.83L41.58 39.1L41.38 39.44Z" />
	<path id="Path 147 copy 10" class="shp0" d="M38.69 305.7L39.23 305.7L39.23 307.11L39.44 307.11L39.44 305.7L39.98 305.7L39.98 305.51L38.69 305.51L38.69 305.7ZM40.94 306.86L40.48 305.51L40.17 305.51L40.17 307.11L40.38 307.11L40.38 305.77L40.83 307.11L41.04 307.11L41.49 305.77L41.49 307.11L41.7 307.11L41.7 305.51L41.39 305.51L40.94 306.86ZM-357.26 38.95C-355.89 35.83 -354.39 32.43 -351.53 29.5C-350.29 28.22 -345.1 22.89 -339.03 23.24C-337.43 23.34 -335.68 23.83 -333.71 22.85C-332.31 22.15 -331.77 21.2 -330.51 19.79C-330.51 19.79 -329.16 18.26 -324.92 15.13C-321.04 12.25 -315.91 13.16 -306.16 12.87C-296.68 12.58 -291.94 12.44 -287.4 10.47C-281.8 8.04 -275.03 3.02 -275.03 3.02C-275.03 3.02 -275.7 5.79 -274.63 7.01C-273.77 8 -272.39 7.26 -271.57 8.21C-270.79 9.11 -271.23 10.7 -271.44 11.4C-273.43 18.22 -274.43 21.63 -275.16 22.98C-277.36 27.03 -279.63 31.22 -284.08 36.02C-287.38 39.57 -293.05 45.69 -301.37 48.92C-301.37 48.92 -309.62 52.12 -314.55 56.24C-315.09 56.7 -315.61 57.17 -315.61 57.17C-318.63 59.95 -320.26 62.57 -320.67 63.16C-322.97 66.53 -330.29 69.44 -337.3 69.01C-348.35 68.34 -354.35 59.6 -354.99 58.64C-358.02 54.06 -360.13 47.21 -358.32 41.61C-358.03 40.69 -357.59 39.71 -357.26 38.95Z" />
	<path id="Path 147 copy 11" class="shp0" d="M38.69 305.7L39.23 305.7L39.23 307.11L39.44 307.11L39.44 305.7L39.98 305.7L39.98 305.51L38.69 305.51L38.69 305.7ZM40.94 306.86L40.48 305.51L40.17 305.51L40.17 307.11L40.38 307.11L40.38 305.77L40.83 307.11L41.04 307.11L41.49 305.77L41.49 307.11L41.7 307.11L41.7 305.51L41.39 305.51L40.94 306.86ZM-357.26 38.95C-355.89 35.83 -354.39 32.43 -351.53 29.5C-350.29 28.22 -345.1 22.89 -339.03 23.24C-337.43 23.34 -335.68 23.83 -333.71 22.85C-332.31 22.15 -331.77 21.2 -330.51 19.79C-330.51 19.79 -329.16 18.26 -324.92 15.13C-321.04 12.25 -315.91 13.16 -306.16 12.87C-296.68 12.58 -291.94 12.44 -287.4 10.47C-281.8 8.04 -275.03 3.02 -275.03 3.02C-275.03 3.02 -275.7 5.79 -274.63 7.01C-273.77 8 -272.39 7.26 -271.57 8.21C-270.79 9.11 -271.23 10.7 -271.44 11.4C-273.43 18.22 -274.43 21.63 -275.16 22.98C-277.36 27.03 -279.63 31.22 -284.08 36.02C-287.38 39.57 -293.05 45.69 -301.37 48.92C-301.37 48.92 -309.62 52.12 -314.55 56.24C-315.09 56.7 -315.61 57.17 -315.61 57.17C-318.63 59.95 -320.26 62.57 -320.67 63.16C-322.97 66.53 -330.29 69.44 -337.3 69.01C-348.35 68.34 -354.35 59.6 -354.99 58.64C-358.02 54.06 -360.13 47.21 -358.32 41.61C-358.03 40.69 -357.59 39.71 -357.26 38.95Z" />
	<path id="Path 147 copy 12" class="shp0" d="M38.69 305.7L39.23 305.7L39.23 307.11L39.44 307.11L39.44 305.7L39.98 305.7L39.98 305.51L38.69 305.51L38.69 305.7ZM40.94 306.86L40.48 305.51L40.17 305.51L40.17 307.11L40.38 307.11L40.38 305.77L40.83 307.11L41.04 307.11L41.49 305.77L41.49 307.11L41.7 307.11L41.7 305.51L41.39 305.51L40.94 306.86ZM-357.26 38.95C-355.89 35.83 -354.39 32.43 -351.53 29.5C-350.29 28.22 -345.1 22.89 -339.03 23.24C-337.43 23.34 -335.68 23.83 -333.71 22.85C-332.31 22.15 -331.77 21.2 -330.51 19.79C-330.51 19.79 -329.16 18.26 -324.92 15.13C-321.04 12.25 -315.91 13.16 -306.16 12.87C-296.68 12.58 -291.94 12.44 -287.4 10.47C-281.8 8.04 -275.03 3.02 -275.03 3.02C-275.03 3.02 -275.7 5.79 -274.63 7.01C-273.77 8 -272.39 7.26 -271.57 8.21C-270.79 9.11 -271.23 10.7 -271.44 11.4C-273.43 18.22 -274.43 21.63 -275.16 22.98C-277.36 27.03 -279.63 31.22 -284.08 36.02C-287.38 39.57 -293.05 45.69 -301.37 48.92C-301.37 48.92 -309.62 52.12 -314.55 56.24C-315.09 56.7 -315.61 57.17 -315.61 57.17C-318.63 59.95 -320.26 62.57 -320.67 63.16C-322.97 66.53 -330.29 69.44 -337.3 69.01C-348.35 68.34 -354.35 59.6 -354.99 58.64C-358.02 54.06 -360.13 47.21 -358.32 41.61C-358.03 40.69 -357.59 39.71 -357.26 38.95Z" />
	<path id="Path 147 copy 13" class="shp0" d="M38.69 305.7L39.23 305.7L39.23 307.11L39.44 307.11L39.44 305.7L39.98 305.7L39.98 305.51L38.69 305.51L38.69 305.7ZM40.94 306.86L40.48 305.51L40.17 305.51L40.17 307.11L40.38 307.11L40.38 305.77L40.83 307.11L41.04 307.11L41.49 305.77L41.49 307.11L41.7 307.11L41.7 305.51L41.39 305.51L40.94 306.86ZM-357.26 38.95C-355.89 35.83 -354.39 32.43 -351.53 29.5C-350.29 28.22 -345.1 22.89 -339.03 23.24C-337.43 23.34 -335.68 23.83 -333.71 22.85C-332.31 22.15 -331.77 21.2 -330.51 19.79C-330.51 19.79 -329.16 18.26 -324.92 15.13C-321.04 12.25 -315.91 13.16 -306.16 12.87C-296.68 12.58 -291.94 12.44 -287.4 10.47C-281.8 8.04 -275.03 3.02 -275.03 3.02C-275.03 3.02 -275.7 5.79 -274.63 7.01C-273.77 8 -272.39 7.26 -271.57 8.21C-270.79 9.11 -271.23 10.7 -271.44 11.4C-273.43 18.22 -274.43 21.63 -275.16 22.98C-277.36 27.03 -279.63 31.22 -284.08 36.02C-287.38 39.57 -293.05 45.69 -301.37 48.92C-301.37 48.92 -309.62 52.12 -314.55 56.24C-315.09 56.7 -315.61 57.17 -315.61 57.17C-318.63 59.95 -320.26 62.57 -320.67 63.16C-322.97 66.53 -330.29 69.44 -337.3 69.01C-348.35 68.34 -354.35 59.6 -354.99 58.64C-358.02 54.06 -360.13 47.21 -358.32 41.61C-358.03 40.69 -357.59 39.71 -357.26 38.95Z" />
	<path id="Path 147 copy 14" class="shp0" d="M38.69 305.7L39.23 305.7L39.23 307.11L39.44 307.11L39.44 305.7L39.98 305.7L39.98 305.51L38.69 305.51L38.69 305.7ZM40.94 306.86L40.48 305.51L40.17 305.51L40.17 307.11L40.38 307.11L40.38 305.77L40.83 307.11L41.04 307.11L41.49 305.77L41.49 307.11L41.7 307.11L41.7 305.51L41.39 305.51L40.94 306.86ZM-357.26 38.95C-355.89 35.83 -354.39 32.43 -351.53 29.5C-350.29 28.22 -345.1 22.89 -339.03 23.24C-337.43 23.34 -335.68 23.83 -333.71 22.85C-332.31 22.15 -331.77 21.2 -330.51 19.79C-330.51 19.79 -329.16 18.26 -324.92 15.13C-321.04 12.25 -315.91 13.16 -306.16 12.87C-296.68 12.58 -291.94 12.44 -287.4 10.47C-281.8 8.04 -275.03 3.02 -275.03 3.02C-275.03 3.02 -275.7 5.79 -274.63 7.01C-273.77 8 -272.39 7.26 -271.57 8.21C-270.79 9.11 -271.23 10.7 -271.44 11.4C-273.43 18.22 -274.43 21.63 -275.16 22.98C-277.36 27.03 -279.63 31.22 -284.08 36.02C-287.38 39.57 -293.05 45.69 -301.37 48.92C-301.37 48.92 -309.62 52.12 -314.55 56.24C-315.09 56.7 -315.61 57.17 -315.61 57.17C-318.63 59.95 -320.26 62.57 -320.67 63.16C-322.97 66.53 -330.29 69.44 -337.3 69.01C-348.35 68.34 -354.35 59.6 -354.99 58.64C-358.02 54.06 -360.13 47.21 -358.32 41.61C-358.03 40.69 -357.59 39.71 -357.26 38.95Z" />
	<path id="Path 147 copy 15" class="shp0" d="M38.69 305.7L39.23 305.7L39.23 307.11L39.44 307.11L39.44 305.7L39.98 305.7L39.98 305.51L38.69 305.51L38.69 305.7ZM40.94 306.86L40.48 305.51L40.17 305.51L40.17 307.11L40.38 307.11L40.38 305.77L40.83 307.11L41.04 307.11L41.49 305.77L41.49 307.11L41.7 307.11L41.7 305.51L41.39 305.51L40.94 306.86ZM-357.26 38.95C-355.89 35.83 -354.39 32.43 -351.53 29.5C-350.29 28.22 -345.1 22.89 -339.03 23.24C-337.43 23.34 -335.68 23.83 -333.71 22.85C-332.31 22.15 -331.77 21.2 -330.51 19.79C-330.51 19.79 -329.16 18.26 -324.92 15.13C-321.04 12.25 -315.91 13.16 -306.16 12.87C-296.68 12.58 -291.94 12.44 -287.4 10.47C-281.8 8.04 -275.03 3.02 -275.03 3.02C-275.03 3.02 -275.7 5.79 -274.63 7.01C-273.77 8 -272.39 7.26 -271.57 8.21C-270.79 9.11 -271.23 10.7 -271.44 11.4C-273.43 18.22 -274.43 21.63 -275.16 22.98C-277.36 27.03 -279.63 31.22 -284.08 36.02C-287.38 39.57 -293.05 45.69 -301.37 48.92C-301.37 48.92 -309.62 52.12 -314.55 56.24C-315.09 56.7 -315.61 57.17 -315.61 57.17C-318.63 59.95 -320.26 62.57 -320.67 63.16C-322.97 66.53 -330.29 69.44 -337.3 69.01C-348.35 68.34 -354.35 59.6 -354.99 58.64C-358.02 54.06 -360.13 47.21 -358.32 41.61C-358.03 40.69 -357.59 39.71 -357.26 38.95Z" />
</svg>