<svg xmlns="http://www.w3.org/2000/svg" viewBox="0 0 102 64" width="102" height="64">
	<style>
		tspan { white-space:pre }
		.shp0 { fill: #ffffff } 
		.shp1 { fill: #00214d } 
		.shp2 { fill: #cf132b } 
	</style>
	<path id="Path 149 copy" class="shp0" d="M15 29.92C15 29.92 15.54 23.19 17.77 23.19L21.86 23.19C21.86 23.19 22.27 13.66 25.8 13.66L66.52 13.66L72.69 -0.77L79.28 -0.77L66.55 29.92L74.56 29.92C77.94 29.92 79.54 32.51 79.54 32.51L86.13 16.35L92.81 16.35L86.81 31.04C86.81 31.04 88.82 29.94 89.87 29.94L103.99 29.94L101.63 35.63L99.45 35.63C99.45 35.63 100.67 36.84 100.67 38.5C100.67 41 98.33 44.19 95.33 44.19L66.79 44.19C64.14 44.19 62.03 42.08 62.06 40.57L58.7 48.81C58.7 48.81 58.55 49.08 58.55 49.65C58.55 50.22 58.61 50.29 58.7 50.38L66.04 56.67L69.8 52.03L81.95 52.01L76.67 58.61L67 58.61L61.25 67.03C61.25 67.03 54.33 56.16 53.56 54.88C52.8 53.59 52.54 51.59 52.54 50.55C52.54 47.71 53.34 45.85 53.56 45.29L53.99 44.19L34.37 44.19L31.7 50.76L25.02 50.76L27.75 44.17L18.99 44.17C16.58 44.17 15.17 41.89 15.17 41.89C15.17 41.89 12.08 44.19 9.74 44.19L3.04 44.19C0.21 44.19 -1.54 41.64 -1.54 39.89C-1.54 35.93 4.46 29.92 12.14 29.92L15 29.92Z" />
	<path id="Path 150 copy" class="shp1" d="M11.74 34.01L15.79 34.01L16.82 31.53L12.42 31.53C5.96 31.53 0.11 36.41 0.11 39.89C0.11 41.7 2.13 42.58 2.56 42.58L9.58 42.58C11.39 42.58 14.55 40.32 14.55 40.32L12.05 39.15C12.05 39.15 10.82 40.05 9.93 40.05L3.92 40.05C3.46 40.05 3.27 39.72 3.27 39.24C3.27 38.19 5.82 34.01 11.74 34.01Z" />
	<path id="Path 151 copy" fill-rule="evenodd" class="shp1" d="M31.08 34.75C31.08 35.21 30.78 36.22 30.56 36.74L28.11 42.57L24.98 42.58L25.23 41.91C25.23 41.91 24.25 42.57 23.45 42.57L19.15 42.57C18.18 42.57 16.1 41.74 16.1 39.45C16.1 38.12 17.72 35.41 21.54 35.41L28.02 35.41C28.02 34.56 27.85 34.01 26.48 34.01L17.69 34.01L18.71 31.53L26.94 31.53C29.6 31.53 31.08 32.9 31.08 34.75ZM27.09 37.59C27.09 37.59 26.04 38.04 25.76 38.04L20.7 38.04C19.49 38.04 19.08 39.27 19.08 39.48C19.08 39.7 19.12 40.06 19.44 40.06L24.85 40.06C26.4 40.06 27.09 37.59 27.09 37.59ZM27.34 49.12L30.39 42.21C30.81 41.27 33.47 31.53 43.65 31.53L51.1 31.53L47.89 39.34C47.25 40.91 45.83 42.58 44.25 42.58L34.91 42.58L35.94 40.06L43.4 40.06C44.53 40.06 44.85 39.18 45.17 38.37L46.89 34.01L43.86 34.01C39.46 34.01 35.82 36.74 34.8 39.17L30.59 49.12L27.34 49.12ZM54.38 35.4L51.43 42.58L48.32 42.58L51.26 35.4L54.38 35.4ZM51.83 34.01L52.85 31.53L55.98 31.53L54.95 34.01L51.83 34.01ZM61.08 31.53L73.74 0.8L76.79 0.8L57.42 47.69C57.15 48.35 56.94 48.67 56.94 49.71C56.94 50.76 57.16 51.29 57.4 51.49L65.41 58.18L61.34 63.96C61.34 63.96 54.92 54 54.64 53.57C54.35 53.13 54.16 52.09 54.16 51.05C54.16 48.09 54.61 46.87 54.97 46L59.97 34.01L56.25 34.01L57.24 31.53L61.08 31.53Z" />
	<path id="Path 152 copy" fill-rule="evenodd" class="shp1" d="M78.52 34.75C78.52 35.22 78.21 36.22 77.99 36.74L75.55 42.58L72.41 42.58L72.66 41.91C72.66 41.91 71.68 42.57 70.88 42.57L66.58 42.57C65.61 42.57 63.53 41.75 63.53 39.45C63.53 38.13 65.15 35.42 68.97 35.42L75.45 35.42C75.45 34.56 75.29 34.01 73.92 34.01L64.08 34.01L65.09 31.53L74.37 31.53C77.03 31.53 78.52 32.91 78.52 34.75ZM74.52 37.59C74.52 37.59 73.48 38.04 73.19 38.04L68.13 38.04C66.92 38.04 66.51 39.27 66.51 39.49C66.51 39.7 66.56 40.06 66.88 40.06L72.28 40.06C73.83 40.06 74.52 37.59 74.52 37.59ZM77.16 42.58L87.35 17.86L90.4 17.86L80.19 42.58L77.16 42.58ZM81.9 42.58L82.9 40.05C82.9 40.05 93.89 40.06 94.61 40.06C95.32 40.06 95.89 39.35 95.89 38.96C95.89 38.57 95.66 38.25 95.19 38.25L88.2 38.25C87.46 38.25 85.74 37.31 85.74 35.71C85.74 34.12 86.63 31.53 91.33 31.53L101.6 31.53L100.57 34.01L90.05 34.01C89.22 34.01 88.75 34.86 88.75 35.3C88.75 35.69 89.14 35.87 89.24 35.87L95.77 35.87C97.25 35.87 98.88 36.39 98.88 38.48C98.88 40.58 97.56 42.58 94.32 42.58L81.9 42.58Z" />
	<path id="Path 153 copy" class="shp2" d="M75.97 56.83L78.54 53.73L70.5 53.73L68.05 56.83L75.97 56.83ZM21.16 27.83L20.23 27.83L20.52 25.34L18.45 27.83L17.51 27.83L17.66 24.4L18.56 24.4L18.46 26.81L20.29 24.42L21.28 24.42L21.15 26.78L23.03 24.42L23.92 24.42L21.16 27.83Z" />
	<path id="Path 154 copy" fill-rule="evenodd" class="shp2" d="M25.74 27.08L23.98 27.08L23.31 27.83L22.37 27.83L25.5 24.42L26.51 24.42L26.61 27.83L25.75 27.83L25.74 27.08ZM25.73 26.51L25.72 25.14L24.4 26.51L25.73 26.51ZM27.39 26.73L28.26 26.69C28.24 26.9 28.26 27.05 28.33 27.12C28.44 27.24 28.67 27.3 29.03 27.3C29.33 27.3 29.55 27.26 29.7 27.18C29.85 27.1 29.93 27 29.96 26.88C29.97 26.78 29.93 26.7 29.84 26.63C29.77 26.58 29.58 26.49 29.25 26.38C28.93 26.26 28.7 26.17 28.55 26.09C28.41 26.01 28.3 25.91 28.23 25.79C28.16 25.67 28.14 25.53 28.17 25.36C28.23 25.08 28.4 24.84 28.71 24.65C29.01 24.46 29.42 24.36 29.93 24.36C30.45 24.36 30.84 24.46 31.09 24.65C31.34 24.83 31.45 25.08 31.43 25.39L30.55 25.42C30.55 25.26 30.5 25.14 30.38 25.05C30.27 24.96 30.08 24.92 29.83 24.92C29.57 24.92 29.39 24.95 29.27 25.02C29.15 25.09 29.08 25.18 29.06 25.28C29.04 25.38 29.08 25.46 29.16 25.52C29.25 25.59 29.45 25.68 29.77 25.79C30.25 25.96 30.55 26.1 30.67 26.2C30.85 26.35 30.92 26.55 30.88 26.8C30.82 27.1 30.62 27.35 30.27 27.57C29.92 27.78 29.47 27.89 28.92 27.89C28.54 27.89 28.22 27.84 27.96 27.74C27.69 27.64 27.52 27.51 27.44 27.33C27.36 27.16 27.34 26.95 27.39 26.73ZM34.47 26.31L32.75 26.31L32.06 27.83L31.15 27.83L32.69 24.42L33.61 24.42L33.01 25.74L34.72 25.74L35.32 24.42L36.23 24.42L34.69 27.83L33.78 27.83L34.47 26.31ZM35.5 27.83L37.05 24.42L37.96 24.42L36.42 27.83L35.5 27.83ZM41.04 27.83L40.19 27.83L39.38 25.54L38.28 27.83L37.43 27.83L39.04 24.42L39.89 24.42L40.71 26.7L41.65 24.42L42.49 24.42L41.04 27.83ZM44.75 26.01L46.73 26.01L46.07 27.47C45.82 27.59 45.51 27.69 45.16 27.77C44.8 27.85 44.45 27.89 44.09 27.89C43.55 27.89 43.14 27.79 42.89 27.6C42.53 27.34 42.4 26.96 42.49 26.47C42.55 26.14 42.7 25.82 42.92 25.52C43.19 25.15 43.54 24.87 43.95 24.67C44.37 24.46 44.83 24.36 45.34 24.36C45.86 24.36 46.25 24.46 46.53 24.64C46.8 24.82 46.82 25.13 46.86 25.48L45.99 25.48C45.95 25.29 46 25.17 45.85 25.08C45.7 24.98 45.5 24.93 45.25 24.93C44.96 24.93 44.68 24.99 44.41 25.11C44.14 25.22 43.92 25.41 43.73 25.65C43.55 25.9 43.43 26.17 43.38 26.46C43.33 26.75 43.37 26.96 43.52 27.1C43.66 27.23 43.9 27.3 44.22 27.3C44.42 27.3 44.62 27.28 44.84 27.24C45.05 27.2 45.24 27.14 45.4 27.08L45.62 26.58L44.49 26.58L44.75 26.01ZM48.4 27.83L47.48 27.83L48.77 24.99L47.47 24.99L47.73 24.42L51.22 24.42L50.97 24.99L49.68 24.99L48.4 27.83Z" />
	<path id="Path 155 copy" fill-rule="evenodd" class="shp2" d="M50.67 26.49C50.71 26.29 50.78 26.08 50.9 25.86C51.06 25.56 51.26 25.3 51.51 25.08C51.76 24.86 52.06 24.68 52.41 24.55C52.75 24.43 53.13 24.36 53.54 24.36C54.08 24.36 54.5 24.49 54.79 24.76C55.08 25.02 55.19 25.37 55.11 25.8C55.05 26.16 54.87 26.5 54.59 26.84C54.31 27.18 53.97 27.44 53.56 27.62C53.15 27.8 52.7 27.89 52.23 27.89C51.81 27.89 51.48 27.82 51.23 27.67C50.97 27.53 50.81 27.35 50.73 27.14C50.65 26.92 50.63 26.71 50.67 26.49ZM51.57 26.48C51.53 26.71 51.59 26.91 51.75 27.07C51.9 27.22 52.13 27.3 52.43 27.3C52.68 27.3 52.93 27.24 53.18 27.12C53.43 26.99 53.65 26.8 53.84 26.55C54.04 26.29 54.16 26.05 54.2 25.81C54.25 25.54 54.19 25.33 54.03 25.18C53.87 25.03 53.65 24.95 53.36 24.95C52.91 24.95 52.52 25.11 52.18 25.43C51.85 25.75 51.64 26.1 51.57 26.48ZM58.43 27.83L57.58 27.83L56.8 25.54L55.76 27.83L54.91 27.83L56.45 24.42L57.31 24.42L58.1 26.7L59.13 24.42L59.97 24.42L58.43 27.83ZM30.67 21.5L28.46 19.87L26.16 21.57L27.02 18.82L24.75 17.15L27.54 17.15L28.39 14.45L29.26 17.15L32.14 17.15L29.82 18.86L30.67 21.5ZM45.66 21.5L43.44 19.87L41.15 21.57L42.01 18.82L39.74 17.15L42.53 17.15L43.38 14.45L44.25 17.15L47.12 17.15L44.81 18.86L45.66 21.5ZM60.6 21.5L58.38 19.87L56.09 21.57L56.95 18.82L54.68 17.15L57.47 17.15L58.32 14.45L59.19 17.15L62.06 17.15L59.75 18.86L60.6 21.5Z" />
</svg>